<svg width="1900" height="1044" fill="none" xmlns="http://www.w3.org/2000/svg"><path d="M958.296 946.114c-24.899-17.546-54.811-27.573-83.721-37.265l-1.838-.668c-42.78-14.539-81.215-46.623-120.652-100.934-9.693-13.368-19.051-27.238-28.075-40.774-20.22-30.08-41.108-61.162-66.843-87.565-43.448-44.284-95.753-67.011-143.713-61.997-30.581 3.175-58.656 17.045-85.727 30.413-5.348 2.674-10.862 5.348-16.21 8.022-29.411 14.037-68.013 29.076-104.777 19.718-32.084-8.021-56.482-32.753-80.045-56.816-25.066-25.401-50.801-51.637-85.893-57.653-23.228-4.011-46.958 1.671-69.685 7.186-5.681 1.337-11.697 2.841-17.546 4.01-37.265 8.022-65.34 4.178-83.387-11.53-20.889-18.048-24.398-47.96-26.236-77.204-2.172-32.754-2.674-61.663 12.199-85.56 23.228-37.265 76.201-45.453 117.811-40.44 15.876 1.838 31.918 5.013 47.292 8.188 27.573 5.515 55.981 11.364 84.39 9.358 22.559-1.504 45.286-7.687 67.344-13.703 38.77-10.527 75.366-20.554 110.96-7.185 23.73 8.857 42.279 27.071 60.16 44.618 11.363 11.196 23.061 22.727 36.262 32.085 56.149 39.771 132.517 34.424 184.989 26.904 12.032-1.671 24.398-3.676 36.263-5.682 50.466-8.188 102.772-16.71 153.238-7.018 23.396 4.512 47.793.835 71.523-2.674 26.403-4.011 53.642-8.021 78.871-.501 14.54 4.345 30.42 11.697 47.3 19.384 19.71 9.024 39.77 18.382 58.65 23.061v-1.671c-18.55-4.679-38.43-13.87-57.99-22.894-16.87-7.854-32.92-15.207-47.45-19.551-25.74-7.52-53.145-3.51-79.716.501-23.562 3.509-47.793 7.186-70.854 2.674-50.801-9.86-103.106-1.337-153.739 7.018-11.865 2.006-24.231 4.011-36.263 5.682-52.305 7.52-128.172 12.867-183.819-26.57-13.035-9.191-24.732-20.722-35.929-31.918-18.047-17.713-36.596-36.095-60.66-44.952-36.095-13.536-74.697-3.008-111.963 7.185-21.891 6.016-44.618 12.199-67.01 13.703-28.241 1.839-56.483-3.843-83.889-9.358-15.541-3.175-31.583-6.35-47.458-8.188-42.279-4.846-95.754 3.342-119.483 41.276-15.207 24.23-14.706 53.642-12.533 86.562 1.838 29.578 5.514 59.825 26.904 78.374 18.55 16.042 47.125 20.053 84.891 11.865l17.547-4.011c22.727-5.515 46.122-11.196 69.016-7.186 34.591 6.016 60.159 32.085 85.058 57.319 23.729 24.063 48.294 48.962 80.88 57.151 37.266 9.358 76.202-5.682 105.947-19.886 5.348-2.507 10.862-5.348 16.21-8.021 27.071-13.369 54.978-27.239 85.225-30.247 47.459-4.846 99.262 17.546 142.376 61.496 25.735 26.236 46.624 57.318 66.677 87.23 9.024 13.536 18.382 27.406 28.074 40.775 39.772 54.644 78.374 86.896 121.488 101.602l1.838.668c28.743 9.693 58.488 19.719 83.22 37.098 32.085 22.56 53.975 57.482 59.995 95.582h1.67c-6.52-38.76-28.578-74.192-61.164-97.086z" fill="#ECECEC"/><path d="M400.154 416.046c-23.228-15.708-55.814-21.39-94.249-16.376-16.544 2.172-33.088 5.848-48.963 9.525-15.207 3.509-30.915 7.018-46.456 9.191-48.462 6.684-92.913-3.008-140.037-13.369h-.334c-19.552-4.345-66.51-9.358-80.881 36.43-6.016 19.551-1.17 41.61 12.533 56.482 22.894 24.732 62.165 25.234 89.57 23.563 3.008-.167 6.183-.335 9.191-.669 28.91-2.005 58.99-4.01 83.889 9.358 14.872 8.022 26.57 20.889 37.766 33.422 2.841 3.008 5.682 6.35 8.523 9.358 19.551 20.889 37.432 33.088 56.482 38.268 6.183 1.671 12.534 2.507 18.717 2.507 18.214 0 35.259-7.186 44.952-19.719 4.846-6.183 7.854-13.369 10.862-20.555 2.339-5.514 4.846-11.196 8.021-16.376 6.851-10.695 17.212-18.883 27.406-26.905 11.029-8.689 22.225-17.546 29.077-29.745 16.711-29.912-.502-67.01-26.069-84.39zm24.565 83.554c-6.685 11.865-17.881 20.722-28.743 29.244-10.194 8.022-20.721 16.377-27.74 27.239-3.342 5.181-5.849 11.029-8.188 16.711-3.008 6.851-6.016 14.037-10.695 20.053-12.7 16.21-38.101 23.061-61.83 16.544-18.717-5.181-36.43-17.212-55.647-37.767-2.841-3.008-5.682-6.183-8.523-9.358-11.363-12.533-23.061-25.567-38.101-33.756-16.209-8.689-34.424-11.029-52.973-11.029-10.528 0-21.223.669-31.918 1.504-3.008.167-6.183.501-9.19.668-27.24 1.672-65.842 1.17-88.401-23.06-13.369-14.372-18.048-35.929-12.2-54.812 13.87-44.451 59.826-39.438 78.876-35.26h.334c47.292 10.361 91.91 20.22 140.706 13.536 15.708-2.173 31.416-5.682 46.623-9.191 15.875-3.676 32.419-7.353 48.796-9.525 38.1-4.846 70.185.668 93.079 16.209 25.066 16.878 41.944 52.974 25.735 82.05z" fill="#ECECEC"/><path d="M340.998 422.731c-17.547-2.507-35.427 1.671-52.472 5.848-3.008.669-6.183 1.504-9.191 2.173-39.104 8.856-79.21 11.363-119.316 7.52l-2.172-.167c-11.865-1.17-24.064-2.34-34.759 2.506-6.517 3.008-13.87 11.865-14.538 20.22-.334 4.846 1.504 8.69 5.347 11.364 5.348 3.509 15.541 3.509 25.401 3.509 6.183 0 12.032 0 16.042.835 28.91 6.351 54.477 22.059 71.857 44.117 3.008 3.844 5.849 8.021 8.689 11.865 4.512 6.35 9.024 13.034 14.539 18.883 9.692 10.194 21.39 15.875 32.252 15.875.835 0 1.838 0 2.673-.167 13.703-1.169 24.231-11.196 30.916-19.217 3.342-4.178 6.35-8.523 9.358-12.868 3.843-5.514 7.687-11.363 12.366-16.376 4.679-5.181 10.193-9.86 15.708-14.204 3.843-3.175 7.854-6.518 11.53-9.86 10.862-10.361 16.711-21.056 17.045-31.583.669-21.223-20.888-37.266-41.275-40.273zm39.437 40.106c-.334 10.026-5.849 20.387-16.544 30.413-3.676 3.51-7.519 6.685-11.363 9.86-5.347 4.512-11.029 9.024-15.875 14.371-4.679 5.18-8.69 11.029-12.533 16.544-2.841 4.345-5.849 8.689-9.191 12.7-6.35 7.854-16.711 17.546-29.746 18.716-11.196 1.003-23.395-4.512-33.588-15.207-5.515-5.681-10.027-12.199-14.372-18.549-2.841-4.01-5.681-8.188-8.689-12.032-17.714-22.392-43.616-38.267-72.86-44.618-4.01-.835-9.358-.835-15.207-.835h-1.169c-9.191 0-19.552 0-24.398-3.342-3.509-2.34-5.013-5.682-4.679-9.86.668-7.687 7.52-16.042 13.536-18.716 10.36-4.846 22.392-3.509 33.923-2.339l2.172.167c40.106 4.01 80.546 1.504 119.817-7.52 3.008-.668 6.183-1.504 9.191-2.172 17.045-4.011 34.591-8.356 51.803-5.849 19.719 2.673 40.608 18.047 39.772 38.268zm588.556 405.071c-12.7-5.014-25.4-10.695-37.599-16.377-25.902-11.698-52.472-23.897-80.714-29.578-38.267-7.52-72.859-36.931-102.938-87.231-6.351-10.528-12.366-21.557-18.215-32.252-16.21-29.578-32.921-60.159-57.486-84.055-37.599-36.764-89.57-54.478-139.869-71.69-10.194-3.509-20.722-7.019-30.748-10.695-8.523-3.008-16.711-6.35-22.894-11.865-5.682-5.18-10.194-14.204-7.52-22.392 2.841-8.356 12.032-13.035 20.053-14.037 8.355-1.003 16.878 1.002 25.233 3.008l1.17.334c107.284 24.899 220.082 22.225 326.196-7.687 35.427-10.027 76.034-19.552 111.461-5.348 29.578 11.698 54.979 32.252 79.379 51.971 4.68 3.844 9.52 7.687 14.2 11.364 18.22 14.371 38.94 29.244 62 38.936v-1.838c-22.56-9.693-42.95-24.231-60.83-38.435-4.68-3.677-9.52-7.52-14.2-11.364-24.57-19.886-49.968-40.273-79.88-52.138-35.929-14.204-76.87-4.679-112.464 5.348-105.78 29.912-218.244 32.586-325.361 7.687l-1.169-.334c-8.356-2.006-17.045-4.011-25.735-3.008-7.854 1.002-18.215 5.514-21.39 15.207-2.674 7.854.501 17.379 8.021 24.063 6.35 5.849 14.706 9.191 23.395 12.199 10.194 3.677 20.722 7.186 30.748 10.695 50.133 17.045 101.769 34.759 139.202 71.188 24.398 23.73 40.941 54.311 57.151 83.722 5.849 10.695 11.865 21.724 18.215 32.252 30.246 50.801 65.339 80.379 103.941 88.066 27.907 5.514 54.477 17.713 80.212 29.411 12.366 5.681 25.066 11.363 37.767 16.376 71.187 28.075 122.157 98.762 126.167 173.629h1.67c-3.84-75.536-55.31-146.891-127.169-175.132z" fill="#ECECEC"/><path d="M987.875 545.722c-53.141-29.244-111.629-33.923-156.247-12.7-23.228 11.029-44.952 33.589-41.443 59.157 3.008 21.724 21.891 35.427 40.106 48.628 15.875 11.531 32.252 23.395 38.936 40.607 5.014 12.701 3.844 26.905 2.841 40.441-1.002 13.535-2.005 27.406 2.674 40.273 5.347 14.873 18.883 28.241 37.767 37.265 11.363 5.515 23.729 9.191 35.594 12.7a343.637 343.637 0 0115.875 5.014c58.152 19.384 114.972 73.026 147.052 118.479v-2.84c-32.42-45.287-88.9-97.926-146.551-117.311-5.18-1.671-10.695-3.342-15.875-5.013-11.865-3.509-24.064-7.353-35.26-12.7-18.549-8.857-31.751-21.891-36.931-36.43-4.512-12.533-3.509-26.236-2.507-39.604 1.003-13.87 2.006-28.242-3.007-41.276-6.852-17.714-23.396-29.746-39.438-41.276-18.716-13.536-36.43-26.403-39.438-47.459-3.342-24.732 17.881-46.623 40.441-57.485 44.116-20.889 101.936-16.21 154.575 12.7 42.781 23.395 88.571 70.854 123.831 108.621v-2.507c-35.26-37.265-80.55-84.056-122.995-107.284z" fill="#ECECEC"/><path d="M1012.27 625.433c-26.902-16.209-52.971-18.883-69.682-7.186-13.703 9.693-20.554 28.743-18.883 52.305 2.841 43.114 27.406 86.395 67.177 118.647 30.418 24.565 68.678 43.281 120.148 58.488v-1.671c-50.96-15.04-89.07-33.588-119.145-57.986-39.437-31.918-63.668-74.698-66.509-117.31-.669-10.863-.334-37.6 18.215-50.802 23.896-16.877 57.989 1.17 67.849 7.186 28.57 17.212 77.37 83.053 99.59 118.647v-3.509c-23.06-36.096-70.68-99.764-98.76-116.809z" fill="#ECECEC"/><path opacity=".5" d="M1713.09 200.572c-13.13.248-26.33-1.765-39.13-3.717-13.88-2.219-28.28-4.415-42.62-3.635-21.03 1.089-41.53 8.706-58.47 21.162-8.18 6.016-15.63 13.27-21.77 21.336-19.06 25.024-26.12 57.913-18.94 87.962 2.75 11.469 7.57 22.843 12.24 33.787 8.11 19.244 15.98 37.427 13.76 57.345-1.92 18.635-12.6 35.012-22.79 50.85-7.9 12.198-15.97 24.881-20.42 38.628-6.19 19.109-4.05 41.329 5.81 60.532 9.77 19.088 26.29 33.576 45.11 39.618 5.85 1.915 12.1 3.175 18.07 4.29 11.82 2.315 24.01 4.89 33.44 12.159 20.68 16.044 18.41 47.005 16.6 59.518-1.22 7.999-3.15 15.991-5.06 23.783-3.27 13.415-6.52 27.345-6.39 41.278.12 19.969 9.99 41.833 28.26 48.814l1.27-.932c-18.17-6.351-28.08-28.53-28.22-47.784-.15-13.733 3.18-27.548 6.25-40.993 1.91-7.792 3.76-15.899 4.98-23.898 1.95-12.798 4.31-44.359-17.11-60.924-9.59-7.5-22.1-10.021-34.01-12.451-6.05-1.23-12.1-2.46-17.87-4.259-18.54-5.897-34.68-20.124-44.28-38.982-9.7-18.972-11.81-40.677-5.77-59.501 4.42-13.547 12.5-26.23 20.36-38.228 10.31-15.923 20.94-32.616 23-51.535 2.2-20.433-6.03-39.593-13.84-58.175-4.59-10.829-9.32-22.088-12.07-33.557-7.04-29.618-.04-62.108 18.76-86.762 18.8-24.654 48.41-40.395 79.24-41.935 14.22-.695 28.5 1.585 42.42 3.604 12.79 1.952 26.19 3.995 39.52 3.778 37.57-.819 69.94-19.824 90.37-35.737 24.35-18.794 68.46-66.496 96.03-117.845l-.93-1.267c-27.49 51.463-71.71 99.25-95.95 117.96-20.55 15.998-52.59 34.949-89.85 35.713z" fill="#D9D9D9"/><path opacity=".5" d="M1840.47 162.295c-3.76 1.881-7.7 3.532-11.4 5.013-6.78 2.854-13.67 5.793-19.92 9.853-11.37 7.474-18.31 18.079-18.43 28.291-.16 16.448 15.53 27.639 29.16 32.173 11.69 3.829 24.27 5.235 36.47 6.38 14.81 1.542 30.12 3.06 43.68 9.424 16.04 7.561 27.98 21.148 39.67 34.389 9.68 10.991 19.82 22.358 32.1 30.37 17.31 11.234 38.96 15.558 59.48 11.832 20.4-3.64 39.45-15.161 52.19-31.634l-.42-.576-.54-.491c-12.52 16.303-31.33 27.654-51.42 31.241-20.2 3.671-41.45-.592-58.39-11.565-12.2-7.897-22.25-19.149-31.93-30.14-11.69-13.241-23.81-27.058-40.12-34.765-13.65-6.479-29.17-8.028-44.09-9.484-12.09-1.23-24.69-2.436-36.27-6.35-13.14-4.358-28.29-15.057-28.14-30.79.06-9.812 6.82-19.933 17.85-27.152 6.13-3.976 13.02-6.915 19.68-9.684 3.82-1.566 7.67-3.332 11.52-5.098 20.04-9.938 55.33-60.212 70.59-98.603l-1.01-1.383c-14.86 37.737-50.74 89.15-70.31 98.749z" fill="#D9D9D9"/><path opacity=".5" d="M2059.99 367.138c-26.32 12.254-56.45 13.285-76.64 2.739-20.01-10.316-34.83-27.821-49.21-44.95-12.93-15.17-26.28-30.915-43.34-41.804-25.85-16.322-57.58-19.625-88.3-22.776-6.14-.63-12.69-1.321-18.92-2.066-6.43-.776-12.83-1.752-19.14-2.613-24.63-3.551-50.17-7.139-75.24-3.084-14.07 2.356-29.4 8.305-41.96 17.541-13.48 9.914-23.97 23.661-26.68 40.743-2.49 15.682 1.91 31.086 6.26 46.175 4.32 15.289 8.78 31.008 6 46.544-4.34 23.79-23.73 40.886-42.62 57.443-2.6 2.264-5.2 4.528-7.71 6.908-13.04 11.72-42.2 42.57-31.47 72.853 5.21 14.811 19.21 26.357 41.3 34.433 5.33 1.938 10.81 3.592 16.09 5.215 12.12 3.69 24.53 7.527 35.17 14.264 22.12 13.912 37.1 39.829 44.21 77.029 2.21 11.693 3.75 23.694 5.16 35.265 2.16 16.698 4.37 33.712 8.63 50.116l1.26-.932c-4.19-16.089-6.24-32.872-8.26-49.14-1.49-11.686-2.92-23.772-5.13-35.465-7.25-37.631-22.4-63.778-44.89-77.951-10.92-6.883-23.45-10.634-35.65-14.44-5.28-1.623-10.76-3.277-15.89-5.185-21.72-7.815-35.23-19.185-40.42-33.48-10.54-29.537 18.21-59.733 31.02-71.284 2.6-2.265 5-4.559 7.59-6.823 18.93-16.757 38.66-34.108 43.06-58.297 2.84-15.936-1.58-31.856-5.99-47.259-4.18-14.859-8.58-30.263-6.15-45.545 5.26-32.449 38.57-52.331 67.34-57.152 24.87-4.085 50.21-.528 74.72 3.108 6.32.861 12.72 1.836 19.15 2.612 6.23.746 12.66 1.522 18.92 2.067 30.52 3.12 62.04 6.393 87.61 22.569 16.89 10.658 30.16 26.289 43.09 41.458 14.49 17.044 29.48 34.78 49.58 45.211 20.67 10.723 51.23 9.552 77.87-2.755 20.57-9.447 35.93-24.293 43.82-41.812l-1.02-1.383c-7.6 17.665-22.85 32.426-43.22 41.903z" fill="#D9D9D9"/><path opacity=".5" d="M1956.18 415.25c-9.48-10.961-17.4-23.423-24.99-35.424-3.63-5.67-7.41-11.77-11.25-17.471-9.62-14.051-24.91-33.878-46.64-43.638-18.86-8.503-40.23-8.59-60.88-8.67-16.05-.094-32.7-.28-48.17-4.174-4.34-1.071-8.82-2.572-13.21-3.958-13.74-4.449-27.86-9.16-41.58-4.397-3.24 1.142-6.26 2.83-8.91 4.779-11.41 8.389-17.21 22.953-18.78 34.581-1.69 12.429-.24 25.03 1.28 37.231.42 3.952.92 8.019 1.43 12.086 1.16 13.171 1.69 32.486-7.98 47.585-7.4 11.66-19.69 19.096-31.66 26.478-1.92 1.241-3.94 2.366-5.87 3.607-11.77 7.413-27.78 19.191-31.21 36.266-3.69 18.16 8.09 34.892 20.12 44.503 9.03 7.209 19.71 12.316 29.99 17.362 4.76 2.362 9.71 4.755 14.44 7.317 45.34 24.716 90.62 92.085 85.96 146.11l1.61-1.186c1.81-24.586-6.05-52.896-22.78-80.718-16.95-28.367-40.96-52.795-64.26-65.66-4.73-2.562-9.68-4.955-14.44-7.317-10.19-4.931-20.76-10.123-29.7-17.216-11.87-9.381-23.22-25.537-19.62-43.097 3.44-16.56 19.03-28.199 30.57-35.442 1.93-1.241 3.86-2.481 5.87-3.607 11.97-7.382 24.49-14.988 32.12-26.817 9.93-15.469 9.43-34.984 8.21-48.47-.3-4.036-.81-8.103-1.31-12.17-1.43-12.086-3-24.603-1.34-36.831 1.82-13.944 10.06-32.432 26.79-38.168 13.29-4.623 27.12-.058 40.67 4.361 4.39 1.386 8.87 2.887 13.29 4.073 15.64 4.124 32.4 4.225 48.57 4.234 20.54.166 41.7.222 60.28 8.579 21.45 9.615 36.57 29.211 46.11 43.147 3.83 5.7 7.64 11.601 11.25 17.471 7.66 12.116 15.59 24.578 25.15 35.654 16.47 18.779 42.32 35.816 69.29 45.453 17.45 6.344 42.45 12.102 68.3 7.654l2.65-1.949c-54.37 11.044-113.79-22.673-139.37-52.151z" fill="#D9D9D9"/><path opacity=".5" d="M1956.66 473.128c-9.91-14.197-17.13-30.543-24.05-46.228-5.49-12.296-11.12-25.023-17.93-36.702-19.18-32.593-47.07-50.965-74.63-49.337-8.16.495-16.08 2.766-23.88 4.952-7.49 2.133-15.37 4.204-23.25 4.845-5.06.352-10.24.075-15.3-.288-11.07-.562-22.53-1.185-32.11 4.618-.69.508-1.47.901-2.05 1.325-9.79 7.203-15.09 20.512-16.08 40.414-.05 1.63-.09 3.26-.22 4.775-.7 14.012-1.39 28.538-9.61 39.56-4.87 6.42-11.89 10.873-18.6 15.273-4.98 3.128-9.99 6.457-14.29 10.507-15.38 14.33-19.96 39.004-10.38 57.347 8.46 16.329 25.22 25.841 41.44 34.863 2.93 1.572 5.75 3.23 8.56 4.887 41.8 24.482 75.83 62.308 95.61 106.35l1.15-.847c-19.95-44.273-54.07-82.214-96.06-106.727-2.82-1.657-5.75-3.229-8.56-4.887-16.03-8.991-32.62-18.273-40.82-34.256-9.16-17.766-4.9-41.671 10.11-55.547 4.18-3.966 9.28-7.179 14.06-10.338 6.9-4.369 13.96-9.023 18.94-15.527 8.6-11.476 9.31-26.202 9.93-40.329.05-1.63.09-3.26.22-4.775 1.14-20.902 6.85-34.151 17.55-40.601 9.15-5.664 19.9-5.047 31.37-4.424 5.17.278 10.35.555 15.5.318 7.96-.526 15.87-2.797 23.44-4.814 7.69-2.101 15.61-4.373 23.57-4.898 27.05-1.605 54.45 16.591 73.4 48.639 6.82 11.679 12.56 24.321 17.97 36.501 7 15.801 14.26 31.947 24.22 46.459 13.66 19.783 33.12 37.074 59.23 53.026l1.27-.932c-26.68-16.244-46.03-33.62-59.72-53.202z" fill="#D9D9D9"/><path opacity=".5" d="M1905.56 464.721c-2.34-9.463-2.99-19.281-3.67-28.9-.58-8.988-1.2-18.291-3.32-27.208-4.23-18.55-17.18-37.61-36.89-38.569-8.63-.396-16.9 2.845-24.86 6.031-4.91 2.013-10.02 3.996-15.09 5.064-4.01.821-8.28 1.295-12.43 1.685-8.62.834-17.56 1.723-24.47 6.807-.58.423-1.04.762-1.53 1.301-6.37 5.576-8.97 13.876-11.22 21.922-1.71 5.877-3.54 11.839-6.88 16.957-5.17 7.704-13.6 12.659-21.76 17.245-8.52 4.841-17.18 9.966-22.52 18.154-10.1 15.954-2.92 37.306 9.46 50.039 8.92 9.238 20.3 15.782 31.31 22.066 4.53 2.531 9.14 5.178 13.43 7.879 31.06 19.775 63.55 65.654 77.9 100.376l1.15-.847c-14.52-34.953-47.1-80.947-78.35-100.752-4.38-2.817-8.99-5.464-13.51-7.995-11.01-6.283-22.31-12.712-31.07-21.72-12.01-12.472-19.11-32.994-9.29-48.378 4.99-7.935 13.62-12.86 21.93-17.73 8.32-4.871 16.95-9.796 22.26-17.785 3.45-5.202 5.31-11.364 7.14-17.326 2.48-8.215 4.79-15.946 10.81-21.268 6.84-5.914 15.77-6.802 25.22-7.715 4.16-.39 8.62-.834 12.64-1.654 5.18-1.153 10.41-3.22 15.32-5.234 8.16-3.155 15.91-6.372 24.23-5.922 18.79.921 31.62 20.067 35.52 37.44 2.04 8.802 2.58 17.99 3.15 26.978.68 9.619 1.3 19.637 3.73 29.215 7.55 30.31 43.85 64.696 72.79 89.571l1.15-.847c-28.49-24.5-64.78-58.885-72.28-88.88z" fill="#D9D9D9"/><path opacity=".5" d="M1807.34 423.858c-2.08 1.525-4.1 3.366-5.72 5.267-6.79 7.66-11.02 18.577-12.28 31.582-2.08 23.009 5.34 46.137 20.43 63.272 9.68 10.991 21.88 15.512 34.49 12.627 15.49-3.573 29.27-18.147 34.16-36.124 8.68-32.13 1.47-70.676-29.41-82.238-13.82-5.28-30.15-2.86-41.67 5.614zm69.62 76.096c-3.22 11.784-10.22 22.074-19.09 28.599-4.26 3.135-9.12 5.464-13.99 6.562-11.99 2.776-23.82-1.483-33.05-12.098-14.8-16.99-22.08-39.687-20.06-62.297 1.12-12.72 5.28-23.237 11.85-30.727 10.84-12.056 30.05-16.595 45.81-10.611 30.07 11.441 37.13 49.041 28.53 80.572z" fill="#D9D9D9"/></svg>