<svg width="838" height="938" fill="none" xmlns="http://www.w3.org/2000/svg"><g opacity=".07" fill="#000"><path d="M125.446 681.377c27.818-7.052 55.613-20.81 82.387-41.157 24.538-18.617 42.367-38.05 54.368-59.41 19.699-35.184 23.905-76.385 28.025-116.203 1.82-17.156 3.593-34.879 6.637-51.835 2.823-15.596 7.374-35.798 18.62-52.533 14.357-21.256 36.411-37.486 67.45-49.737 43.709-17.167 74.009-65.981 70.444-113.475-.951-13-4.282-25.97-7.429-38.351-2.48-9.62-4.894-19.647-6.356-29.52-3.946-27.171 2.722-50.937 17.721-63.29 23.539-19.34 57.88-7.317 71.562-1.316 6.648 2.899 13.207 6.342 19.517 9.605 16.113 8.213 32.726 16.786 50.97 18.784 11.242 1.274 22.768-.057 34.001-1.297 13.927-1.499 28.307-3.203 41.98.283 21.042 5.386 36.094 20.965 52.123 37.402 11.596 11.944 23.555 24.226 37.901 32.15 17.16 9.5 36.789 12.422 55.875 15.255 12.67 1.927 25.907 3.806 38.245 7.773 40.098 12.682 73.25 47.409 86.451 90.611 12.467 40.848 7.238 87.467-14.007 127.844-3.038 5.788-6.506 11.645-9.952 17.366-11.373 19.228-23.13 39.092-22.44 61.405.969 30.875 25.59 55.414 45.3 74.964 21.256 21.198 42.777 46.768 40.251 75.956-1.739 20.939-14.889 37.365-28.602 54.676-6.677 8.405-13.533 17.061-19.074 26.21-12.905 21.771-17.932 48.317-14.774 76.897 2.9 25.884 12.622 52.741 27.609 75.57 24.598 37.521 79.741 95.799 129.841 124.214l.24-1.496c-49.8-28.506-104.603-86.311-128.952-123.651-32.525-49.704-37.513-109.019-12.671-150.904 5.383-9.036 12.24-17.691 18.916-26.097 13.331-16.675 27.044-33.986 28.85-55.333 2.614-29.732-19.112-55.754-40.618-77.133-19.574-19.528-44.104-43.773-44.889-74.06-.621-21.882 10.977-41.632 22.329-60.725 3.31-5.743 6.914-11.578 9.952-17.365 21.583-40.741 26.743-87.79 14.184-128.933-13.27-43.631-46.786-78.697-87.27-91.582-12.474-3.989-25.575-5.846-38.381-7.795-18.949-2.81-38.579-5.732-55.467-15.188-14.209-7.902-26.033-20.162-37.515-31.948-15.415-15.917-31.444-32.354-52.759-37.784-13.945-3.531-28.438-1.985-42.524-.373-11.096 1.263-22.465 2.48-33.57 1.228-17.95-2.09-34.449-10.505-50.427-18.695-6.445-3.285-13.005-6.728-19.653-9.627-13.931-6.182-48.93-18.451-72.988 1.501-15.474 12.696-22.208 36.869-18.215 64.607 1.44 10.009 3.99 20.058 6.47 29.678 3.147 12.381 6.364 25.192 7.315 38.193 3.518 46.928-26.399 95.106-69.52 112.089-31.333 12.344-53.546 28.688-68.083 50.192-11.404 16.85-16.113 37.165-18.844 53.056-3.067 17.092-4.84 34.814-6.66 51.97-4.097 39.683-8.281 80.748-27.8 115.682-11.842 21.246-29.513 40.565-54.029 59.046-26.594 20.097-54.117 33.9-81.776 40.838-23.02 5.881-46.079 6.867-67.523 3.091l-.222 1.36c20.948 4.254 44.165 3.153 67.456-2.683z"/><path d="M263.436 700.808c51.211-35.77 84.589-85.478 91.707-135.978 2.938-21.441 1.501-43.457.068-64.634-.624-9.875-1.317-20.181-1.646-30.148-.91-39.801 7.031-68.804 24.269-88.891 11.191-12.975 26.339-21.954 40.853-30.478 7.416-4.375 15.125-8.843 22.244-13.965 44.497-31.419 70.468-87.082 66.425-141.915-1.094-14.699 4.726-34.973 10.657-49.085 6.403-15.292 19.03-25.938 32.189-27.004 9.625-.804 18.383 2.858 27.64 6.881 6.126 2.675 12.524 5.393 19.166 6.616 8.818 1.578 17.786.527 26.459-.432 8.402-1.004 16.939-1.985 25.235-.632 23.121 3.77 39.595 24.328 54.529 44.914 14.456 20.09 32.327 44.925 34.986 73.143 2.286 25.366-7.51 48.621-17.822 73.328-6.875 16.472-14.132 33.579-17.129 51.101-3.752 22.147-1.269 45.45 1.211 67.915 3.512 32.406 6.904 62.978-6.977 90.734-8.662 17.157-23.114 30.438-36.934 43.264-7.068 6.526-14.453 13.281-20.93 20.462-23.853 26.408-40.267 61.988-48.541 105.877-5.562 28.972-6.154 54.008-1.725 76.511 2.883 14.852 8.371 29.15 13.652 42.996 4.23 10.882 8.55 22.059 11.581 33.443 9.16 34.585-4.091 48.201-16.845 61.34-5.53 5.661-11.083 11.457-14.795 18.81-3.33 6.718-6.909 13.255-10.466 19.656-10.738 19.611-20.89 38.201-24.733 60.053-2.176 12.49-7.336 27.01-12.651 42.48-7.132 20.62-14.982 43.07-16.386 62.81l1.36.22c1.245-19.62 9.074-41.94 16.206-62.56 5.451-15.45 10.497-30.12 12.695-42.75 3.799-21.58 13.929-40.034 24.531-59.668 3.557-6.401 7.136-12.938 10.465-19.655 3.532-7.104 8.905-12.65 14.593-18.424 13.071-13.367 26.524-27.37 17.202-62.678-3.008-11.521-7.328-22.697-11.558-33.579-5.304-13.711-10.791-28.009-13.697-42.725-4.314-22.345-3.767-47.108 1.773-75.944 8.366-43.595 24.485-79.083 48.294-105.219 6.477-7.182 13.862-13.936 20.908-20.327 13.978-12.939 28.588-26.334 37.272-43.627 14.062-28.006 10.528-60.276 7.089-91.414-2.48-22.465-4.986-45.632-1.279-67.507 2.997-17.523 10.233-34.494 17.085-50.829 9.999-23.641 20.289-48.212 17.933-74.008-2.614-28.49-20.713-53.642-35.169-73.731-15.025-20.881-31.727-41.755-55.414-45.478-8.432-1.375-17.242-.438-25.643.565-8.674.96-17.505 2.033-26.187.477-6.507-1.2-12.769-3.897-18.917-6.435-9.007-3.843-18.401-7.888-28.32-6.992-13.589 1.135-26.69 12.123-33.318 27.936-2.944 6.92-12.171 30.967-10.746 49.629 4.132 54.289-21.773 109.544-65.796 140.622-7.096 4.986-14.669 9.475-22.085 13.851-14.672 8.638-29.82 17.617-41.191 30.841-17.555 20.315-25.562 49.726-24.561 89.822.171 10.081.887 20.25 1.624 30.283 1.433 21.178 3.028 43.079-.024 64.363-7.074 50.227-40.227 99.413-91.143 135.092-45.876 32.171-99.277 50.55-150.913 68.379L39.75 793.342l-.244 1.496 72.771-24.993c51.588-18.395 105.125-36.752 151.159-69.037z"/><path d="M99.313 923.829c17.585-17.936 29.716-40.95 41.441-63.193l.788-1.407c17.51-32.888 48.724-59.911 98.161-84.801 12.166-6.114 24.697-11.889 36.911-17.437 27.165-12.465 55.234-25.34 80.139-42.781 41.808-29.484 67.246-69.038 69.532-108.737 1.474-25.31-6.088-50-13.376-73.807-1.466-4.707-2.91-9.55-4.377-14.257-7.521-25.8-14.638-59.214-2.142-87.893 10.786-25.049 34.153-41.623 56.865-57.606 24-17.03 48.768-34.493 58.322-62.256 6.347-18.372 4.872-38.439 3.4-57.668-.334-4.802-.759-9.897-.935-14.813-1.582-31.394 5.272-53.733 20.452-66.336 17.461-14.606 42.271-13.492 66.316-11.107 26.946 2.579 50.541 6.008 68.016 21.284 27.247 23.851 26.881 68.051 17.278 101.252-3.603 12.676-8.316 25.311-12.941 37.402-8.148 21.71-16.678 44.054-18.817 67.441-1.77 18.561.246 37.878 2.215 56.63 3.423 32.95 6.726 64.066-8.879 91.261-10.357 18.138-27.644 30.817-44.297 43.041-10.621 7.762-21.558 15.752-30.926 25.255-39.822 40.419-45.605 103.284-46.449 146.988-.237 10.014-.246 20.344-.189 30.267-.033 42.16-.039 85.862-14.625 125.649-6.778 18.442-7.023 38.787-7.317 58.565-.24 22.021-.591 44.725-10.06 64.265-5.466 11.25-13.557 23.2-22.053 35.91-9.962 14.85-20.24 29.93-26.554 44.68l1.36.22c6.27-14.47 16.39-29.44 26.329-44.15 8.632-12.7 16.746-24.78 22.211-36.03 9.536-19.95 9.909-42.788 10.172-64.945.271-19.642.495-39.851 7.227-58.021 14.767-40.038 14.773-83.739 14.693-126.057-.058-9.923-.049-20.254.188-30.268.822-43.568 6.539-106.024 46.022-146.08 9.21-9.389 20.147-17.379 30.745-25.005 16.812-12.338 34.235-24.995 44.637-43.404 15.807-27.581 12.362-60.396 9.011-92.078-1.991-18.615-4.007-37.932-2.259-56.357 2.252-23.229 10.625-45.46 18.75-67.033 4.647-12.227 9.36-24.862 12.963-37.539 9.556-33.766 9.989-78.375-17.735-102.722-17.703-15.593-41.707-19.088-68.788-21.689-24.317-2.43-49.422-3.452-67.358 11.495-15.518 12.967-22.575 35.692-20.923 67.516l.936 14.813c1.471 19.229 2.991 39.024-3.312 57.124-9.487 27.355-34.097 44.704-57.939 61.62-22.734 16.119-46.259 32.807-57.249 58.242-12.562 29.087-5.489 62.773 2.124 88.867 1.33 4.685 2.91 9.55 4.377 14.257 7.287 23.807 14.872 48.361 13.306 73.377-2.355 39.269-27.455 78.459-68.947 107.716-24.768 17.463-52.838 30.338-79.844 42.689-12.214 5.548-24.745 11.323-36.912 17.437-49.752 25.117-81.124 52.254-98.815 85.392l-.788 1.407c-11.703 22.107-23.811 44.985-41.239 62.808-22.619 23.119-53.95 36.3-85.757 36.14l-.222 1.36c32.418-.159 64.18-13.41 87.137-36.893z"/><path d="M604.801 539.92c15.868-16.82 24.817-42.587 25.838-74.534.427-13.753-.369-27.705-1.254-41.114-.838-12.842-1.61-26.093-1.315-39.029.991-40.329 14.779-75.221 29.466-112.199l.044-.272c6.132-15.336 16.444-52.889-18.914-70.662-15.115-7.491-33.711-6.475-47.634 2.704-23.167 15.35-28.787 47.245-31.064 69.772-.264 2.47-.549 5.077-.676 7.569-2.205 23.795-4.565 48.542-18.75 67.033-8.502 11.04-20.527 18.853-32.214 26.302-2.825 1.913-5.922 3.781-8.747 5.694-19.596 13.14-31.897 26.074-38.642 40.891a59.387 59.387 0 00-4.524 14.9c-2.418 14.825 1.168 29.651 10.083 39.203 4.389 4.765 9.838 8.166 15.287 11.568 4.177 2.636 8.469 5.43 12.264 8.702 7.795 6.996 13.084 16.515 18.259 25.876 5.609 10.129 11.331 20.417 20.35 27.613 22.127 17.57 54.605 8.485 72.143-10.017zm-71.263 8.903c-8.769-7.015-14.492-17.302-19.986-27.274-5.176-9.361-10.579-19.038-18.488-26.192-3.772-3.408-8.2-6.224-12.514-8.882-5.177-3.358-10.626-6.759-14.901-11.366-11.507-12.488-13.712-34.07-5.258-52.518 6.7-14.545 18.843-27.365 38.123-40.278 2.825-1.912 5.786-3.803 8.747-5.694 11.709-7.585 23.87-15.375 32.53-26.529 9.224-12.039 13.545-26.554 16.007-41.65 1.397-8.569 2.273-17.362 3.012-26.177.263-2.47.413-5.099.676-7.569 2.255-22.391 7.786-53.742 30.501-68.886 13.471-8.974 31.637-9.921 46.229-2.654 34.337 17.188 24.158 53.924 18.229 68.874l-.044.272c-14.709 37.115-28.655 72.12-29.691 112.721-.317 13.073.454 26.323 1.292 39.165.885 13.409 1.682 27.361 1.276 40.978-1.112 31.653-9.859 57.034-25.546 73.604-17.063 18.161-48.68 27.107-70.194 10.055z"/><path d="M607.212 490.887c4.369-13.948 3.342-29.055 2.204-43.482-.145-2.537-.404-5.232-.548-7.769-2.019-33.001 1.264-65.975 9.715-98.106l.424-1.746c2.527-9.501 5.098-19.275 2.573-28.622-1.583-5.704-7.815-12.863-14.527-14.516-3.9-.915-7.272.071-9.958 2.844-3.566 3.886-4.919 12.183-6.227 20.207-.821 5.032-1.597 9.792-2.809 12.946-9.006 22.686-25.184 41.41-45.443 52.627-3.527 1.938-7.304 3.696-10.81 5.498-5.767 2.829-11.806 5.614-17.298 9.326-9.583 6.535-15.759 15.302-17.201 24.142-.111.68-.244 1.496-.219 2.198-.866 11.308 5.897 21.207 11.538 27.712 2.956 3.275 6.093 6.299 9.23 9.324 3.978 3.86 8.229 7.765 11.688 12.238 3.595 4.496 6.671 9.605 9.475 14.67 2.074 3.549 4.262 7.257 6.494 10.693 6.991 10.215 14.919 16.395 23.443 18.064 17.184 3.361 33.102-12.055 38.256-28.248zm-37.876 26.774c-8.116-1.602-15.816-7.466-22.557-17.501-2.368-3.458-4.442-7.007-6.516-10.557-2.963-4.951-5.881-10.174-9.59-14.828-3.595-4.495-7.823-8.536-11.801-12.396-3.159-2.889-6.296-5.913-9.117-9.166-5.549-6.21-12.062-15.929-11.285-26.693.67-9.245 6.778-18.442 16.835-25.319 5.356-3.734 11.259-6.541 17.004-9.234 3.641-1.78 7.418-3.538 10.946-5.476 20.575-11.445 36.934-30.418 45.983-53.377 1.213-3.153 1.922-7.505 2.699-12.265l.155-.952c1.22-7.481 2.595-15.913 5.958-19.414 2.37-2.545 5.29-3.326 8.645-2.499 6.168 1.564 12.059 8.249 13.437 13.5 2.569 9.076-.116 18.691-2.599 27.92l-.424 1.746c-8.587 32.109-11.914 65.355-9.782 98.514.145 2.537.404 5.232.548 7.769 1.002 14.405 2.21 29.262-2.115 42.938-4.793 15.694-20.078 30.654-36.424 27.29zM957.649 1135.7c-2.251-2.46-4.366-4.9-6.618-7.36-14.6-15.78-29.654-32.2-34.507-52.96-7.314-31.35 7.801-62.39 17.352-78.148 13.92-22.862 15.327-54.607 3.772-87.348-6.957-19.843-17.646-38.202-27.994-56.085-4.353-7.552-8.799-15.397-12.994-23.063-11.128-20.803-25.534-52.333-22.317-84.899 1.839-18.131 8.983-35.396 15.88-52.003 4.134-9.938 8.312-20.147 11.538-30.511 10.324-34.2 8.835-71.303-4.195-104.424-3.337-8.642-7.536-17.146-11.642-25.355-9.035-18.228-18.276-36.909-18.846-57.386-.614-20.206 7.564-39.537 15.338-58.096 2.763-6.67 5.707-13.59 8.22-20.44 12.026-33.503 13.807-68.398 5.297-98.408-9.724-33.699-32.905-61.075-61.901-73.343-17.107-7.258-38.989-6.638-47.885 8.527-4.234 7.128-4.363 15.624-4.425 23.712-.121 4.169-.107 8.36-.772 12.44-1.635 11.741-7.828 22.32-13.797 32.377-2.702 4.586-5.405 9.171-7.721 13.96-20.11 41.12-11.807 89.527-4.522 132.183 7.703 45.237 13.532 92.542-7.494 130.721-10.671 19.203-27.449 34.758-43.708 49.699-20.369 18.739-41.415 38.205-49.817 64.899-7.864 25.106-2.808 52.32 3.028 75.611 1.103 4.368 2.342 8.759 3.444 13.128 5.28 19.849 10.858 40.446 10.681 61.221-.308 28.432-13.201 53.556-32.739 63.774-31.772 16.74-54.403 49.351-65.685 94.567a253.727 253.727 0 00-4.143 20.26c-5.301 32.51-5.241 68.96.345 104.92l1.36.22c-6.837-43.7-5.452-88.15 3.662-125.2 11.08-44.831 33.531-77.192 64.985-93.704 20.013-10.559 33.245-36.047 33.506-65.046.221-21.047-5.357-41.643-10.615-61.629-1.238-4.391-2.341-8.759-3.444-13.128-5.88-23.019-10.845-49.938-3.025-74.772 8.221-26.444 29.223-45.638 49.434-64.263 16.281-15.077 33.195-30.61 43.911-50.085 21.25-38.701 15.465-86.278 7.649-131.673-7.307-42.52-15.518-90.633 4.389-131.368 2.294-4.652 5.019-9.374 7.721-13.96 6.013-10.329 12.206-20.907 13.886-32.92.529-4.102.673-8.407.794-12.576.107-8.36.283-16.29 4.178-23.055 8.491-14.393 29.649-14.852 46.12-7.977 28.746 12.088 51.563 39.125 61.195 72.53 8.554 29.738 6.682 64.339-5.163 97.592-2.514 6.851-5.299 13.657-8.062 20.327-7.818 18.831-15.997 38.161-15.449 58.775.526 20.75 9.88 39.589 19.029 57.975 4.107 8.209 8.305 16.713 11.665 25.219 12.937 32.827 14.335 69.636 4.191 103.585-3.09 10.387-7.404 20.574-11.379 30.397-6.92 16.744-14.085 34.145-15.947 52.411-3.283 32.974 11.214 64.799 22.456 85.761 4.173 7.801 8.619 15.646 12.972 23.198 10.234 17.725 20.901 36.22 27.88 55.927 11.35 32.289 10.009 63.625-3.709 86.101-9.708 15.868-25.026 47.298-17.507 79.108 4.922 21.18 20.113 37.62 34.827 53.57 2.251 2.46 4.503 4.92 6.618 7.36 19.627 21.77 28.893 41.15 28.186 59.19l1.36.22c.502-18.49-8.992-38.19-28.847-60.28z"/><path d="M892.608 1155.26c-16.307-18.16-31.681-35.19-36.293-58.28-3.942-19.49 3.737-39.18 11.191-58.35 4.514-11.41 9.094-23.23 11.16-35.04 10.938-59.374 18.025-112.252-4.135-158.73-3.538-7.418-7.844-14.404-11.878-21.344-5.606-9.292-11.439-18.9-15.327-29.307-14.359-37.806-2.774-80.596 10.247-121.058 11.922-37.15 26.849-83.304 10.918-123.461-3.155-8.054-7.508-15.605-11.634-22.84-4.239-7.394-8.707-15.103-11.839-23.293-8.323-21.742-8.663-47.907-.81-82.37 1.92-8.344 4.133-16.779 6.302-24.942 4.851-18.617 9.926-37.755 11.58-57.312 1.52-18.741-2.538-32.387-11.715-39.469-7.7-5.863-18.964-7.002-29.552-2.864-25.655 10.058-34.539 41.42-39.738 70.731-5.712 31.601-11.465 64.312-8.836 96.993 1.161 14.291 4.111 28.735 6.878 42.59 1.867 9.1 3.689 18.473 5.104 27.779 4.269 28.621 2.491 51.508-5.668 69.865-6.429 14.589-17.237 26.928-27.549 38.79-6.679 7.568-13.403 15.407-19.263 23.946-27.925 41.102-29.889 95.096-27.667 147.398l.444 10.125c2.024 47.522 4.212 96.607-15.098 139.674l-1.057 2.201c-7.216 15.997-14.543 32.673-27.259 43.868-5.217 4.59-10.798 8.85-16.084 13.01-8.609 6.56-17.556 13.47-25.026 21.61-9.005 9.84-16.01 27.97-19.204 47.55-2.195 13.47-2.576 27.79-.583 40.4l1.496.24c-4.932-30.54 4.486-71.17 19.268-87.33 7.334-8.16 16.259-14.94 24.732-21.52 5.422-4.14 11.003-8.4 16.22-12.99 12.896-11.44 20.359-28.098 27.62-44.367l1.057-2.201c19.354-43.338 17.21-92.695 15.208-140.354-.148-3.375-.295-6.75-.465-9.989-2.131-52.008-.348-105.751 27.533-146.582 5.702-8.425 12.562-16.242 19.105-23.831 10.47-11.976 21.143-24.337 27.751-39.177 8.204-18.628 10.14-41.629 5.802-70.68-1.415-9.306-3.351-18.837-5.082-27.916-2.767-13.855-5.604-28.14-6.9-42.453-2.651-32.546 3.08-65.121 8.792-96.721 5.154-29.039 13.813-59.88 38.88-69.754 10.136-3.932 20.855-2.883 28.17 2.778 11.153 8.661 12.3 25.602 11.212 38.27-1.609 19.285-6.571 38.581-11.536 57.04-2.169 8.163-4.382 16.598-6.301 24.942-7.898 34.735-7.602 61.172.812 83.208 3.133 8.19 7.6 15.9 11.817 23.429 4.126 7.235 8.48 14.786 11.52 22.682 15.704 39.84.821 85.723-11.056 122.601-13.066 40.734-24.673 83.66-10.244 121.896 4.024 10.429 9.835 20.173 15.44 29.465 4.057 6.805 8.341 13.926 11.9 21.208 22.069 46.184 14.868 98.904 4.132 157.886-2.179 11.66-6.759 23.47-11.115 34.77-7.476 19.31-15.2 39.27-11.302 59.03 4.704 23.39 20.897 41.39 36.612 58.89 8.029 8.99 16.307 18.16 23.071 28.06l1.904.31c-6.763-9.9-15.27-19.39-23.662-28.71z"/></g></svg>