<svg width="1900" height="1000" fill="none" xmlns="http://www.w3.org/2000/svg"><g opacity=".1" fill="#fff"><path d="M1523.32 1742.36c-6.08-2.06-12.35-3.81-18.3-5.37-14.45-3.77-28.34-7.43-38.76-17.81-33.53-33.7-67.96-68.74-110.53-92.9-47.25-26.87-98.68-34.95-141.38-22.2-21.25 6.23-40.63 17.48-59.77 28.67-24.39 14.17-49.52 28.55-77.62 31.86-75.11 8.8-129.59-62.77-149.563-94.04-58.014-90.64-82.44-199.5-69.24-306.59.908-8.41 2.308-16.95 3.528-25.18 2.764-19.19 5.888-39 5.93-58.51.169-22.96-4.017-55.31-24.916-79.22-17.254-20.14-49.65-33.86-78.144-21.22-33.214 14.7-42.838 55.49-40.785 85.76.87 15.05 4.085 30 6.922 44.52 3.562 17.23 7.076 35.26 7.13 53.16.139 33.95-12.15 66.76-24.211 98.44-3.727 9.7-7.387 19.64-10.802 29.51-26.417 77.43-31.563 160.49-14.975 240.1 2.226 11.26 4.945 22.39 7.909 33.45 9.67 39.04 19.49 79.62 10.586 119.16-3.327 15.12-9.687 29.73-15.621 43.97-7.308 16.98-14.73 34.51-17.445 52.89-7.157 48.03 16.817 93.25 44.873 138.95l2.459-.65c-28.057-45.71-51.964-90.68-44.856-137.91 2.781-18.13 10.203-35.67 17.331-52.33 6.18-14.31 12.228-29.1 15.801-44.29 9.084-39.85-.802-80.67-10.604-120.2-2.652-10.89-5.437-22.26-7.843-33.21-16.457-79.12-11.244-161.93 14.813-238.74 3.415-9.87 7.075-19.81 10.621-29.19 11.996-31.93 24.465-65.05 24.26-99.25-.12-18.15-3.634-36.18-7.261-53.65-2.837-14.52-5.986-29.22-6.857-44.27-1.855-29.54 7.295-69.14 39.345-83.27 27.331-12.06 58.546 1.18 75.291 20.41 20.275 23.55 24.264 55.15 24.209 77.56-.042 19.51-2.986 39.01-5.996 58.26-1.22 8.23-2.62 16.77-3.528 25.19-13.38 107.39 11.49 216.93 69.635 308.06 20.351 31.7 75.344 104.18 151.994 95.23 28.58-3.44 53.9-18.13 78.54-32.37 18.95-10.88 38.33-22.13 59.1-28.22 41.95-12.56 92.65-4.28 139.28 22.23 42.26 23.98 76.61 58.78 109.9 92.54 10.87 11.06 25 14.64 39.76 18.59 5.96 1.57 12.15 3.07 17.99 5.2 22.98 8.07 41.52 16.28 56.98 28.73 4.69 3.75 8.96 7.88 12.49 12.2l2.7-.72c-3.91-4.75-8.55-9.3-13.56-13.23-14.98-13.64-33.76-21.78-56.81-30.1zm-1571.487-502.7c28.565-8.45 58.984-2.11 85.158 5.11 5.396 1.45 10.545 2.97 16.007 4.67 22.337 6.66 45.477 13.37 69.069 13.9 26.494.54 60.42-8.55 76.568-35.8 9.964-16.9 11.56-39.46 3.863-60.32-6.218-17.3-17.976-33.65-35.718-49.71-51.025-45.88-128.63-68.03-208.114-58.86-67.962 7.94-184.934 64.05-252.69 106.18l.659 2.46c68.674-42.64 187.007-98.59 252.444-106.11 78.436-9.16 155.663 12.57 206.064 58.08 17.43 15.88 29.056 31.74 35.208 48.8 7.254 20.19 5.952 41.88-3.652 58.15-15.609 26.32-48.617 34.9-74.307 34.41-23.346-.6-46.241-7.37-68.512-13.79-5.396-1.45-10.611-3.22-16.007-4.67-26.485-7.4-57.15-13.67-86.453-5.03-26.599 7.92-51.518 34.88-78.076 63.61-31.043 33.61-65.853 70.87-108.497 82.82l.659 2.46c43.381-12.15 78.371-49.72 109.595-83.65 26.131-28.34 50.87-54.99 76.732-62.71z"/><path d="M-38.86 1304.88c45.217-13.17 92.854-3.54 138.819 5.75 34.256 6.89 69.627 14.02 104.413 12.07 75.557-4.17 148.106-54.96 176.451-124.22 9.252-22.5 12.065-42.49 8.011-59.58-4.747-21.65-21.703-38.72-40.708-41.79-12.38-1.95-24.606 1.59-36.586 5.06-4.917 1.32-10.013 2.95-14.996 4.02-33.223 6.79-70.794-2.64-115.254-28.93-9.105-5.47-18.342-11.42-27.202-16.95-25.086-15.94-50.927-32.73-79.66-41.63-51.515-16.24-106.178-6.86-148.12 2.8-50.612 11.71-146.315 58.7-226.788 119.26l.725 2.7c79.555-60.05 177.339-108.12 226.722-119.5 41.63-9.84 95.868-18.84 146.758-2.97 28.488 8.97 54.263 25.51 79.103 41.52a980.42 980.42 0 0027.202 16.95c44.838 26.72 83.212 36.2 116.927 29.27a162.324 162.324 0 0015.242-4.08c11.734-3.41 23.714-6.88 35.537-5.05 18.135 2.79 34.09 19.06 38.82 39.66 3.676 16.67.978 36.1-7.915 57.98-28.116 68.14-99.683 118.67-174.256 122.58-34.541 1.88-69.666-5.31-103.922-12.2-46.276-9.47-94.159-19.04-139.867-5.74-29.794 8.78-58.38 26.98-85.021 54.4-20.926 22.21-60.66 67.64-88.38 111.69l.923 3.44c27.587-44.54 68.173-90.73 89.411-112.75 26.215-27.05 54.555-45.19 83.612-53.76zm-98.831-348.198c7.459-.681 15.049-.871 22.148-.929 13.082-.343 26.41-.753 39.391-3.44 23.684-5.029 42.046-18.117 48.862-34.962 10.903-27.163-7.854-55.863-27.514-72.201-16.902-13.915-36.834-24.383-56.322-34.18-23.541-12.137-47.95-24.567-66.302-43.89-21.685-22.91-32.689-53.161-43.495-82.674-8.932-24.483-18.372-49.883-33.546-71.111-21.43-29.829-54.507-51.004-90.927-58.108-36.175-7.17-75.201-.402-106.984 18.654l.33 1.229.575 1.163c31.291-18.924 69.826-25.56 105.443-18.504 35.862 6.99 68.315 27.805 89.302 56.962 15.108 20.983 24.483 46.137 33.414 70.619 10.807 29.514 21.943 60.256 44.004 83.592 18.418 19.569 43.14 32.179 66.926 44.25 19.242 9.862 39.354 20.019 56.01 34 18.972 15.732 37.153 43.269 26.725 69.251-6.457 16.221-24.213 28.62-47.16 33.451-12.735 2.622-26.063 3.032-38.899 3.309-7.345.124-14.869.559-22.394.994-39.637 3.507-130.668 63.993-180.82 117.743l.791 2.95c49.054-52.93 141.788-114.925 180.442-118.168zM1881.94 25.848l-.71.046c-84.08 9.214-171.19 18.953-256.76 5.845-19.75-2.957-39.27-3.95-48.94 9.64-9.1 13.004-1.66 32.14 10.95 41.93 2.03 1.628 3.98 2.985 6.21 4.27 9.41 5.437 20.14 8.206 30.6 11.048l6.54 1.721c36.15 10.141 70.76 28.073 99.81 51.693 4.4 3.453 8.77 7.346 12.9 10.871 14.07 12.005 28.39 24.378 45.67 31.615 20.48 8.404 45.93 9.4 75.56 2.764 18.85-4.183 37.39-10.598 55.22-16.968 16.92-5.981 34.38-12.107 52.08-16.271 25.16-6.018 72.81-11.838 107.7 14.702 20.58 15.761 32.44 39.501 43.99 62.602 8.38 16.711 17.01 33.792 28.72 48.311 36.41 44.079 105.37 59.466 163.95 36.678 45.44-17.821 83.99-56.515 108.05-107.681l-1.71-.988c-23.59 50.751-62.04 89.274-106.94 106.95-57.78 22.571-125.78 7.507-161.61-36.006-11.8-14.348-20.26-31.329-28.47-47.942-11.72-23.2-23.65-47.21-44.57-63.168-35.66-27.205-83.84-21.241-109.27-15.15-17.87 4.064-35.43 10.362-52.35 16.343-17.83 6.369-36.38 12.785-54.96 16.895-29.08 6.491-54.09 5.522-74.41-2.783-17.03-6.868-31.35-19.241-45.25-31.147-4.29-3.624-8.5-7.419-12.89-10.871-29.4-23.818-64.18-41.849-100.5-52.088l-6.54-1.722c-12.64-3.415-25.89-6.956-36.3-15.02-11.85-9.126-18.83-27.082-10.49-39.158 8.91-12.662 27.81-11.794 46.95-8.962 85.91 13.305 173.02 3.566 257.2-5.819l.71-.046c33.81-3.993 107.62-12.05 130.09-47.016l-1.71-.988c-21.97 34.109-95.08 42.12-128.52 45.87z"/><path d="M1962.72 74.538c-19.7 2.095-40.13 1.49-59.84.838-19.98-.58-40.58-1.285-60.72.784-9.44.938-20.53 2.753-29.73 8.4-9.83 5.964-16.01 15.868-15.71 25.628.28 10.202 7.3 18.595 16.2 23.735 4.45 2.57 9.4 4.284 14.23 5.017 14.31 2.099 28.28-1.934 41.81-5.993l1.45-.533c40.66-11.908 101.61-26.938 162.53-19.384 59.43 7.376 111.51 36.984 139.35 79.308 4.14 6.271 7.98 13.056 11.58 19.472 9.61 16.963 19.54 34.564 35.99 45.205 32.5 20.816 76.78 4.609 97.6-23.546 12.53-16.962 19.74-38.141 21.72-63.707l-1.89-1.087c-1.87 25.395-8.91 46.672-21.44 63.634-19.86 26.884-61.37 42.638-92.7 24.549-.86-.494-1.54-.889-2.4-1.383-16.11-10.445-25.96-27.776-35.33-44.369-3.77-6.515-7.62-13.3-11.66-19.742-28.08-42.693-80.84-72.697-140.71-80.099-61.1-7.653-122.49 7.351-163.25 19.429l-1.45.533c-13.43 3.889-27.23 8.02-41.1 5.948-13.7-1.974-28.12-12.582-28.59-26.782-.26-9.049 5.25-18.195 14.72-23.916 8.83-5.404 19.65-7.146 28.92-8.184 19.97-2.167 40.57-1.462 60.55-.882 19.71.651 40.13 1.257 60-.739 33.96-3.453 83.1-31.237 105.55-63.014l-1.71-.989c-22.06 31.093-70.56 58.56-103.97 61.87z"/><path d="M1635.93 1406.41c4.67-40.91.33-85.19-13.37-131.45-12.51-42.38-29.53-76.17-52.09-103.12-37.19-44.3-90.33-70.87-141.67-96.63-22.09-11.16-44.96-22.54-66.17-35.23-19.49-11.71-44.28-28.08-61.02-51.672-21.22-30.059-31.8-67.893-32.47-115.761-.82-67.362-50.92-132.811-116.45-152.155-17.93-5.328-37.02-7.448-55.23-9.515-14.17-1.559-28.85-3.415-42.84-6.468-38.46-8.509-66.953-29.527-75.908-55.927-13.989-41.405 19.586-81.371 34.588-96.679 7.27-7.447 15.22-14.498 22.8-21.305 19.21-17.447 39.15-35.381 51.09-58.844 7.43-14.434 11.49-30.575 15.54-46.275 5.06-19.447 10.08-39.605 21.7-56.179 17.92-25.495 46.47-37.776 76.66-50.931 21.92-9.49 44.47-19.296 62.39-34.518 21.46-18.197 35.35-43.048 48.85-67.215 9.02-16.021 18.27-32.825 29.86-47.364 37.38-47.355 100.81-74.192 165.48-69.956 61.14 4.024 121.03 34.721 164.41 83.735 6.22 7.016 12.31 14.645 18.24 22.174 20.02 25.027 40.7 50.891 70.98 61.3 41.92 14.384 87.35-6.183 123.59-22.696 39.24-17.75 84.48-33.634 122.36-15.418 27.21 12.97 42.56 38.957 58.82 66.15 7.89 13.227 16.02 26.823 25.48 38.905 22.65 28.373 55.71 48.603 95.66 58.884 36.2 9.258 77.17 9.857 115.42 1.347 62.83-13.942 169.03-58.318 232.6-111.098l-1.88-1.087c-63.54 52.339-168.94 96.497-231.4 110.196-83.21 18.388-165.32-5.052-208.9-59.658-9.39-11.811-17.52-25.408-25.4-38.635-15.6-26.356-31.86-53.548-59.59-66.815-38.56-18.611-84.51-2.681-124.12 15.312-36.14 16.342-81.13 36.935-122.16 22.604-29.67-10.284-50.28-35.877-70.13-60.805-6.02-7.359-12.02-15.158-18.24-22.175-43.7-49.653-104.2-80.475-165.78-84.526-65.28-4.36-129.35 22.793-167.2 70.563-11.69 14.709-20.84 31.343-29.96 47.535-13.4 23.995-27.29 48.847-48.55 66.701-17.82 15.05-40.28 24.685-61.92 34.103-29.19 12.596-59.38 25.752-77.5 51.59-11.82 16.916-17.11 37.146-22.1 56.863-3.94 15.529-8.08 31.4-15.4 45.663-11.93 23.021-31.6 40.883-50.7 58.159-7.68 6.978-15.64 14.03-22.9 21.476-15.373 15.551-49.614 56.275-35.066 98.688 9.173 27.21 38.186 48.525 77.426 57.257 14.16 3.153 28.94 4.837 43.11 6.396 18.21 2.067 37.03 4.26 54.95 9.587 64.75 19.12 114.19 83.732 115.07 150.212.65 48.309 11.29 86.413 32.76 116.841 16.81 23.856 41.67 40.496 61.61 52.236 21.37 12.8 44.25 24.18 66.34 35.33 51.16 25.66 104.13 52.13 141.08 96.07 22.49 26.68 39.43 60.2 51.77 102.48 13.46 45.89 18 89.83 13.25 130.46-3.8 33.87-14.19 65.31-30.15 92.16l1.71.99c16.35-25.94 26.67-57.65 30.67-91.86z"/><path d="M1732.1 1231.14c-21.98-86.88-71.72-156.91-135.85-192.11-27.28-14.84-57.54-24.09-86.68-32.93-13.57-4.18-27.75-8.481-41.29-13.103-53.86-18.998-88.74-44.385-106.93-77.716-11.72-21.606-16.08-46.49-20.14-70.293-2.1-12.172-4.18-24.785-7.44-36.937-19.55-75.661-81.03-138.782-156.65-161.212-20.28-5.999-44.52-24.106-60.44-39.232-17.27-16.359-25.14-38.708-19.88-56.904 3.81-13.322 13.17-23.211 23.27-33.588 6.7-6.86 13.6-14.063 18.61-22.354 6.6-11.029 9.75-23.594 12.86-35.718 2.93-11.782 5.95-23.734 11.98-34.178 16.8-29.105 52.75-40.764 87.96-50.342 34.29-9.19 76.69-20.55 115.9-9.783 35.19 9.818 61.42 34.775 89.33 61.161 18.6 17.59 37.87 36.018 59.86 48.94 27.8 16.283 60.33 24.79 91.73 32.874 45.26 11.751 88 22.731 118.19 55.453 18.62 20.337 29.09 46.474 39.28 71.531 5.17 12.798 10.48 26.137 16.82 38.475 23.32 45.418 62.71 85.513 117.39 118.909 36.05 22.18 69.34 35.692 101.78 41.182 21.39 3.676 43.36 3.577 64.62 3.525 16.75-.146 33.94-.266 50.75 1.452 51.05 5.278 62.59 29.973 73.74 53.759 4.79 10.296 9.74 20.69 17.72 29.406 7.32 7.879 14.27 16.002 21.06 24.026 20.85 24.369 40.64 47.433 68 63.687 15.65 9.27 32.51 23.56 50.56 38.55 24.04 20.05 50.18 41.99 75.95 53.9l.99-1.72c-25.7-11.64-51.66-33.48-75.7-53.52-17.96-15.16-35.08-29.38-50.91-38.75-27.02-16.057-46.63-39.023-67.59-63.22-6.78-8.024-13.73-16.147-21.05-24.026-7.74-8.347-12.45-18.373-17.31-28.938-11.29-24.326-23.25-49.489-75.35-54.919-16.99-1.817-34.18-1.697-50.93-1.551-21.08.151-43.06.25-64.28-3.327-32.17-5.562-65.11-18.877-100.99-40.958-54.23-33.369-93.66-73.023-116.63-118.244-6.34-12.338-11.66-25.676-16.65-38.376-10.26-25.326-20.81-51.733-39.6-72.169-30.43-33.092-75.52-44.744-119.04-55.948-31.4-8.084-63.76-16.492-91.22-32.577-21.99-12.922-41.08-31.251-59.52-48.743-26.64-25.424-54.38-51.711-90.18-61.655-39.55-10.965-82.49.54-116.79 9.73-35.65 9.552-72.14 21.355-89.17 51.244-6.12 10.615-9.34 22.91-12.26 34.691-3.12 12.124-6.17 24.518-12.67 35.377-4.91 8.119-11.71 15.151-18.24 22.11-9.73 10.133-19.93 20.68-23.77 34.444-5.38 18.808 2.71 41.967 20.56 58.893 7.79 7.464 35.36 32.059 61.12 39.628 74.94 22.034 135.91 84.859 155.25 159.709 3.08 12.053 5.26 24.495 7.36 36.667 4.14 24.073 8.49 48.957 20.45 70.932 18.34 33.871 53.73 59.555 108.04 78.58 13.61 4.891 27.62 9.096 41.45 13.206 29.14 8.83 59.34 17.82 86.34 32.73 63.8 35 112.95 104.47 134.95 190.9 19.86 77.9 17.39 158.88 15.08 237.21l-3.29 109.28 1.89 1.08 3.43-110.32c1.53-78.56 4.1-159.71-15.83-237.88z"/><path d="M1947.94 1564.63c-15.13-32.7-39.85-60.67-63.73-87.7l-1.49-1.77c-35.23-40.2-55.63-95.81-63.91-174.78-2.02-19.43-3.4-39.17-4.64-58.38-2.93-42.78-5.94-86.98-16.69-129.25-18.32-71.07-58.46-125.29-110.56-148.523-33.21-14.836-70.18-17.232-105.82-19.548-7.06-.424-14.29-.947-21.35-1.37-38.44-3.016-86.88-10.441-119.01-41.774-28.13-27.197-38.5-66.967-48.4-105.558-10.66-40.85-21.51-82.951-53.9-109.872-21.43-17.849-49.1-26.064-75.65-33.857-6.61-1.991-13.66-4.009-20.35-6.27-42.92-13.825-69.41-34.369-78.61-61.137-10.72-30.846 3.38-63.568 18.79-94.616 17.15-34.842 33.74-64.757 63.11-80.442 45.84-24.439 104.95-1.494 144.62 28.254 15.18 11.274 29.73 24.016 43.61 36.363 24.98 21.959 50.63 44.755 80.92 59.505 24 11.803 50.94 18.911 77.1 25.795 45.95 12.147 89.37 23.522 117.93 58.272 19.08 23.11 27.3 52.744 35.25 81.297 5.01 18.192 10.18 36.924 18.17 54.321 34 73.959 115.4 113.653 173.61 136.986 13.31 5.405 27.17 10.665 40.51 15.629 56.55 21.462 115.18 43.669 161.15 83.451 21.3 18.464 48.47 29.124 74.86 39.564 29.42 11.51 59.7 23.51 81.1 46.14 12.33 13.06 24.24 29.98 36.99 47.84 14.86 20.91 29.87 42.36 46.45 58.32l.99-1.71c-16.24-15.77-31.17-36.95-45.87-57.76-12.64-18.03-24.73-35.05-37.06-48.1-21.91-22.93-52.36-35.03-81.96-46.64-26.21-10.34-53.21-20.91-74.17-39.169-46.21-40.15-104.84-62.357-161.66-83.747-13.34-4.964-27.2-10.224-40.51-15.629-58.04-23.234-138.93-62.631-172.61-135.952-7.92-17.126-13.09-35.858-17.93-53.952-8.02-28.823-16.15-58.628-35.56-81.935-28.98-35.219-74.75-47.266-118.96-58.865-25.99-6.786-52.93-13.894-76.76-25.598-30.02-14.822-55.59-37.348-80.41-59.209-14.04-12.445-28.6-25.187-43.78-36.461-40.45-29.973-100.08-53.214-146.83-28.387-29.91 15.83-46.79 46.259-64.04 81.272-15.61 31.39-29.73 64.553-18.79 96.209 9.51 27.408 36.42 48.42 79.95 62.37 6.79 2.09 13.57 4.18 20.35 6.269 26.55 7.794 53.88 15.811 74.96 33.462 31.88 26.624 42.66 68.456 53.24 109.036 10.08 38.69 20.52 78.73 49.06 106.394 32.64 31.63 81.43 39.253 120.31 42.295 6.96.595 14.29.946 21.35 1.37 35.64 2.316 72.44 4.613 105.2 19.423 51.49 23.107 91.32 76.694 109.49 147.224 10.85 42.1 13.87 86.3 16.72 128.81 1.24 19.2 2.62 38.95 4.64 58.38 8.43 79.51 28.9 135.38 64.37 175.95l1.49 1.77c23.71 26.93 48.26 54.8 63.32 87.23 19.52 42.1 21.29 90.83 4.92 133.42l1.71.99c16.26-43.58 14.61-92.92-5.23-135.65z"/><path d="M1689.65 691.42c-14.51-29.833-44.53-54.929-86.87-72.527-18.24-7.56-37.36-13.579-55.8-19.203-17.66-5.4-35.83-11.096-53.03-18.063-53.61-21.817-93.41-58.04-135.57-96.529l-.34-.198c-17.46-16.016-62.6-48.928-104.41-10.519-17.73 16.473-25.81 41.939-20.57 65.281 8.83 38.881 48.76 62.623 77.83 77.122 3.18 1.608 6.53 3.315 9.81 4.752 30.81 15.045 62.81 30.783 80.41 59.208 10.49 17.015 14.87 37.117 18.93 56.58 1.13 4.762 2.06 9.867 3.19 14.629 7.68 32.965 18.78 56.04 35.23 72.616 5.35 5.369 11.36 9.981 17.7 13.639 18.66 10.774 40.37 13.494 57.71 6.387 8.63-3.468 15.96-9.051 23.29-14.634 5.66-4.265 11.59-8.604 17.9-12.033 13.35-6.905 28.81-9.165 44-11.354 16.44-2.378 33.15-4.83 47.38-13.275 34.82-20.761 39.12-68.95 23.21-101.879zm-24.26 100.133c-13.86 8.202-30.57 10.653-46.74 12.96-15.19 2.188-30.92 4.521-44.53 11.498-6.49 3.331-12.52 7.84-18.28 12.277-7.13 5.24-14.46 10.823-22.82 14.219-22.59 9.094-52.67 1.089-73.13-19.624-16.11-16.378-27.14-39.182-34.67-71.608-1.13-4.762-2.16-9.695-3.2-14.629-4.22-19.562-8.5-39.835-19.06-57.12-11.47-18.491-28.75-31.662-47.75-42.634-10.79-6.227-22.14-11.868-33.59-17.339-3.18-1.608-6.63-3.143-9.81-4.751-28.9-14.4-68.15-37.747-76.93-75.916-5.2-22.631 2.76-47.485 19.92-63.371 40.51-37.337 84.62-5.018 101.67 10.53l.34.198c42.32 38.588 82.2 75.081 136.15 97.096 17.38 7.066 35.55 12.762 53.2 18.162 18.44 5.623 37.57 11.643 55.63 19.104 41.9 17.572 71.51 42.2 85.77 71.664 15.7 32.119 11.64 79.083-22.17 99.284z"/><path d="M1625.09 663.277c-16.49-12.947-37.28-19.243-57.22-25.046-3.48-1.094-7.22-2.116-10.7-3.21-45.3-14.056-87.87-35.211-126.69-62.872l-2.13-1.456c-11.46-8.217-23.27-16.631-37.09-17.992-8.46-.773-21.23 3.951-26.85 12.116-3.21 4.768-3.6 9.793-1.25 14.805 3.41 6.759 13.85 12.788 23.95 18.62 6.33 3.657 12.33 7.117 15.94 10.345 25.86 23.607 42.77 54.823 47.52 87.703.81 5.716 1.25 11.677 1.89 17.295.87 9.175 1.53 18.692 3.72 27.946 3.9 16.177 12.53 28.917 23.66 35.342.85.494 1.88 1.087 2.84 1.41 14.73 6.907 31.44 2.862 43.04-1.402 5.89-2.303 11.54-4.975 17.19-7.648 7.2-3.376 14.6-7.095 22.36-9.463 7.86-2.54 16.28-4.072 24.5-5.261 5.81-.98 11.9-2.032 17.64-3.281 17.26-4.19 29.58-11.687 36.15-22.276 13.23-21.347.64-50.534-18.47-65.675zm16.68 64.417c-6.27 10.075-18.05 17.427-34.94 21.374-5.84 1.42-11.66 2.4-17.47 3.379-8.15 1.46-16.64 2.722-24.77 5.334-7.86 2.539-15.42 6.159-22.62 9.536-5.48 2.771-11.14 5.443-16.93 7.575-11.15 4.29-27.5 8.092-41.55 1.58-12.06-5.595-21.3-18.461-25.42-35.448-2.28-9.082-3.05-18.428-3.75-27.504-.54-5.789-.97-11.75-1.78-17.467-4.91-33.419-22.05-65.005-48.26-88.809-3.61-3.228-9.09-6.391-15.08-9.851-.34-.197-.86-.494-1.2-.692-9.42-5.436-20.03-11.565-23.02-17.855-2.21-4.473-1.78-8.787 1.04-12.869 5.23-7.48 17.19-11.988 24.94-11.169 13.48 1.164 25.01 9.65 36.14 17.669l2.12 1.456c38.72 27.832 81.63 49.185 127.2 63.169 3.48 1.094 7.23 2.116 10.71 3.21 19.83 5.974 40.38 11.901 56.53 24.65 18.62 14.403 30.93 42.51 18.11 62.732zm1026.46-207.02c-4.45 1.77-8.79 3.369-13.24 5.139-28.59 11.569-58.27 23.428-88.58 19.394-45.78-6.113-79.75-42.163-96.04-62.98-23.6-30.29-65.48-48.303-115.27-49.432-30.16-.748-60.22 4.268-89.47 9.066-12.34 2.005-25.13 3.983-37.54 5.718-33.57 4.363-83.19 7.673-125.25-13.186-23.39-11.678-42.92-30.033-61.7-47.722-11.23-10.594-22.81-21.386-35.07-30.979-40.64-31.225-91.18-48.075-142.23-47.42-13.29.088-26.84 1.401-39.94 2.741-29.04 2.862-58.8 5.77-86.56-3.868-27.42-9.44-49.2-30.232-70.15-50.089-7.55-7.096-15.34-14.561-23.25-21.413-38.84-33.153-84.75-53.269-129.34-57.096-50.15-4.073-98.66 13.121-129.85 45.791-18.42 19.265-28.71 48.938-12.88 68.576 7.41 9.302 18.74 13.791 29.56 17.983 5.54 2.281 11.17 4.39 16.3 7.355 14.92 8.159 25.97 21.842 36.43 34.958 4.78 5.955 9.56 11.91 14.81 17.451 44.95 47.869 114.12 61.32 175.05 73.214 64.6 12.646 131.03 28.856 171.57 76.46 20.34 24.072 32.69 54.484 44.48 83.888 14.79 36.847 30.22 74.972 61.76 99.805 29.69 23.304 68.77 30.344 102.98 34.346 6.42.74 12.94 1.308 19.37 2.048 29.31 3 59.78 5.98 87.56 16.77 37.99 14.857 65.15 44.918 68.93 76.322 6.32 51.129 38.58 98.059 93.5 136.163a366.4 366.4 0 0025.09 15.855c40.92 23.628 89.86 42.058 140.93 52.828l.99-1.71c-62.1-13.03-121.04-37.465-166.12-68.513-54.51-37.637-86.52-84.198-92.7-134.788-4-32.213-31.47-62.913-70.25-77.994-28.12-10.988-58.59-13.968-88.07-17.067-6.52-.568-12.94-1.308-19.36-2.048-33.88-3.804-72.51-10.817-101.86-33.924-31.3-24.464-46.39-62.392-61.11-98.969-11.95-29.503-24.2-60.086-44.89-84.355-41.12-48.171-107.9-64.578-172.77-77.152-60.76-11.795-129.48-25.22-174.02-72.621-5.08-5.442-10.03-11.496-14.81-17.451-10.8-13.314-21.85-26.997-37.11-35.353-5.24-2.794-10.94-5.174-16.47-7.454-11.16-4.39-21.71-8.655-28.81-17.318-15-18.702-4.86-47.322 12.73-65.929 30.82-32.426 78.68-49.304 128.39-45.257 44.25 3.63 89.72 23.718 128.31 56.503 7.92 6.852 15.63 14.047 23.18 21.142 21.29 20.055 43.07 40.848 71.01 50.584 28.1 9.836 58.13 6.855 87.45 3.921 13.1-1.34 26.64-2.653 39.76-2.839 50.61-.682 100.71 16.141 141.1 46.997 12.37 9.422 23.84 20.385 35 30.709 18.95 17.788 38.66 36.242 62.22 48.019 42.57 21.155 92.63 17.871 126.47 13.436 12.58-1.636 25.37-3.614 37.71-5.619 28.98-4.726 59.21-9.642 89.2-8.994 49.09 1.175 90.45 18.891 113.63 48.714 16.36 21.087 50.75 57.605 97.24 63.672 30.93 4.159 60.7-7.87 89.56-19.512 4.45-1.77 8.89-3.54 13.24-5.139 39.18-15.274 69.89-17.859 93.73-7.748l.99-1.713c-24.55-10.064-55.8-7.335-95.52 8.084z"/><path d="M2661.42 617.869c-32.64 12.655-63.3 24.631-96.62 19.088-28.16-4.612-50.67-24.918-72.61-44.657-13.01-11.852-26.54-24.001-41.34-32.772-74.1-44.835-141.44-81.205-215.06-75.084-11.75.977-23.31 3.206-34.67 5.093-15.31 2.801-31.16 5.746-47.1 5.675-58.02.061-109.54-37.22-157.21-75.243-43.79-34.868-98.13-78.34-160.1-77.365-12.41.141-24.75 2.145-36.55 4.006-12.08 1.932-24.69 4.009-37.27 4.051-33.4.121-68.67-12.713-110.92-40.757-10.22-6.813-20.41-14.068-30.26-21.125-22.52-15.965-45.61-32.497-71.01-44.65-24.37-11.559-44.75-13.048-58.91-4.332-11.78 7.353-19.03 21.886-18.85 38.193.46 39.53 38.02 67.381 74.71 89.245 39.49 23.716 80.46 48.052 125.64 61.126 19.76 5.703 40.64 9.082 60.63 12.408 13.16 2.118 26.66 4.434 39.87 7.264 40.56 8.812 70.37 22.823 90.85 43.095 16.31 16.036 27.37 36.805 38.05 56.666 6.76 12.805 13.86 25.808 22.34 38.009 40.96 58.345 112.4 88.407 183.7 111.995 4.61 1.517 9.21 3.033 13.81 4.549 64.79 21.425 131.76 43.425 179.73 91.209l2.41 2.536c17.8 17.808 36.45 36.11 45.01 58.854 3.51 9.334 6.39 18.984 9.29 28.192 4.42 14.879 9.16 30.397 16.28 44.553 8.63 17.081 29.39 35.686 54.04 49.92 16.95 9.786 35.97 17.57 53.9 21.303l1.09-1.883c-43.49-8.898-93.22-42.174-107.39-70.215-7.22-13.985-11.78-29.404-16.3-44.112-2.81-9.38-5.68-19.029-9.19-28.363-8.8-23.113-27.36-41.586-45.49-59.592l-2.42-2.536c-48.31-47.982-115.62-70.179-180.58-91.703-4.6-1.517-9.21-3.033-13.64-4.45-70.86-23.562-142.06-53.255-182.67-111.403-8.41-11.93-15.41-25.104-22.27-37.738-10.75-20.131-21.92-40.729-38.47-57.134-20.82-20.469-50.7-34.751-91.88-43.688-13.2-2.83-26.97-5.074-40.03-7.363-20-3.326-40.6-6.777-60.47-12.309-45.01-12.976-85.8-37.213-125.3-60.928-36.34-21.667-73.32-48.952-73.83-87.599-.13-15.596 6.73-29.444 18.04-36.382 17.28-10.565 40.6-3.498 57.04 4.398 25.05 11.955 48.42 28.414 70.67 44.452 9.85 7.057 20.04 14.311 30.26 21.125 42.59 28.241 78.21 41.273 112.05 41.179 12.58-.042 25.19-2.119 37.43-3.953 11.81-1.86 24.15-3.865 36.29-3.933 61.43-.83 115.42 42.444 158.87 77.114 48.01 38.221 99.71 75.6 158.34 75.665 16.03-.1 32.06-2.947 47.37-5.747 11.19-1.986 22.92-4.116 34.5-5.192 73.17-6.148 140.25 30.294 213.93 74.662 14.53 8.843 28.06 20.992 41 32.575 22.11 19.837 44.97 40.341 73.46 45.151 33.77 5.569 66.14-7.013 97.61-19.207 16.13-6.205 32.64-12.654 49.36-16.699l1.38-2.397c-16.71 4.045-33.76 10.639-50.54 17.16zm-98.88-632.652C2528.28-.07 2478.71 7.679 2442.25 13.23c-100.18 15.514-194.87 34.825-256.1 101.296-10.61 11.538-19.84 24.287-28.89 36.725-14.67 20.002-29.87 40.94-50.37 55.916-29.02 21.478-65.93 29.26-101.61 36.713l-7.26 1.419c-31.44 6.579-48.59 18.289-52.13 35.573-4.45 21.744 16.74 40.834 39.45 47.922 37.68 11.775 78.85 4.168 117.6-4.633 159.22-36.077 314.38-90.299 460.97-161.724 16.11-7.741 31.52-9.235 43.77-3.823 9.27 4.104 17.46 10.078 25.4 16.118 4.25 3.077 8.81 6.334 13.31 9.345 31.27 20.341 71.97 24.719 108.6 14.904 21.14-5.665 40.96-16.247 56.76-31.021l-.72-2.704c-42.04 40.774-114.26 48.533-163.32 16.885-4.49-3.011-8.74-6.088-12.99-9.165-8.19-5.975-16.44-12.194-25.96-16.232-12.87-5.772-29.09-4.327-45.86 3.858-146.42 71.113-301.26 125.515-460.25 161.527-38.5 8.735-78.93 16.144-116.29 4.549-21.29-6.68-41.9-24.607-37.61-44.99 3.3-16.169 19.67-26.878 50.06-33.439l7.26-1.419c35.93-7.518 73.08-15.367 102.53-37.223 20.67-15.288 36.12-36.291 50.72-56.539 9.06-12.438 18.29-25.187 28.72-36.413 60.63-65.781 155.07-85.027 254.51-100.343 36.46-5.552 86.27-13.366 121.03-28.212 30.7-13.234 54.2-36.657 77.09-59.39 25.81-25.623 52.47-52.001 89.62-63.8l-.66-2.458c-37.64 11.931-64.48 38.62-90.71 64.62-22.85 21.93-46.1 45.287-76.38 58.144z"/></g></svg>