<svg width="758" height="1291" fill="none" xmlns="http://www.w3.org/2000/svg"><path d="M-212.171 288.452c19.521 21.036 44.917 38.837 75.606 52.586 28.1 12.614 53.7 18.95 78.198 19.246 40.321.429 78.498-15.625 115.421-31.092 15.93-6.624 32.334-13.561 48.676-19.015 15.041-4.997 34.952-10.684 55.031-8.834 25.535 2.415 50.349 13.993 75.977 35.365 36.014 30.136 93.378 33.336 133.355 7.447 10.954-7.066 20.741-16.204 30.1-24.9 7.254-6.787 14.899-13.711 22.863-19.725 21.957-16.486 46.011-22.023 64.042-14.778 28.254 11.391 34.16 47.294 35.45 62.178.641 7.224.762 14.632.922 21.733.514 18.078.951 36.768 7.941 53.738 4.269 10.477 10.961 19.956 17.433 29.22 7.99 11.506 16.377 23.31 19.869 36.981 5.357 21.05-1.103 41.727-7.847 63.673-4.926 15.901-9.975 32.284-10.055 48.672-.114 19.614 6.728 38.243 13.388 56.351 4.381 12.044 9.076 24.563 11.507 37.293 8.085 41.271-6.507 87.011-38.098 119.3-29.877 30.518-73.3 48.271-118.92 48.975-6.535.107-13.338-.131-20.011-.413-22.327-.768-45.395-1.567-64.648 9.732-26.634 15.647-36.373 49.016-44.086 75.685-8.419 28.815-20.548 59.96-47.376 71.73-19.211 8.51-39.93 4.84-61.695 1.1-10.577-1.83-21.46-3.7-32.146-4.18-25.292-.9-51 7.41-74.57 23.88-21.33 14.95-40.242 36.36-53.097 60.45-21.143 39.57-45.867 115.9-46.798 173.48l1.43-.5c1.152-57.37 25.624-133.17 46.728-172.44 28.038-52.36 77.708-85.17 126.374-83.44 10.51.4 21.393 2.27 31.97 4.1 21.024 3.71 42.79 7.45 62.391-1.2 27.349-11.95 39.776-43.491 48.233-72.612 7.759-26.538 17.284-59.686 43.489-74.89 18.909-11.032 41.801-10.317 63.998-9.504 6.627.153 13.476.52 20.012.413 46.101-.581 89.868-18.601 119.959-49.34 31.936-32.557 46.65-78.778 38.558-120.485-2.477-12.86-7.125-25.248-11.552-37.422-6.615-17.979-13.457-36.607-13.251-55.961.125-16.259 5.22-32.512 10.061-48.237 6.583-21.158 13.328-43.104 7.879-64.414-3.584-13.931-11.886-25.911-20.052-37.501-6.426-9.134-12.943-18.529-17.165-28.876-6.769-16.755-7.29-35.27-7.758-53.218-.206-7.231-.327-14.639-.969-21.863-1.251-15.19-7.255-51.788-36.296-63.341-18.559-7.497-43.003-1.823-65.434 14.975-8.094 6.06-15.693 13.114-22.947 19.901-9.359 8.696-19.062 17.658-30.016 24.724-39.503 25.577-96.125 22.408-131.696-7.3-25.85-21.585-50.839-33.248-76.681-35.701-20.254-1.935-40.341 3.668-55.596 8.886-16.472 5.5-32.876 12.437-48.806 19.061-36.793 15.421-74.84 31.429-114.855 31.039-24.323-.212-49.747-6.463-77.717-19.123-30.383-13.711-55.687-31.252-75.033-52.203-16.192-17.386-28.109-37.152-35.072-57.783l-1.3.457c6.306 20.424 18.398 40.274 34.682 57.92z" fill="#fff" fill-opacity=".1"/><path d="M-163.095 418.876C-107.158 446.68-47.535 452.153.2 434.2c20.227-7.697 38.86-19.508 56.76-30.915 8.37-5.28 17.082-10.827 25.672-15.893 34.497-19.872 63.758-26.802 89.65-21.299 16.751 3.604 31.891 12.596 46.328 21.25 7.394 4.412 15.01 9.037 22.917 12.83 48.901 23.998 110.201 20.117 156.39-9.71 12.377-8.004 32.96-12.612 48.188-14.169 16.49-1.709 31.886 4.271 39.127 15.31 5.318 8.063 6.301 17.504 7.207 27.557.588 6.658 1.268 13.577 3.378 19.993 2.842 8.495 8.062 15.862 13.06 23.015 4.907 6.893 9.86 13.916 12.648 21.846 7.772 22.1-2.377 46.411-13.289 69.384-10.704 22.315-23.937 49.902-47.43 65.759-21.167 14.162-46.273 16.709-72.9 19.499-17.751 1.86-36.244 3.688-53.059 9.455-21.236 7.321-40.499 20.668-59.027 33.611-26.76 18.612-51.967 36.241-82.98 37.359-19.21.62-37.792-5.7-55.672-11.683-9.116-3.076-18.583-6.32-27.99-8.563-34.61-8.281-73.704-5.635-116.19 8.136-28.093 9.002-50.35 20.481-67.979 35.152-11.653 9.648-21.573 21.317-31.194 32.588-7.525 8.927-15.263 18.075-23.803 26.191-25.964 24.614-44.266 19.509-61.91 14.612-7.618-2.141-15.367-4.237-23.6-3.971-7.491.297-14.944.288-22.267.234-22.358-.026-43.539-.028-64.561 7.072-12.005 4.076-27.22 6.504-43.344 9.252-21.514 3.622-44.985 7.493-62.981 15.72l.457 1.3c17.82-8.311 41.162-12.137 62.676-15.758 16.17-2.619 31.468-5.223 43.604-9.344 20.761-7.008 41.812-6.961 64.125-7.065 7.323.054 14.776.063 22.267-.234 7.927-.304 15.37 1.753 23.164 3.978 17.996 5.066 36.733 10.164 63.256-14.939 8.67-8.161 16.408-17.31 23.932-26.237 9.492-11.225 19.412-22.894 30.935-32.496 17.544-14.496 39.541-25.883 67.505-34.839 42.271-13.55 81.144-16.41 115.494-8.038 9.407 2.243 18.874 5.487 27.859 8.609 18.056 6.067 36.814 12.471 56.154 11.806 31.319-1.08 57.949-19.647 83.63-37.588 18.528-12.942 37.661-26.244 58.637-33.473 16.816-5.767 35.178-7.55 52.8-9.364 25.541-2.554 52.038-5.298 73.549-19.728 23.753-15.948 37.155-43.887 47.859-66.202 11.126-23.194 21.443-47.857 13.359-70.431-2.834-8.06-7.878-15.343-12.785-22.235-4.999-7.153-10.173-14.39-12.969-22.756-2.064-6.286-2.698-13.074-3.417-19.687-.944-9.747-1.895-19.93-7.435-28.207-7.509-11.383-23.431-17.616-40.487-15.855-7.484.733-33.011 4.159-48.708 14.353-45.669 29.643-106.58 33.387-154.953 9.643-7.777-3.839-15.347-8.335-22.741-12.746-14.613-8.739-29.753-17.73-46.81-21.373-26.243-5.672-55.894 1.395-90.605 21.489-8.766 4.981-17.349 10.483-25.802 15.938C38 413.75 19.541 425.646-.6 433.167c-47.475 17.862-106.533 12.336-162.248-15.254-50.222-24.848-91.945-62.909-132.338-99.685l-56.322-51.333-1.43.503 56.81 51.891c40.868 36.463 82.636 74.655 133.034 99.587z" fill="#fff" fill-opacity=".1"/><path d="M-437.491 381.706c24.17 6.839 50.182 6.456 75.323 6.088l1.613.017c37.257-.392 75.934 14.053 121.47 45.515 11.197 7.749 22.272 15.979 32.994 24.04 23.959 17.869 48.711 36.335 75.954 49.835 45.913 22.564 92.82 25.936 128.759 8.916 22.921-10.835 40.967-29.305 58.37-47.11 3.428-3.543 6.987-7.132 10.415-10.674 19.04-18.966 44.956-41.225 76.116-44.002 27.154-2.537 52.899 10.029 77.812 22.303 26.448 12.903 53.645 26.273 82.591 21.353 19.167-3.234 36.072-14.145 52.244-24.652 4.054-2.594 8.323-5.41 12.553-7.92 26.795-16.434 49.686-21.123 68.023-13.84 21.187 8.325 32.1 30.635 41.53 52.882 10.649 24.886 18.948 47.239 13.915 69.897-7.876 35.344-46.846 56.205-80.587 63.688-12.853 2.912-26.202 4.831-39.03 6.566-22.958 3.253-46.658 6.474-68.21 15.805-17.138 7.342-33.127 18.369-48.641 29.083-27.28 18.795-53.007 36.606-84.354 35.943-20.883-.399-40.295-9.495-59.005-18.253-11.903-5.602-24.157-11.372-36.987-15.04-54.56-15.581-112.506 9.47-151.269 29.674-8.903 4.591-17.974 9.534-26.656 14.34-37.02 20.175-75.378 41.113-117.289 47.378-19.434 2.89-37.409 12.424-54.909 21.645-19.442 10.343-39.535 20.914-61.222 21.967-12.499.597-26.86-.78-42.093-2.143-17.808-1.626-35.968-3.421-51.938-1.895l.457 1.3c15.71-1.434 33.694.276 51.373 1.947 15.278 1.493 29.77 2.825 42.268 2.228 22.077-1.19 42.3-11.807 61.873-22.195 17.369-9.176 35.214-18.664 54.388-21.462 42.217-6.227 80.575-27.165 117.679-47.516 8.682-4.806 17.753-9.749 26.656-14.34 38.633-20.158 96.19-45.072 150.268-29.614 12.654 3.584 24.908 9.354 36.681 15.001 18.885 8.843 38.344 18.069 59.486 18.377 31.783.656 58.933-18.094 85.134-36.218 15.385-10.668 31.373-21.695 48.382-28.991 21.467-9.155 44.991-12.461 67.819-15.668 12.959-1.781 26.307-3.7 39.16-6.612 34.216-7.796 73.576-28.794 81.659-64.795 5.201-23.01-3.234-45.752-13.93-70.768-9.521-22.507-20.655-45.031-42.369-53.61-18.818-7.406-42.145-2.709-69.285 13.992l-12.553 7.92c-16.172 10.507-32.817 21.327-51.724 24.469-28.556 4.783-55.577-8.503-81.849-21.321-25.043-12.229-50.964-24.879-78.554-22.335-31.55 2.914-57.726 25.265-76.98 44.452-3.474 3.412-6.987 7.131-10.416 10.674C38.222 485.832 20.306 504.256-2.4 514.87c-35.594 16.753-82.02 13.504-127.582-8.892-27.197-13.37-51.949-31.836-75.732-49.62-10.723-8.062-21.797-16.292-32.994-24.041-45.888-31.63-84.74-46.16-122.303-45.806l-1.613-.017c-25.011.323-50.894.659-74.888-6.095-31.131-8.773-57.715-29.954-72.817-57.949l-1.3.458c15.675 28.377 42.526 49.902 74.139 58.798z" fill="#fff" fill-opacity=".1"/><path d="M141.708 641.384c22.367 5.866 49.271 1.372 77.8-13.042 12.276-6.216 24.14-13.601 35.484-20.804 10.87-6.89 22.13-13.917 33.626-19.858 35.871-18.457 73.102-23.077 112.596-27.908l.26-.091c16.399-1.969 54.3-10.914 52.955-50.465-.669-16.856-10.473-32.69-25.201-40.511-24.576-12.978-55.263-2.625-76.126 6.172-2.294.953-4.718 1.951-6.967 3.034-21.941 9.468-44.792 19.257-67.819 15.668-13.764-2.172-26.384-8.982-38.523-15.669-3.033-1.563-6.157-3.386-9.19-4.948-20.924-10.902-38.171-15.501-54.408-14.319a59.424 59.424 0 00-15.245 3.169c-14.17 4.983-25.465 15.236-29.576 27.637-2.079 6.136-2.453 12.549-2.827 18.961-.312 4.93-.708 10.036-1.76 14.935-2.405 10.194-8.225 19.398-13.961 28.426-6.202 9.777-12.49 19.73-14.482 31.094-4.818 27.842 18.72 51.993 43.364 58.519zm-41.966-58.28c1.954-11.058 8.242-21.011 14.36-30.613 5.736-9.028 11.64-18.408 14.129-28.778 1.183-4.944 1.533-10.18 1.799-15.24.465-6.153.84-12.565 2.834-18.525 5.446-16.084 23.331-28.363 43.574-29.784 15.977-1.09 33.048 3.425 53.621 14.158 3.033 1.562 6.111 3.255 9.19 4.948 12.268 6.642 24.934 13.582 38.874 15.837 14.987 2.326 29.797-.836 44.227-5.911 8.19-2.879 16.327-6.325 24.418-9.901 2.295-.953 4.673-2.081 6.967-3.034 20.733-8.751 50.9-18.921 75.078-6.242 14.332 7.523 23.869 23.013 24.484 39.303 1.37 38.374-35.751 47.045-51.714 49.006l-.26.091c-39.624 4.877-77.031 9.413-113.162 27.961-11.626 5.987-22.886 13.014-33.756 19.904-11.344 7.202-23.209 14.588-35.354 20.758-28.314 14.192-54.783 18.679-76.844 12.852-24.117-6.273-47.12-29.736-42.465-56.79z" fill="#fff" fill-opacity=".1"/><path d="M185.9 620.001c14.335-2.85 27.102-10.991 39.219-18.904 2.158-1.342 4.399-2.861 6.556-4.204 27.997-17.587 58.511-30.508 90.763-38.489l1.735-.464c9.55-2.336 19.36-4.763 26.355-11.458 4.247-4.123 7.544-13.025 5.778-19.707-1.065-3.862-3.547-6.349-7.268-7.377-5.12-1.268-13.05 1.521-20.72 4.218-4.81 1.691-9.36 3.291-12.709 3.738-24.227 2.969-48.414-2.257-67.968-14.663-3.391-2.167-6.744-4.64-10.005-6.853-5.247-3.706-10.586-7.671-16.476-10.713-10.328-5.278-20.982-6.498-29.432-3.527-.65.228-1.43.503-2.035.861-10.34 4.659-15.787 15.339-18.792 23.407-1.458 4.164-2.609 8.367-3.761 12.57-1.481 5.341-2.871 10.943-5.14 16.123-2.223 5.31-5.233 10.458-8.334 15.347-2.121 3.521-4.327 7.218-6.273 10.824-5.616 11.031-7.24 20.951-4.62 29.232 5.285 16.693 26.444 23.276 43.127 20.039zm-41.651-20.411c-2.483-7.892-1.027-17.46 4.55-28.186 1.9-3.736 4.021-7.257 6.143-10.778 2.925-4.973 6.111-10.037 8.418-15.523 2.223-5.31 3.743-10.957 5.225-16.298 1.021-4.158 2.173-8.36 3.675-12.395 2.792-7.847 8.201-18.221 18.021-22.696 8.435-3.843 19.434-2.89 30.289 2.641 5.845 2.912 11.137 6.747 16.254 10.499 3.307 2.343 6.66 4.816 10.052 6.983 19.905 12.574 44.398 17.839 68.885 14.779 3.348-.447 7.508-1.91 12.058-3.51l.91-.32c7.15-2.514 15.21-5.349 19.894-4.074 3.37.86 5.455 3.048 6.337 6.39 1.583 6.163-1.461 14.537-5.41 18.262-6.734 6.605-16.46 8.856-25.749 11.1l-1.736.464c-32.297 7.852-63.071 20.864-91.153 38.627-2.157 1.342-4.398 2.861-6.555 4.204-12.163 7.782-24.625 15.962-38.7 18.721-16.072 3.314-36.527-2.932-41.408-18.89zm-356.356 637c1.082-3.15 2.209-6.18 3.29-9.33 6.858-20.38 14.052-41.46 29.945-55.67 24.011-21.44 58.502-23.05 76.908-22.22 26.737 1.26 55.273-12.72 78.471-38.55 14.083-15.62 25.073-33.8 35.81-51.45 4.542-7.44 9.297-15.1 14.015-22.46 12.925-19.73 33.696-47.487 63.82-60.271 16.794-7.074 35.371-9.078 53.252-10.984 10.703-1.134 21.666-2.359 32.309-4.495 34.964-7.328 66.815-26.417 89.641-53.725 5.986-7.071 11.437-14.831 16.674-22.369 11.669-16.666 23.636-33.729 41.336-44.043 17.44-10.222 38.325-12.308 58.34-14.379 7.178-.771 14.662-1.504 21.879-2.581 35.169-5.501 66.649-20.661 88.91-42.512 24.917-24.684 37.836-58.149 34.708-89.478-1.829-18.492-12.86-37.401-30.433-37.941-8.285-.3-15.804 3.658-22.932 7.48-3.717 1.891-7.389 3.912-11.289 5.284-11.088 4.191-23.341 3.825-35.028 3.407-5.32-.175-10.64-.349-15.953-.088-45.728 2.057-84.235 32.542-118.182 59.379-36.013 28.439-74.739 56.226-118.324 56.069-21.969-.163-43.661-7.435-64.567-14.545-26.208-8.897-53.38-18.04-80.835-12.622-25.804 5.13-47.265 22.609-64.911 38.893-3.306 3.062-6.566 6.253-9.871 9.314-14.892 14.147-30.296 28.913-48.615 38.714-25.102 13.355-53.332 14.08-71.663 1.828-29.919-19.863-69.387-24.097-114.477-12.332a253.866 253.866 0 00-19.774 6.077c-31.07 10.925-63.034 28.446-91.915 50.58l.457 1.3c35.078-26.942 74.758-47.03 111.644-56.787 44.654-11.758 83.816-7.562 113.383 12.132 18.859 12.504 47.57 11.903 73.147-1.765 18.578-9.893 33.982-24.658 49.004-38.851 3.26-3.191 6.566-6.253 9.871-9.314 17.386-16.193 38.633-33.451 64.177-38.489 27.15-5.457 54.061 3.777 80.094 12.59 21.035 7.065 42.774 14.466 65.002 14.538 44.151.105 83.137-27.773 119.234-56.389 33.817-26.791 72.11-57.054 117.403-59.104 5.182-.216 10.632-.087 15.952.087 11.947.328 24.2.693 35.549-3.589 3.854-1.502 7.701-3.439 11.418-5.33 7.389-3.913 14.433-7.559 22.237-7.381 16.702.554 27.244 18.904 29.104 36.655 3.167 31.023-9.629 64.007-34.332 88.469-22.001 21.76-53.267 36.698-88.13 42.238-7.217 1.077-14.525 1.894-21.704 2.665-20.274 2.163-41.16 4.249-58.989 14.608-17.96 10.406-30.012 27.644-41.765 44.485-5.237 7.539-10.688 15.299-16.544 22.324-22.612 27.087-54.249 45.954-88.907 53.321-10.597 2.265-21.606 3.361-32.133 4.579-18.011 1.952-36.718 4.002-53.642 11.121-30.514 12.921-51.499 40.897-64.509 60.807-4.847 7.4-9.603 15.07-14.144 22.5-10.653 17.48-21.773 35.71-35.726 51.28-22.9 25.43-51.046 39.27-77.347 38-18.581-.91-53.508.71-77.818 22.55-16.237 14.47-23.386 35.68-30.327 56.24-1.082 3.15-2.163 6.31-3.291 9.33-9.701 27.66-22.273 45.09-38.441 53.11l.457 1.3c16.467-8.42 29.207-26.19 39.077-54.21z" fill="#fff" fill-opacity=".1"/><path d="M-260.438 1188.88c8.122-23.01 15.699-44.67 33.756-59.78 15.219-12.8 36.181-15.5 56.578-18.15 12.179-1.5 24.747-3.15 36.103-6.99 57.351-18.86 107.158-37.98 137.331-79.7 4.816-6.66 8.883-13.79 13.042-20.65 5.468-9.377 11.105-19.101 18.377-27.501 26.3-30.721 69.408-41.059 111.161-49.021 38.32-7.34 85.982-16.358 113.592-49.585 5.557-6.628 10.099-14.068 14.472-21.157 4.457-7.264 9.083-14.88 14.77-21.554 15.094-17.724 37.896-30.562 71.907-40.185 8.243-2.314 16.707-4.414 24.911-6.422 18.664-4.664 37.894-9.381 55.851-17.302 17.177-7.647 27.21-17.749 29.027-29.197 1.456-9.569-2.942-20-11.648-27.31-21.122-17.697-52.906-10.465-81.123-.981-30.473 10.131-61.94 20.758-89.364 38.728-11.988 7.867-23.25 17.378-34.085 26.447-7.093 5.999-14.445 12.091-21.935 17.792-23.075 17.463-44.015 26.871-64.036 28.506-15.885 1.35-31.895-2.223-47.248-5.588-9.843-2.236-19.946-4.381-30.248-5.432-49.459-4.812-97.788 19.34-142.628 46.356l-8.675 5.241c-40.739 24.551-82.772 49.995-129.825 53.686l-2.438.127c-17.499 1.332-35.647 2.894-51.563-2.904-6.532-2.377-12.942-5.235-19.131-7.88-9.878-4.414-20.238-8.951-30.96-11.608-12.952-3.188-32.218-.649-50.938 5.933-12.87 4.526-25.62 11.054-35.734 18.847l.503 1.43c24.444-18.967 64.618-30.172 85.885-24.942 10.676 2.527 20.906 7.11 30.738 11.395 6.235 2.774 12.644 5.633 19.177 8.01 16.221 5.836 34.416 4.404 52.174 2.98l2.439-.127c47.312-3.783 89.605-29.318 130.475-53.914a1178.01 1178.01 0 008.544-5.196c44.626-26.794 92.65-50.984 141.848-46.081 10.127.967 20.276 3.241 30.073 5.347 15.528 3.45 31.492 6.893 47.684 5.582 20.281-1.727 41.397-11.051 64.815-28.781 7.49-5.701 14.927-11.968 22.066-17.838 10.834-9.068 22.013-18.404 33.954-26.401 27.294-17.924 58.631-28.505 89.104-38.636 27.957-9.393 59.175-16.572 79.855.696 8.309 7.012 12.524 16.923 11.061 26.056-2.256 13.94-16.576 23.065-28.216 28.181-17.697 7.83-37.011 12.722-55.591 17.211-8.204 2.008-16.668 4.108-24.911 6.422-34.271 9.714-57.333 22.644-72.641 40.589-5.687 6.675-10.313 14.29-14.9 21.6-4.373 7.089-8.915 14.528-14.388 20.981-27.441 32.875-74.844 41.802-112.903 49.05-42.013 8.054-85.251 18.438-111.896 49.426-7.225 8.53-12.993 18.3-18.461 27.674-4.029 6.82-8.226 13.99-12.912 20.61-29.958 41.5-79.681 60.44-136.596 79.29-11.272 3.67-23.84 5.32-35.843 6.91-20.527 2.69-41.75 5.47-57.228 18.37-18.272 15.33-26.309 38.17-34.139 60.35-4.042 11.36-8.122 23.02-13.569 33.7l.64 1.82c5.447-10.68 9.696-22.69 13.86-34.53z" fill="#fff" fill-opacity=".1"/></svg>