<svg width="1560" height="960" fill="none" xmlns="http://www.w3.org/2000/svg"><path d="M978.284 637.25c-68.122-70.062-153.274-109.081-233.037-107.356-33.846.862-67.476 8.623-99.812 16.168-15.09 3.449-30.827 7.114-46.133 10.132-61.224 11.425-108.004 6.467-143.358-15.09-22.851-14.013-40.528-35.139-57.343-55.403-8.623-10.348-17.462-21.127-27.163-30.828-59.714-60.792-152.196-86.877-235.84-66.828-22.419 5.389-55.187 1.509-78.47-4.096-25.222-6.036-44.839-22.851-49.797-42.9-3.665-14.659-.216-29.102 3.664-44.408 2.588-10.132 5.174-20.696 5.39-31.259.215-14.012-3.665-27.594-7.33-40.744-3.664-12.719-7.33-25.653-7.33-38.803 0-36.648 27.595-67.26 55.62-95.5C84.721 62.957 118.567 29.11 161.466 17.9c38.589-9.916 76.961-.646 117.705 9.054 27.162 6.468 55.403 13.366 83.212 13.582 35.139.215 70.493-9.486 104.554-18.971 49.151-13.581 95.5-26.516 141.849-12.072 28.672 9.054 52.816 28.025 76.098 46.133 11.857 9.27 24.145 18.97 36.864 27.163 46.78 30.18 105.847 46.564 175.694 48.288 46.133 1.294 84.937-4.095 118.567-16.599 22.2-8.192 42.9-20.264 62.95-31.905 15.73-9.27 31.9-18.755 48.72-26.3 51.09-22.851 75.45-5.82 98.95 10.563 10.13 7.114 20.48 14.228 32.76 18.108 11.21 3.45 22.21 7.33 32.99 11.21 32.98 11.641 64.24 22.636 98.95 23.067 19.83.215 43.54 4.527 68.77 8.838 33.63 5.821 70.27 12.288 101.1 9.486v-2.156c-30.61 3.018-67.04-3.449-100.67-9.27-25.23-4.527-49.15-8.623-69.2-8.838-34.28-.432-65.32-11.426-98.31-22.851-10.77-3.88-21.77-7.761-32.98-11.21-11.86-3.665-21.77-10.564-32.12-17.893-23.93-16.815-48.94-34.061-101.1-10.779-17.04 7.545-33.2 17.03-48.94 26.3-19.83 11.641-40.53 23.714-62.52 31.906-33.411 12.287-71.784 17.677-117.701 16.383-69.416-1.94-128.268-17.892-174.617-48.073-12.719-8.192-25.007-17.893-36.648-27.163-23.497-18.324-47.858-37.51-76.745-46.564-46.78-14.66-95.715-1.078-142.926 12.072-34.061 9.486-69.2 19.186-103.908 18.97-27.809-.215-55.834-7.113-82.781-13.58-39.019-9.486-79.547-19.187-118.782-9.055-43.331 11.21-77.607 45.487-104.986 72.865C27.811 117.066-.214 148.11.001 185.62c0 13.366 3.665 26.731 7.33 39.45 3.665 13.151 7.545 26.516 7.33 40.313-.216 10.348-2.803 20.695-5.174 30.827-3.665 14.875-7.546 30.397-3.665 45.487 5.174 20.695 25.438 38.157 51.522 44.409 11.426 2.802 50.876 10.994 79.332 4.095 82.781-20.048 174.617 6.037 233.684 66.182 9.486 9.701 18.324 20.264 26.947 30.612 17.031 20.48 34.708 41.606 57.99 55.834 35.786 21.989 83.212 26.947 144.867 15.306 15.522-2.803 31.043-6.467 46.349-10.132 32.336-7.545 65.75-15.522 99.38-16.168 79.332-1.725 163.622 37.079 231.529 106.71 61.228 62.732 103.048 140.555 143.568 215.791l56.49 104.985h2.37l-56.91-106.063c-41.4-75.02-83.22-153.059-144.656-216.007z" fill="#fff" fill-opacity=".1"/><path d="M1363.95 834.502c-32.12-22.635-70.71-35.57-108-48.073l-2.38-.863c-55.18-18.755-104.77-60.145-155.64-130.207-12.5-17.246-24.58-35.139-36.22-52.601-26.08-38.804-53.03-78.901-86.229-112.962-56.049-57.127-123.524-86.445-185.395-79.978-39.45 4.096-75.667 21.989-110.59 39.235-6.898 3.449-14.012 6.898-20.911 10.347-37.941 18.109-87.739 37.51-135.166 25.438-41.39-10.347-72.864-42.253-103.261-73.296-32.336-32.767-65.535-66.612-110.806-74.373-29.965-5.174-60.576 2.156-89.895 9.27-7.329 1.724-15.09 3.664-22.635 5.173-48.073 10.348-84.29 5.39-107.572-14.874-26.947-23.283-31.474-61.871-33.846-99.596-2.802-42.253-3.449-79.548 15.737-110.375 29.965-48.073 98.303-58.637 151.981-52.17 20.48 2.372 41.175 6.468 61.008 10.564 35.57 7.114 72.218 14.659 108.866 12.072 29.103-1.94 58.421-9.916 86.877-17.677 50.013-13.581 97.224-26.516 143.142-9.27 30.612 11.426 54.541 34.923 77.607 57.559 14.659 14.443 29.75 29.318 46.78 41.39 72.434 51.307 170.952 44.409 238.643 34.708 15.525-2.156 31.475-4.743 46.775-7.33 65.11-10.563 132.58-21.557 197.69-9.054 30.18 5.821 61.65 1.078 92.26-3.449 34.06-5.174 69.2-10.348 101.76-.647 18.75 5.605 39.23 15.091 61 25.007 25.44 11.641 51.31 23.713 75.67 29.75v-2.156c-23.93-6.036-49.58-17.893-74.8-29.534-21.78-10.132-42.47-19.617-61.23-25.222-33.2-9.701-68.55-4.528-102.83.646-30.39 4.527-61.65 9.27-91.4 3.45-65.54-12.719-133.01-1.725-198.33 9.054-15.31 2.587-31.26 5.174-46.781 7.329-67.475 9.701-165.347 16.6-237.133-34.276-16.815-11.857-31.905-26.732-46.349-41.175-23.282-22.851-47.211-46.565-78.254-57.99-46.564-17.462-96.362-3.88-144.436 9.27-28.24 7.76-57.558 15.737-86.446 17.677-36.432 2.371-72.864-4.958-108.219-12.072-20.048-4.096-40.743-8.192-61.223-10.564-54.541-6.251-123.525 4.312-154.137 53.248-19.617 31.258-18.97 69.199-16.168 111.668 2.371 38.157 7.114 77.176 34.708 101.105 23.929 20.695 60.792 25.869 109.512 15.306l22.636-5.174c29.318-7.114 59.499-14.444 89.032-9.27 44.625 7.761 77.608 41.391 109.729 73.943 30.611 31.043 62.301 63.163 104.338 73.727 48.073 12.072 98.303-7.33 136.675-25.654 6.899-3.234 14.013-6.898 20.911-10.348 34.923-17.246 70.924-35.139 109.944-39.019 61.223-6.252 128.051 22.636 183.67 79.332 33.201 33.845 60.141 73.942 86.011 112.531 11.64 17.461 23.72 35.354 36.22 52.6 51.31 70.493 101.11 112.099 156.72 131.07l2.38.862c37.07 12.504 75.45 25.438 107.35 47.858 41.39 29.103 69.63 74.158 77.39 123.309h2.16c-8.41-50.013-36.86-95.715-78.9-125.249z" fill="#fff" fill-opacity=".1"/><path d="M643.926 150.696c-29.965-20.264-72.003-27.594-121.585-21.127-21.342 2.803-42.684 7.546-63.164 12.288-19.617 4.527-39.881 9.054-59.93 11.857-62.517 8.623-119.86-3.88-180.652-17.246h-.431c-25.223-5.605-85.8-12.072-104.339 46.995-7.761 25.223-1.509 53.679 16.168 72.865 29.534 31.905 80.194 32.552 115.549 30.396 3.88-.216 7.976-.431 11.856-.862 37.295-2.587 76.099-5.174 108.219 12.072 19.187 10.348 34.277 26.947 48.721 43.115 3.664 3.881 7.329 8.192 10.994 12.072 25.222 26.947 48.289 42.684 72.864 49.367 7.977 2.156 16.169 3.234 24.145 3.234 23.498 0 45.486-9.27 57.99-25.438 6.252-7.976 10.132-17.246 14.012-26.516 3.018-7.114 6.252-14.443 10.348-21.126 8.839-13.797 22.204-24.36 35.354-34.708 14.228-11.21 28.672-22.635 37.51-38.373 21.558-38.588-.646-86.445-33.629-108.865zm31.689 107.788c-8.623 15.305-23.066 26.731-37.079 37.725-13.15 10.348-26.731 21.127-35.785 35.139-4.312 6.683-7.545 14.228-10.563 21.558-3.881 8.838-7.761 18.108-13.797 25.869-16.384 20.911-49.152 29.749-79.763 21.342-24.145-6.683-46.996-22.204-71.787-48.72-3.665-3.881-7.33-7.977-10.994-12.072-14.66-16.169-29.75-32.984-49.152-43.547-20.911-11.21-44.408-14.228-68.337-14.228-13.581 0-27.378.863-41.175 1.94-3.881.216-7.976.647-11.857.863-35.139 2.155-84.937 1.509-114.039-29.75-17.246-18.539-23.283-46.348-15.737-70.709 17.892-57.343 77.176-50.875 101.751-45.486h.431c61.008 13.366 118.567 26.085 181.515 17.462 20.264-2.803 40.528-7.33 60.146-11.857 20.479-4.743 41.822-9.485 62.948-12.288 49.151-6.252 90.542.862 120.076 20.911 32.336 21.773 54.109 68.337 33.198 105.848z" fill="#fff" fill-opacity=".1"/><path d="M567.612 159.319c-22.635-3.234-45.702 2.156-67.691 7.545-3.88.862-7.976 1.94-11.856 2.802-50.445 11.426-102.183 14.66-153.921 9.701l-2.803-.215c-15.306-1.509-31.043-3.018-44.84 3.233-8.407 3.881-17.892 15.306-18.755 26.085-.431 6.252 1.941 11.21 6.899 14.659 6.898 4.527 20.048 4.527 32.767 4.527 7.977 0 15.522 0 20.696 1.078 37.294 8.192 70.277 28.456 92.697 56.912 3.88 4.958 7.545 10.348 11.21 15.306 5.821 8.192 11.641 16.815 18.755 24.36 12.503 13.15 27.594 20.48 41.606 20.48 1.078 0 2.372 0 3.449-.216 17.678-1.509 31.259-14.443 39.882-24.791 4.311-5.389 8.192-10.994 12.072-16.599 4.958-7.114 9.917-14.659 15.953-21.127 6.036-6.683 13.15-12.719 20.264-18.324 4.958-4.096 10.132-8.407 14.875-12.719 14.012-13.365 21.557-27.162 21.988-40.743.863-27.379-26.947-48.074-53.247-51.954zm50.876 51.738c-.431 12.935-7.545 26.3-21.342 39.235-4.743 4.527-9.701 8.623-14.659 12.719-6.899 5.82-14.228 11.641-20.48 18.539-6.036 6.683-11.21 14.228-16.168 21.342-3.665 5.605-7.545 11.21-11.857 16.384-8.192 10.132-21.557 22.636-38.372 24.145-14.444 1.293-30.181-5.821-43.331-19.618-7.114-7.329-12.934-15.737-18.539-23.929-3.665-5.174-7.33-10.563-11.21-15.521-22.851-28.887-56.266-49.367-93.991-57.559-5.174-1.078-12.073-1.078-19.618-1.078h-1.509c-11.856 0-25.222 0-31.474-4.311-4.527-3.018-6.467-7.33-6.036-12.719.862-9.917 9.701-20.696 17.462-24.145 13.365-6.251 28.887-4.527 43.762-3.018l2.802.216c51.738 5.174 103.908 1.94 154.568-9.701 3.88-.862 7.976-1.94 11.856-2.803 21.989-5.174 44.625-10.778 66.829-7.545 25.438 3.449 52.385 23.282 51.307 49.367zm759.262 522.556c-16.39-6.468-32.77-13.797-48.51-21.127-33.41-15.09-67.69-30.827-104.12-38.157-49.37-9.701-93.99-47.642-132.8-112.53-8.19-13.582-15.95-27.81-23.49-41.606-20.92-38.157-42.47-77.608-74.162-108.435-48.505-47.427-115.549-70.278-180.437-92.482-13.15-4.527-26.732-9.054-39.666-13.797-10.995-3.88-21.558-8.192-29.534-15.306-7.33-6.683-13.15-18.324-9.701-28.887 3.665-10.779 15.521-16.815 25.869-18.108 10.779-1.294 21.773 1.293 32.552 3.88l1.509.431c138.4 32.121 283.91 28.672 420.8-9.916 45.71-12.935 98.09-25.223 143.79-6.899 38.16 15.091 70.93 41.606 102.4 67.044 6.04 4.959 12.29 9.917 18.33 14.66 23.49 18.539 50.22 37.725 79.97 50.229v-2.372c-29.1-12.503-55.4-31.258-78.47-49.582-6.03-4.743-12.28-9.701-18.32-14.659-31.69-25.654-64.46-51.954-103.04-67.26-46.35-18.324-99.17-6.036-145.09 6.899-136.46 38.588-281.539 42.037-419.723 9.916l-1.509-.431c-10.779-2.587-21.989-5.174-33.199-3.88-10.132 1.293-23.498 7.114-27.594 19.617-3.449 10.132.647 22.42 10.348 31.043 8.192 7.545 18.971 11.857 30.181 15.737 13.15 4.743 26.731 9.27 39.666 13.797 64.672 21.988 131.285 44.839 179.574 91.835 31.476 30.612 52.816 70.062 73.726 108.003 7.55 13.797 15.31 28.025 23.5 41.607 39.02 65.535 84.29 103.691 134.09 113.608 36 7.114 70.27 22.851 103.47 37.941 15.96 7.33 32.34 14.659 48.72 21.127 91.84 36.216 157.59 127.405 162.76 223.983h2.16c-4.96-97.44-71.36-189.491-164.05-225.923z" fill="#fff" fill-opacity=".1"/><path d="M1402.11 317.983c-68.56-37.726-144.01-43.762-201.57-16.384-29.96 14.228-57.99 43.331-53.46 76.314 3.88 28.024 28.24 45.702 51.74 62.732 20.48 14.875 41.6 30.181 50.23 52.385 6.46 16.384 4.96 34.708 3.66 52.169-1.29 17.462-2.59 35.355 3.45 51.954 6.9 19.186 24.36 36.432 48.72 48.074 14.66 7.114 30.61 11.856 45.92 16.383 6.68 1.94 13.58 4.096 20.48 6.467 75.02 25.007 148.31 94.207 189.7 152.844v-3.665c-41.82-58.421-114.68-126.327-189.05-151.334-6.69-2.156-13.8-4.312-20.48-6.468-15.31-4.527-31.05-9.485-45.49-16.383-23.93-11.426-40.96-28.241-47.64-46.996-5.82-16.168-4.53-33.845-3.24-51.091 1.3-17.893 2.59-36.433-3.88-53.247-8.84-22.851-30.18-38.373-50.87-53.248-24.15-17.461-47-34.061-50.88-61.223-4.31-31.905 23.07-60.146 52.17-74.158 56.91-26.947 131.5-20.911 199.41 16.384 55.19 30.18 114.25 91.404 159.74 140.124v-3.234c-45.49-48.073-103.91-108.434-158.66-138.399z" fill="#fff" fill-opacity=".1"/><path d="M1433.58 420.812c-34.71-20.911-68.34-24.36-89.9-9.27-17.67 12.504-26.51 37.079-24.36 67.476 3.67 55.618 35.36 111.452 86.67 153.058 39.23 31.69 88.6 55.834 154.99 75.452v-2.156c-65.75-19.402-114.9-43.331-153.7-74.805-50.88-41.175-82.13-96.362-85.8-151.334-.86-14.012-.43-48.504 23.5-65.535 30.83-21.773 74.8 1.509 87.52 9.27 36.87 22.204 99.81 107.141 128.48 153.059V571.5c-29.74-46.565-91.18-128.699-127.4-150.688z" fill="#fff" fill-opacity=".1"/></svg>