<svg width="27" height="35" fill="none" xmlns="http://www.w3.org/2000/svg"><path d="M21.706 16.426c2.849 1.662 4.322 4.302 4.322 7.724 0 3.031-1.08 5.476-3.143 7.334-2.063 1.857-4.911 2.737-8.349 2.737H0V0h13.554c3.438 0 6.188.88 8.25 2.64 2.063 1.76 3.045 4.106 3.045 7.137.098 2.738-.982 5.085-3.143 6.65zM13.26 7.822H8.741V13.2h4.518c.786 0 1.474-.196 1.965-.685.49-.489.785-1.173.785-1.955 0-.783-.294-1.467-.785-1.956-.393-.586-1.08-.782-1.965-.782zm.983 18.577c.884 0 1.571-.293 2.16-.782.59-.489.786-1.271.786-2.053 0-.88-.294-1.565-.786-2.151a3.244 3.244 0 00-2.16-.782H8.84v5.768h5.402z" fill="#fff"/></svg>