<svg width="94" height="54" fill="none" xmlns="http://www.w3.org/2000/svg"><path d="M14.977 10.667c1.765 1.03 2.678 2.666 2.678 4.788 0 1.878-.67 3.394-1.948 4.545-1.278 1.151-3.044 1.697-5.175 1.697h-9.01V.485h8.402c2.13 0 3.835.545 5.114 1.636 1.278 1.091 1.887 2.546 1.887 4.424.06 1.697-.609 3.152-1.948 4.122zM9.74 5.333h-2.8v3.334h2.8c.487 0 .913-.122 1.218-.425.304-.303.487-.727.487-1.212s-.183-.909-.487-1.212c-.244-.363-.67-.485-1.218-.485zm.609 11.516c.548 0 .974-.182 1.34-.485.364-.303.486-.788.486-1.273 0-.545-.183-.97-.487-1.333a2.011 2.011 0 00-1.34-.485H7.002v3.576h3.349zm14.916-.425h7.306v5.212H19.786V.424h5.48v16zm22.953 5.273l-.914-3.03h-7.123l-.913 3.03h-5.905L40.364.485H47l7.062 21.212h-5.844zm-6.636-7.758h4.261l-2.13-7.212-2.131 7.212zm23.56 8.182c-3.226 0-5.844-1.03-7.975-3.151-2.13-2.121-3.166-4.728-3.166-7.88 0-3.15 1.035-5.757 3.166-7.878C59.297 1.03 61.977 0 65.142 0c1.949 0 3.714.485 5.358 1.394 1.644.909 2.922 2.121 3.835 3.636l-4.748 2.728A4.629 4.629 0 0067.76 6a5.656 5.656 0 00-2.678-.667c-1.705 0-3.105.546-4.14 1.576-1.035 1.03-1.583 2.424-1.583 4.182 0 1.758.548 3.09 1.583 4.182 1.035 1.09 2.435 1.576 4.14 1.576.974 0 1.887-.243 2.678-.667a4.392 4.392 0 001.827-1.818l4.748 2.727c-.913 1.576-2.191 2.788-3.835 3.697-1.583.909-3.41 1.333-5.358 1.333zM94 21.697h-6.088l-6.088-9.455v9.455h-5.48V.485h5.48v8.909l5.784-8.91h6.088l-6.758 10.304L94 21.697zM6.704 54L0 31h6.567l3.695 14.457L14.572 31h4.857l4.31 14.457L27.432 31H34l-6.636 23h-6.43l-3.9-13.011L13.204 54h-6.5zm42.066 0l-.974-3.286h-7.528L39.295 54H33l7.463-23h7.074L55 54h-6.23zm-7.009-8.411h4.543l-2.272-7.82-2.27 7.82zM61.828 54L54 31h6.79l4.71 15.837L70.21 31H77l-7.828 23h-7.344zM85 48.48h9V54H79V31h14.867v5.52H85v3.154h8v5.455h-8v3.351z" fill="#fff"/></svg>