<svg width="518" height="681" fill="none" xmlns="http://www.w3.org/2000/svg"><path d="M431.992 326.88C488.679 359.957 518 412.491 518 480.591c0 60.318-21.502 108.96-62.551 145.929C414.4 663.489 357.713 681 289.298 681H0V0h269.751c68.415 0 123.147 17.511 164.196 52.534 41.049 35.023 60.596 81.72 60.596 142.037 1.955 54.48-19.547 101.178-62.551 132.309zM263.887 155.657H173.97v107.014h89.917c15.638 0 29.321-3.891 39.094-13.62 9.774-9.728 15.638-23.348 15.638-38.914 0-15.566-5.864-29.186-15.638-38.914-7.819-11.674-21.502-15.566-39.094-15.566zm19.547 369.686c17.592 0 31.275-5.837 43.004-15.566 11.728-9.728 15.638-25.294 15.638-40.86 0-17.511-5.865-31.131-15.638-42.806-11.729-9.728-25.412-15.565-43.004-15.565H175.925v114.797h107.509z" fill="#000" fill-opacity=".02"/></svg>