<svg width="1900" height="1044" viewBox="0 0 1900 1044" fill="none" xmlns="http://www.w3.org/2000/svg">
<path d="M958.296 946.114C933.397 928.568 903.485 918.541 874.575 908.849L872.737 908.181C829.957 893.642 791.522 861.558 752.085 807.247C742.392 793.879 733.034 780.009 724.01 766.473C703.79 736.393 682.902 705.311 657.167 678.908C613.719 634.624 561.414 611.897 513.454 616.911C482.873 620.086 454.798 633.956 427.727 647.324C422.379 649.998 416.865 652.672 411.517 655.346C382.106 669.383 343.504 684.422 306.74 675.064C274.656 667.043 250.258 642.311 226.695 618.248C201.629 592.847 175.894 566.611 140.802 560.595C117.574 556.584 93.8441 562.266 71.1174 567.781C65.4357 569.118 59.4198 570.622 53.571 571.791C16.3058 579.813 -11.7684 575.969 -29.8161 560.261C-50.7046 542.213 -54.2139 512.301 -56.0521 483.057C-58.2245 450.303 -58.7259 421.394 -43.8532 397.497C-20.6252 360.232 32.3482 352.044 73.9583 357.057C89.8336 358.895 105.876 362.07 121.25 365.245C148.823 370.76 177.231 376.609 205.64 374.603C228.199 373.099 250.926 366.916 272.984 360.9C311.754 350.373 348.35 340.346 383.944 353.715C407.674 362.572 426.223 380.786 444.104 398.333C455.467 409.529 467.165 421.06 480.366 430.418C536.515 470.189 612.883 464.842 665.355 457.322C677.387 455.651 689.753 453.646 701.618 451.64C752.084 443.452 804.39 434.93 854.856 444.622C878.252 449.134 902.649 445.457 926.379 441.948C952.782 437.937 980.021 433.927 1005.25 441.447C1019.79 445.792 1035.67 453.144 1052.55 460.831C1072.26 469.855 1092.32 479.213 1111.2 483.892V482.221C1092.65 477.542 1072.77 468.351 1053.21 459.327C1036.34 451.473 1020.29 444.12 1005.76 439.776C980.02 432.256 952.615 436.266 926.044 440.277C902.482 443.786 878.251 447.463 855.19 442.951C804.389 433.091 752.084 441.614 701.451 449.969C689.586 451.975 677.22 453.98 665.188 455.651C612.883 463.171 537.016 468.518 481.369 429.081C468.334 419.89 456.637 408.359 445.44 397.163C427.393 379.45 408.844 361.068 384.78 352.211C348.685 338.675 310.083 349.203 272.817 359.396C250.926 365.412 228.199 371.595 205.807 373.099C177.566 374.938 149.324 369.256 121.918 363.741C106.377 360.566 90.3349 357.391 74.4596 355.553C32.1811 350.707 -21.2936 358.895 -45.023 396.829C-60.2299 421.059 -59.7286 450.471 -57.5562 483.391C-55.718 512.969 -52.0415 543.216 -30.6516 561.765C-12.1026 577.807 16.4729 581.818 54.2395 573.63C60.0883 572.293 65.9371 570.956 71.7859 569.619C94.5126 564.104 117.908 558.423 140.802 562.433C175.393 568.449 200.961 594.518 225.86 619.752C249.589 643.815 274.154 668.714 306.74 676.903C344.006 686.261 382.942 671.221 412.687 657.017C418.035 654.51 423.549 651.669 428.897 648.996C455.968 635.627 483.875 621.757 514.122 618.749C561.581 613.903 613.384 636.295 656.498 680.245C682.233 706.481 703.122 737.563 723.175 767.475C732.199 781.011 741.557 794.881 751.249 808.25C791.021 862.894 829.623 895.146 872.737 909.852L874.575 910.52C903.318 920.213 933.063 930.239 957.795 947.618C989.88 970.178 1011.77 1005.1 1017.79 1043.2H1019.46C1012.94 1004.44 990.882 969.008 958.296 946.114Z" fill="#ECECEC"/>
<path d="M400.154 416.046C376.926 400.338 344.34 394.656 305.905 399.67C289.361 401.842 272.817 405.518 256.942 409.195C241.735 412.704 226.027 416.213 210.486 418.386C162.024 425.07 117.573 415.378 70.4488 405.017H70.1146C50.5629 400.672 3.60535 395.659 -10.766 441.447C-16.7819 460.998 -11.9357 483.057 1.76715 497.929C24.661 522.661 63.9316 523.163 91.3374 521.492C94.3453 521.325 97.5204 521.157 100.528 520.823C129.438 518.818 159.518 516.813 184.417 530.181C199.289 538.203 210.987 551.07 222.183 563.603C225.024 566.611 227.865 569.953 230.706 572.961C250.257 593.85 268.138 606.049 287.188 611.229C293.371 612.9 299.722 613.736 305.905 613.736C324.119 613.736 341.164 606.55 350.857 594.017C355.703 587.834 358.711 580.648 361.719 573.462C364.058 567.948 366.565 562.266 369.74 557.086C376.591 546.391 386.952 538.203 397.146 530.181C408.175 521.492 419.371 512.635 426.223 500.436C442.934 470.524 425.721 433.426 400.154 416.046ZM424.719 499.6C418.034 511.465 406.838 520.322 395.976 528.844C385.782 536.866 375.255 545.221 368.236 556.083C364.894 561.264 362.387 567.112 360.048 572.794C357.04 579.645 354.032 586.831 349.353 592.847C336.653 609.057 311.252 615.908 287.523 609.391C268.806 604.21 251.093 592.179 231.876 571.624C229.035 568.616 226.194 565.441 223.353 562.266C211.99 549.733 200.292 536.699 185.252 528.51C169.043 519.821 150.828 517.481 132.279 517.481C121.751 517.481 111.056 518.15 100.361 518.985C97.3532 519.152 94.1781 519.486 91.1702 519.653C63.9315 521.325 25.3295 520.823 2.76987 496.593C-10.5988 482.221 -15.2779 460.664 -9.42914 441.781C4.44087 397.33 50.3957 402.343 69.4461 406.521H69.7803C117.072 416.882 161.69 426.741 210.486 420.057C226.194 417.884 241.902 414.375 257.109 410.866C272.984 407.19 289.528 403.513 305.905 401.341C344.005 396.495 376.09 402.009 398.984 417.55C424.05 434.428 440.928 470.524 424.719 499.6Z" fill="#ECECEC"/>
<path d="M340.998 422.731C323.451 420.224 305.571 424.402 288.526 428.579C285.518 429.248 282.343 430.083 279.335 430.752C240.231 439.608 200.125 442.115 160.019 438.272L157.847 438.105C145.982 436.935 133.783 435.765 123.088 440.611C116.571 443.619 109.218 452.476 108.55 460.831C108.216 465.677 110.054 469.521 113.897 472.195C119.245 475.704 129.438 475.704 139.298 475.704C145.481 475.704 151.33 475.704 155.34 476.539C184.25 482.89 209.817 498.598 227.197 520.656C230.205 524.5 233.046 528.677 235.886 532.521C240.398 538.871 244.91 545.555 250.425 551.404C260.117 561.598 271.815 567.279 282.677 567.279C283.512 567.279 284.515 567.279 285.35 567.112C299.053 565.943 309.581 555.916 316.266 547.895C319.608 543.717 322.616 539.372 325.624 535.027C329.467 529.513 333.311 523.664 337.99 518.651C342.669 513.47 348.183 508.791 353.698 504.447C357.541 501.272 361.552 497.929 365.228 494.587C376.09 484.226 381.939 473.531 382.273 463.004C382.942 441.781 361.385 425.738 340.998 422.731ZM380.435 462.837C380.101 472.863 374.586 483.224 363.891 493.25C360.215 496.76 356.372 499.935 352.528 503.11C347.181 507.622 341.499 512.134 336.653 517.481C331.974 522.661 327.963 528.51 324.12 534.025C321.279 538.37 318.271 542.714 314.929 546.725C308.579 554.579 298.218 564.271 285.183 565.441C273.987 566.444 261.788 560.929 251.595 550.234C246.08 544.553 241.568 538.035 237.223 531.685C234.382 527.675 231.542 523.497 228.534 519.653C210.82 497.261 184.918 481.386 155.674 475.035C151.664 474.2 146.316 474.2 140.467 474.2C140.133 474.2 139.632 474.2 139.298 474.2C130.107 474.2 119.746 474.2 114.9 470.858C111.391 468.518 109.887 465.176 110.221 460.998C110.889 453.311 117.741 444.956 123.757 442.282C134.117 437.436 146.149 438.773 157.68 439.943L159.852 440.11C199.958 444.12 240.398 441.614 279.669 432.59C282.677 431.922 285.852 431.086 288.86 430.418C305.905 426.407 323.451 422.062 340.663 424.569C360.382 427.242 381.271 442.616 380.435 462.837Z" fill="#ECECEC"/>
<path d="M968.991 867.908C956.291 862.894 943.591 857.213 931.392 851.531C905.49 839.833 878.92 827.634 850.678 821.953C812.411 814.433 777.819 785.022 747.74 734.722C741.389 724.194 735.374 713.165 729.525 702.47C713.315 672.892 696.604 642.311 672.039 618.415C634.44 581.651 582.469 563.937 532.17 546.725C521.976 543.216 511.448 539.706 501.422 536.03C492.899 533.022 484.711 529.68 478.528 524.165C472.846 518.985 468.334 509.961 471.008 501.773C473.849 493.417 483.04 488.738 491.061 487.736C499.416 486.733 507.939 488.738 516.294 490.744L517.464 491.078C624.748 515.977 737.546 513.303 843.66 483.391C879.087 473.364 919.694 463.839 955.121 478.043C984.699 489.741 1010.1 510.295 1034.5 530.014C1039.18 533.858 1044.02 537.701 1048.7 541.378C1066.92 555.749 1087.64 570.622 1110.7 580.314V578.476C1088.14 568.783 1067.75 554.245 1049.87 540.041C1045.19 536.364 1040.35 532.521 1035.67 528.677C1011.1 508.791 985.702 488.404 955.79 476.539C919.861 462.335 878.92 471.86 843.326 481.887C737.546 511.799 625.082 514.473 517.965 489.574L516.796 489.24C508.44 487.234 499.751 485.229 491.061 486.232C483.207 487.234 472.846 491.746 469.671 501.439C466.997 509.293 470.172 518.818 477.692 525.502C484.042 531.351 492.398 534.693 501.087 537.701C511.281 541.378 521.809 544.887 531.835 548.396C581.968 565.441 633.604 583.155 671.037 619.584C695.435 643.314 711.978 673.895 728.188 703.306C734.037 714.001 740.053 725.03 746.403 735.558C776.649 786.359 811.742 815.937 850.344 823.624C878.251 829.138 904.821 841.337 930.556 853.035C942.922 858.716 955.622 864.398 968.323 869.411C1039.51 897.486 1090.48 968.173 1094.49 1043.04H1096.16C1092.32 967.504 1040.85 896.149 968.991 867.908Z" fill="#ECECEC"/>
<path d="M987.875 545.722C934.734 516.478 876.246 511.799 831.628 533.022C808.4 544.051 786.676 566.611 790.185 592.179C793.193 613.903 812.076 627.606 830.291 640.807C846.166 652.338 862.543 664.202 869.227 681.414C874.241 694.115 873.071 708.319 872.068 721.855C871.066 735.39 870.063 749.261 874.742 762.128C880.089 777.001 893.625 790.369 912.509 799.393C923.872 804.908 936.238 808.584 948.103 812.093C953.283 813.597 958.63 815.268 963.978 817.107C1022.13 836.491 1078.95 890.133 1111.03 935.586V932.746C1078.61 887.459 1022.13 834.82 964.479 815.435C959.299 813.764 953.784 812.093 948.604 810.422C936.739 806.913 924.54 803.069 913.344 797.722C894.795 788.865 881.593 775.831 876.413 761.292C871.901 748.759 872.904 735.056 873.906 721.688C874.909 707.818 875.912 693.446 870.899 680.412C864.047 662.698 847.503 650.666 831.461 639.136C812.745 625.6 795.031 612.733 792.023 591.677C788.681 566.945 809.904 545.054 832.464 534.192C876.58 513.303 934.4 517.982 987.039 546.892C1029.82 570.287 1075.61 617.746 1110.87 655.513V653.006C1075.61 615.741 1030.32 568.95 987.875 545.722Z" fill="#ECECEC"/>
<path d="M1012.27 625.433C985.368 609.224 959.299 606.55 942.588 618.247C928.885 627.94 922.034 646.99 923.705 670.552C926.546 713.666 951.111 756.947 990.882 789.199C1021.3 813.764 1059.56 832.48 1111.03 847.687V846.016C1060.07 830.976 1021.96 812.428 991.885 788.03C952.448 756.112 928.217 713.332 925.376 670.72C924.707 659.857 925.042 633.12 943.591 619.918C967.487 603.041 1001.58 621.088 1011.44 627.104C1040.01 644.316 1088.81 710.157 1111.03 745.751V742.242C1087.97 706.146 1040.35 642.478 1012.27 625.433Z" fill="#ECECEC"/>
<path opacity="0.5" d="M1713.09 200.572C1699.96 200.82 1686.76 198.807 1673.96 196.855C1660.08 194.636 1645.68 192.44 1631.34 193.22C1610.31 194.309 1589.81 201.926 1572.87 214.382C1564.69 220.398 1557.24 227.652 1551.1 235.718C1532.04 260.742 1524.98 293.631 1532.16 323.68C1534.91 335.149 1539.73 346.523 1544.4 357.467C1552.51 376.711 1560.38 394.894 1558.16 414.812C1556.24 433.447 1545.56 449.824 1535.37 465.662C1527.47 477.86 1519.4 490.543 1514.95 504.29C1508.76 523.399 1510.9 545.619 1520.76 564.822C1530.53 583.91 1547.05 598.398 1565.87 604.44C1571.72 606.355 1577.97 607.615 1583.94 608.73C1595.76 611.045 1607.95 613.62 1617.38 620.889C1638.06 636.933 1635.79 667.894 1633.98 680.407C1632.76 688.406 1630.83 696.398 1628.92 704.19C1625.65 717.605 1622.4 731.535 1622.53 745.468C1622.65 765.437 1632.52 787.301 1650.79 794.282L1652.06 793.35C1633.89 786.999 1623.98 764.82 1623.84 745.566C1623.69 731.833 1627.02 718.018 1630.09 704.573C1632 696.781 1633.85 688.674 1635.07 680.675C1637.02 667.877 1639.38 636.316 1617.96 619.751C1608.37 612.251 1595.86 609.73 1583.95 607.3C1577.9 606.07 1571.85 604.84 1566.08 603.041C1547.54 597.144 1531.4 582.917 1521.8 564.059C1512.1 545.087 1509.99 523.382 1516.03 504.558C1520.45 491.011 1528.53 478.328 1536.39 466.33C1546.7 450.407 1557.33 433.714 1559.39 414.795C1561.59 394.362 1553.36 375.202 1545.55 356.62C1540.96 345.791 1536.23 334.532 1533.48 323.063C1526.44 293.445 1533.44 260.955 1552.24 236.301C1571.04 211.647 1600.65 195.906 1631.48 194.366C1645.7 193.671 1659.98 195.951 1673.9 197.97C1686.69 199.922 1700.09 201.965 1713.42 201.748C1750.99 200.929 1783.36 181.924 1803.79 166.011C1828.14 147.217 1872.25 99.5146 1899.82 48.1664L1898.89 46.8989C1871.4 98.3624 1827.18 146.149 1802.94 164.859C1782.39 180.857 1750.35 199.808 1713.09 200.572Z" fill="#D9D9D9"/>
<path opacity="0.5" d="M1840.47 162.295C1836.71 164.176 1832.77 165.827 1829.07 167.308C1822.29 170.162 1815.4 173.101 1809.15 177.161C1797.78 184.635 1790.84 195.24 1790.72 205.452C1790.56 221.9 1806.25 233.091 1819.88 237.625C1831.57 241.454 1844.15 242.86 1856.35 244.005C1871.16 245.547 1886.47 247.065 1900.03 253.429C1916.07 260.99 1928.01 274.577 1939.7 287.818C1949.38 298.809 1959.52 310.176 1971.8 318.188C1989.11 329.422 2010.76 333.746 2031.28 330.02C2051.68 326.38 2070.73 314.859 2083.47 298.386L2083.05 297.81L2082.51 297.319C2069.99 313.622 2051.18 324.973 2031.09 328.56C2010.89 332.231 1989.64 327.968 1972.7 316.995C1960.5 309.098 1950.45 297.846 1940.77 286.855C1929.08 273.614 1916.96 259.797 1900.65 252.09C1887 245.611 1871.48 244.062 1856.56 242.606C1844.47 241.376 1831.87 240.17 1820.29 236.256C1807.15 231.898 1792 221.199 1792.15 205.466C1792.21 195.654 1798.97 185.533 1810 178.314C1816.13 174.338 1823.02 171.399 1829.68 168.63C1833.5 167.064 1837.35 165.298 1841.2 163.532C1861.24 153.594 1896.53 103.32 1911.79 64.929L1910.78 63.5462C1895.92 101.283 1860.04 152.696 1840.47 162.295Z" fill="#D9D9D9"/>
<path opacity="0.5" d="M2059.99 367.138C2033.67 379.392 2003.54 380.423 1983.35 369.877C1963.34 359.561 1948.52 342.056 1934.14 324.927C1921.21 309.757 1907.86 294.012 1890.8 283.123C1864.95 266.801 1833.22 263.498 1802.5 260.347C1796.36 259.717 1789.81 259.026 1783.58 258.281C1777.15 257.505 1770.75 256.529 1764.44 255.668C1739.81 252.117 1714.27 248.529 1689.2 252.584C1675.13 254.94 1659.8 260.889 1647.24 270.125C1633.76 280.039 1623.27 293.786 1620.56 310.868C1618.07 326.55 1622.47 341.954 1626.82 357.043C1631.14 372.332 1635.6 388.051 1632.82 403.587C1628.48 427.377 1609.09 444.473 1590.2 461.03C1587.6 463.294 1585 465.558 1582.49 467.938C1569.45 479.658 1540.29 510.508 1551.02 540.791C1556.23 555.602 1570.23 567.148 1592.32 575.224C1597.65 577.162 1603.13 578.816 1608.41 580.439C1620.53 584.129 1632.94 587.966 1643.58 594.703C1665.7 608.615 1680.68 634.532 1687.79 671.732C1690 683.425 1691.54 695.426 1692.95 706.997C1695.11 723.695 1697.32 740.709 1701.58 757.113L1702.84 756.181C1698.65 740.092 1696.6 723.309 1694.58 707.041C1693.09 695.355 1691.66 683.269 1689.45 671.576C1682.2 633.945 1667.05 607.798 1644.56 593.625C1633.64 586.742 1621.11 582.991 1608.91 579.185C1603.63 577.562 1598.15 575.908 1593.02 574C1571.3 566.185 1557.79 554.815 1552.6 540.52C1542.06 510.983 1570.81 480.787 1583.62 469.236C1586.22 466.971 1588.62 464.677 1591.21 462.413C1610.14 445.656 1629.87 428.305 1634.27 404.116C1637.11 388.18 1632.69 372.26 1628.28 356.857C1624.1 341.998 1619.7 326.594 1622.13 311.312C1627.39 278.863 1660.7 258.981 1689.47 254.16C1714.34 250.075 1739.68 253.632 1764.19 257.268C1770.51 258.129 1776.91 259.104 1783.34 259.88C1789.57 260.626 1796 261.402 1802.26 261.947C1832.78 265.067 1864.3 268.34 1889.87 284.516C1906.76 295.174 1920.03 310.805 1932.96 325.974C1947.45 343.018 1962.44 360.754 1982.54 371.185C2003.21 381.908 2033.77 380.737 2060.41 368.43C2080.98 358.983 2096.34 344.137 2104.23 326.618L2103.21 325.235C2095.61 342.9 2080.36 357.661 2059.99 367.138Z" fill="#D9D9D9"/>
<path opacity="0.5" d="M1956.18 415.25C1946.7 404.289 1938.78 391.827 1931.19 379.826C1927.56 374.156 1923.78 368.056 1919.94 362.355C1910.32 348.304 1895.03 328.477 1873.3 318.717C1854.44 310.214 1833.07 310.127 1812.42 310.047C1796.37 309.953 1779.72 309.767 1764.25 305.873C1759.91 304.802 1755.43 303.301 1751.04 301.915C1737.3 297.466 1723.18 292.755 1709.46 297.518C1706.22 298.66 1703.2 300.348 1700.55 302.297C1689.14 310.686 1683.34 325.25 1681.77 336.878C1680.08 349.307 1681.53 361.908 1683.05 374.109C1683.47 378.061 1683.97 382.128 1684.48 386.195C1685.64 399.366 1686.17 418.681 1676.5 433.78C1669.1 445.44 1656.81 452.876 1644.84 460.258C1642.92 461.499 1640.9 462.624 1638.97 463.865C1627.2 471.278 1611.19 483.056 1607.76 500.131C1604.07 518.291 1615.85 535.023 1627.88 544.634C1636.91 551.843 1647.59 556.95 1657.87 561.996C1662.63 564.358 1667.58 566.751 1672.31 569.313C1717.65 594.029 1762.93 661.398 1758.27 715.423L1759.88 714.237C1761.69 689.651 1753.83 661.341 1737.1 633.519C1720.15 605.152 1696.14 580.724 1672.84 567.859C1668.11 565.297 1663.16 562.904 1658.4 560.542C1648.21 555.611 1637.64 550.419 1628.7 543.326C1616.83 533.945 1605.48 517.789 1609.08 500.229C1612.52 483.669 1628.11 472.03 1639.65 464.787C1641.58 463.546 1643.51 462.306 1645.52 461.18C1657.49 453.798 1670.01 446.192 1677.64 434.363C1687.57 418.894 1687.07 399.379 1685.85 385.893C1685.55 381.857 1685.04 377.79 1684.54 373.723C1683.11 361.637 1681.54 349.12 1683.2 336.892C1685.02 322.948 1693.26 304.46 1709.99 298.724C1723.28 294.101 1737.11 298.666 1750.66 303.085C1755.05 304.471 1759.53 305.972 1763.95 307.158C1779.59 311.282 1796.35 311.383 1812.52 311.392C1833.06 311.558 1854.22 311.614 1872.8 319.971C1894.25 329.586 1909.37 349.182 1918.91 363.118C1922.74 368.818 1926.55 374.719 1930.16 380.589C1937.82 392.705 1945.75 405.167 1955.31 416.243C1971.78 435.022 1997.63 452.059 2024.6 461.696C2042.05 468.04 2067.05 473.798 2092.9 469.35L2095.55 467.401C2041.18 478.445 1981.76 444.728 1956.18 415.25Z" fill="#D9D9D9"/>
<path opacity="0.5" d="M1956.66 473.128C1946.75 458.931 1939.53 442.585 1932.61 426.9C1927.12 414.604 1921.49 401.877 1914.68 390.198C1895.5 357.605 1867.61 339.233 1840.05 340.861C1831.89 341.356 1823.97 343.627 1816.17 345.813C1808.68 347.946 1800.8 350.017 1792.92 350.658C1787.86 351.01 1782.68 350.733 1777.62 350.37C1766.55 349.808 1755.09 349.185 1745.51 354.988C1744.82 355.496 1744.04 355.889 1743.46 356.313C1733.67 363.516 1728.37 376.825 1727.38 396.727C1727.33 398.357 1727.29 399.987 1727.16 401.502C1726.46 415.514 1725.77 430.04 1717.55 441.062C1712.68 447.482 1705.66 451.935 1698.95 456.335C1693.97 459.463 1688.96 462.792 1684.66 466.842C1669.28 481.172 1664.7 505.846 1674.28 524.189C1682.74 540.518 1699.5 550.03 1715.72 559.052C1718.65 560.624 1721.47 562.282 1724.28 563.939C1766.08 588.421 1800.11 626.247 1819.89 670.289L1821.04 669.442C1801.09 625.169 1766.97 587.228 1724.98 562.715C1722.16 561.058 1719.23 559.486 1716.42 557.828C1700.39 548.837 1683.8 539.555 1675.6 523.572C1666.44 505.806 1670.7 481.901 1685.71 468.025C1689.89 464.059 1694.99 460.846 1699.77 457.687C1706.67 453.318 1713.73 448.664 1718.71 442.16C1727.31 430.684 1728.02 415.958 1728.64 401.831C1728.69 400.201 1728.73 398.571 1728.86 397.056C1730 376.154 1735.71 362.905 1746.41 356.455C1755.56 350.791 1766.31 351.408 1777.78 352.031C1782.95 352.309 1788.13 352.586 1793.28 352.349C1801.24 351.823 1809.15 349.552 1816.72 347.535C1824.41 345.434 1832.33 343.162 1840.29 342.637C1867.34 341.032 1894.74 359.228 1913.69 391.276C1920.51 402.955 1926.25 415.597 1931.66 427.777C1938.66 443.578 1945.92 459.724 1955.88 474.236C1969.54 494.019 1989 511.31 2015.11 527.262L2016.38 526.33C1989.7 510.086 1970.35 492.71 1956.66 473.128Z" fill="#D9D9D9"/>
<path opacity="0.5" d="M1905.56 464.721C1903.22 455.258 1902.57 445.44 1901.89 435.821C1901.31 426.833 1900.69 417.53 1898.57 408.613C1894.34 390.063 1881.39 371.003 1861.68 370.044C1853.05 369.648 1844.78 372.889 1836.82 376.075C1831.91 378.088 1826.8 380.071 1821.73 381.139C1817.72 381.96 1813.45 382.434 1809.3 382.824C1800.68 383.658 1791.74 384.547 1784.83 389.631C1784.25 390.054 1783.79 390.393 1783.3 390.932C1776.93 396.508 1774.33 404.808 1772.08 412.854C1770.37 418.731 1768.54 424.693 1765.2 429.811C1760.03 437.515 1751.6 442.47 1743.44 447.056C1734.92 451.897 1726.26 457.022 1720.92 465.21C1710.82 481.164 1718 502.516 1730.38 515.249C1739.3 524.487 1750.68 531.031 1761.69 537.315C1766.22 539.846 1770.83 542.493 1775.12 545.194C1806.18 564.969 1838.67 610.848 1853.02 645.57L1854.17 644.723C1839.65 609.77 1807.07 563.776 1775.82 543.971C1771.44 541.154 1766.83 538.507 1762.31 535.976C1751.3 529.693 1740 523.264 1731.24 514.256C1719.23 501.784 1712.13 481.262 1721.95 465.878C1726.94 457.943 1735.57 453.018 1743.88 448.148C1752.2 443.277 1760.83 438.352 1766.14 430.363C1769.59 425.161 1771.45 418.999 1773.28 413.037C1775.76 404.822 1778.07 397.091 1784.09 391.769C1790.93 385.855 1799.86 384.967 1809.31 384.054C1813.47 383.664 1817.93 383.22 1821.95 382.4C1827.13 381.247 1832.36 379.18 1837.27 377.166C1845.43 374.011 1853.18 370.794 1861.5 371.244C1880.29 372.165 1893.12 391.311 1897.02 408.684C1899.06 417.486 1899.6 426.674 1900.17 435.662C1900.85 445.281 1901.47 455.299 1903.9 464.877C1911.45 495.187 1947.75 529.573 1976.69 554.448L1977.84 553.601C1949.35 529.101 1913.06 494.716 1905.56 464.721Z" fill="#D9D9D9"/>
<path opacity="0.5" d="M1807.34 423.858C1805.26 425.383 1803.24 427.224 1801.62 429.125C1794.83 436.785 1790.6 447.702 1789.34 460.707C1787.26 483.716 1794.68 506.844 1809.77 523.979C1819.45 534.97 1831.65 539.491 1844.26 536.606C1859.75 533.033 1873.53 518.459 1878.42 500.482C1887.1 468.352 1879.89 429.806 1849.01 418.244C1835.19 412.964 1818.86 415.384 1807.34 423.858ZM1876.96 499.954C1873.74 511.738 1866.74 522.028 1857.87 528.553C1853.61 531.688 1848.75 534.017 1843.88 535.115C1831.89 537.891 1820.06 533.632 1810.83 523.017C1796.03 506.027 1788.75 483.33 1790.77 460.72C1791.89 448 1796.05 437.483 1802.62 429.993C1813.46 417.937 1832.67 413.398 1848.43 419.382C1878.5 430.823 1885.56 468.423 1876.96 499.954Z" fill="#D9D9D9"/>
</svg>
