<svg width="838" height="938" viewBox="0 0 838 938" fill="none" xmlns="http://www.w3.org/2000/svg">
<g opacity="0.07">
<path d="M125.446 681.377C153.264 674.325 181.059 660.567 207.833 640.22C232.371 621.603 250.2 602.17 262.201 580.81C281.9 545.626 286.106 504.425 290.226 464.607C292.046 447.451 293.819 429.728 296.863 412.772C299.686 397.176 304.237 376.974 315.483 360.239C329.84 338.983 351.894 322.753 382.933 310.502C426.642 293.335 456.942 244.521 453.377 197.027C452.426 184.027 449.095 171.057 445.948 158.676C443.468 149.056 441.054 139.029 439.592 129.156C435.646 101.985 442.314 78.2191 457.313 65.8651C480.852 46.5262 515.193 58.5489 528.875 64.5498C535.523 67.449 542.082 70.8922 548.392 74.1551C564.505 82.3677 581.118 90.941 599.362 92.9387C610.604 94.2133 622.13 92.8816 633.363 91.6416C647.29 90.143 661.67 88.4388 675.343 91.9251C696.385 97.3112 711.437 112.89 727.466 129.327C739.062 141.271 751.021 153.553 765.367 161.477C782.527 170.977 802.156 173.899 821.242 176.732C833.912 178.659 847.149 180.538 859.487 184.505C899.585 197.187 932.737 231.914 945.938 275.116C958.405 315.964 953.176 362.583 931.931 402.96C928.893 408.748 925.425 414.605 921.979 420.326C910.606 439.554 898.849 459.418 899.539 481.731C900.508 512.606 925.129 537.145 944.839 556.695C966.095 577.893 987.616 603.463 985.09 632.651C983.351 653.59 970.201 670.016 956.488 687.327C949.811 695.732 942.955 704.388 937.414 713.537C924.509 735.308 919.482 761.854 922.64 790.434C925.54 816.318 935.262 843.175 950.249 866.004C974.847 903.525 1029.99 961.803 1080.09 990.218L1080.33 988.722C1030.53 960.216 975.727 902.411 951.378 865.071C918.853 815.367 913.865 756.052 938.707 714.167C944.09 705.131 950.947 696.476 957.623 688.07C970.954 671.395 984.667 654.084 986.473 632.737C989.087 603.005 967.361 576.983 945.855 555.604C926.281 536.076 901.751 511.831 900.966 481.544C900.345 459.662 911.943 439.912 923.295 420.819C926.605 415.076 930.209 409.241 933.247 403.454C954.83 362.713 959.99 315.664 947.431 274.521C934.161 230.89 900.645 195.824 860.161 182.939C847.687 178.95 834.586 177.093 821.78 175.144C802.831 172.334 783.201 169.412 766.313 159.956C752.104 152.054 740.28 139.794 728.798 128.008C713.383 112.091 697.354 95.6541 676.039 90.2236C662.094 86.6929 647.601 88.2389 633.515 89.8514C622.419 91.1136 611.05 92.3314 599.945 91.0789C581.995 88.9896 565.496 80.5744 549.518 72.384C543.073 69.099 536.513 65.6558 529.865 62.7566C515.934 56.5753 480.935 44.3057 456.877 64.2581C441.403 76.9536 434.669 101.127 438.662 128.865C440.102 138.874 442.652 148.923 445.132 158.543C448.279 170.924 451.496 183.735 452.447 196.736C455.965 243.664 426.048 291.842 382.927 308.825C351.594 321.169 329.381 337.513 314.844 359.017C303.44 375.867 298.731 396.182 296 412.073C292.933 429.165 291.16 446.887 289.34 464.043C285.243 503.726 281.059 544.791 261.54 579.725C249.698 600.971 232.027 620.29 207.511 638.771C180.917 658.868 153.394 672.671 125.735 679.609C102.715 685.49 79.6563 686.476 58.2117 682.7L57.9899 684.06C78.9378 688.314 102.155 687.213 125.446 681.377Z" fill="black"/>
<path d="M263.436 700.808C314.647 665.038 348.025 615.33 355.143 564.83C358.081 543.389 356.644 521.373 355.211 500.196C354.587 490.321 353.894 480.015 353.565 470.048C352.655 430.247 360.596 401.244 377.834 381.157C389.025 368.182 404.173 359.203 418.687 350.679C426.103 346.304 433.812 341.836 440.931 336.714C485.428 305.295 511.399 249.632 507.356 194.799C506.262 180.1 512.082 159.826 518.013 145.714C524.416 130.422 537.043 119.776 550.202 118.71C559.827 117.906 568.585 121.568 577.842 125.591C583.968 128.266 590.366 130.984 597.008 132.207C605.826 133.785 614.794 132.734 623.467 131.775C631.869 130.771 640.406 129.79 648.702 131.143C671.823 134.913 688.297 155.471 703.231 176.057C717.687 196.147 735.558 220.982 738.217 249.2C740.503 274.566 730.707 297.821 720.395 322.528C713.52 339 706.263 356.107 703.266 373.629C699.514 395.776 701.997 419.079 704.477 441.544C707.989 473.95 711.381 504.522 697.5 532.278C688.838 549.435 674.386 562.716 660.566 575.542C653.498 582.068 646.113 588.823 639.636 596.004C615.783 622.412 599.369 657.992 591.095 701.881C585.533 730.853 584.941 755.889 589.37 778.392C592.253 793.244 597.741 807.542 603.022 821.388C607.252 832.27 611.572 843.447 614.603 854.831C623.763 889.416 610.512 903.032 597.758 916.171C592.228 921.832 586.675 927.628 582.963 934.981C579.633 941.699 576.054 948.236 572.497 954.637C561.759 974.248 551.607 992.838 547.764 1014.69C545.588 1027.18 540.428 1041.7 535.113 1057.17C527.981 1077.79 520.131 1100.24 518.727 1119.98L520.087 1120.2C521.332 1100.58 529.161 1078.26 536.293 1057.64C541.744 1042.19 546.79 1027.52 548.988 1014.89C552.787 993.31 562.917 974.856 573.519 955.222C577.076 948.821 580.655 942.284 583.984 935.567C587.516 928.463 592.889 922.917 598.577 917.143C611.648 903.776 625.101 889.773 615.779 854.465C612.771 842.944 608.451 831.768 604.221 820.886C598.917 807.175 593.43 792.877 590.524 778.161C586.21 755.816 586.757 731.053 592.297 702.217C600.663 658.622 616.782 623.134 640.591 596.998C647.068 589.816 654.453 583.062 661.499 576.671C675.477 563.732 690.087 550.337 698.771 533.044C712.833 505.038 709.299 472.768 705.86 441.63C703.38 419.165 700.874 395.998 704.581 374.123C707.578 356.6 714.814 339.629 721.666 323.294C731.665 299.653 741.955 275.082 739.599 249.286C736.985 220.796 718.886 195.644 704.43 175.555C689.405 154.674 672.703 133.8 649.016 130.077C640.584 128.702 631.774 129.639 623.373 130.642C614.699 131.602 605.868 132.675 597.186 131.119C590.679 129.919 584.417 127.222 578.269 124.684C569.262 120.841 559.868 116.796 549.949 117.692C536.36 118.827 523.259 129.815 516.631 145.628C513.687 152.548 504.46 176.595 505.885 195.257C510.017 249.546 484.112 304.801 440.089 335.879C432.993 340.865 425.42 345.354 418.004 349.73C403.332 358.368 388.184 367.347 376.813 380.571C359.258 400.886 351.251 430.297 352.252 470.393C352.423 480.474 353.139 490.643 353.876 500.676C355.309 521.854 356.904 543.755 353.852 565.039C346.778 615.266 313.625 664.452 262.709 700.131C216.833 732.302 163.432 750.681 111.796 768.51L39.7504 793.342L39.5064 794.838L112.277 769.845C163.865 751.45 217.402 733.093 263.436 700.808Z" fill="black"/>
<path d="M99.3131 923.829C116.898 905.893 129.029 882.879 140.754 860.636L141.542 859.229C159.052 826.341 190.266 799.318 239.703 774.428C251.869 768.314 264.4 762.539 276.614 756.991C303.779 744.526 331.848 731.651 356.753 714.21C398.561 684.726 423.999 645.172 426.285 605.473C427.759 580.163 420.197 555.473 412.909 531.666C411.443 526.959 409.999 522.116 408.532 517.409C401.011 491.609 393.894 458.195 406.39 429.516C417.176 404.467 440.543 387.893 463.255 371.91C487.255 354.88 512.023 337.417 521.577 309.654C527.924 291.282 526.449 271.215 524.977 251.986C524.643 247.184 524.218 242.089 524.042 237.173C522.46 205.779 529.314 183.44 544.494 170.837C561.955 156.231 586.765 157.345 610.81 159.73C637.756 162.309 661.351 165.738 678.826 181.014C706.073 204.865 705.707 249.065 696.104 282.266C692.501 294.942 687.788 307.577 683.163 319.668C675.015 341.378 666.485 363.722 664.346 387.109C662.576 405.67 664.592 424.987 666.561 443.739C669.984 476.689 673.287 507.805 657.682 535C647.325 553.138 630.038 565.817 613.385 578.041C602.764 585.803 591.827 593.793 582.459 603.296C542.637 643.715 536.854 706.58 536.01 750.284C535.773 760.298 535.764 770.628 535.821 780.551C535.788 822.711 535.782 866.413 521.196 906.2C514.418 924.642 514.173 944.987 513.879 964.765C513.639 986.786 513.288 1009.49 503.819 1029.03C498.353 1040.28 490.262 1052.23 481.766 1064.94C471.804 1079.79 461.526 1094.87 455.212 1109.62L456.572 1109.84C462.842 1095.37 472.962 1080.4 482.901 1065.69C491.533 1052.99 499.647 1040.91 505.112 1029.66C514.648 1009.71 515.021 986.872 515.284 964.715C515.555 945.073 515.779 924.864 522.511 906.694C537.278 866.656 537.284 822.955 537.204 780.637C537.146 770.714 537.155 760.383 537.392 750.369C538.214 706.801 543.931 644.345 583.414 604.289C592.624 594.9 603.561 586.91 614.159 579.284C630.971 566.946 648.394 554.289 658.796 535.88C674.603 508.299 671.158 475.484 667.807 443.802C665.816 425.187 663.8 405.87 665.548 387.445C667.8 364.216 676.173 341.985 684.298 320.412C688.945 308.185 693.658 295.55 697.261 282.873C706.817 249.107 707.25 204.498 679.526 180.151C661.823 164.558 637.819 161.063 610.738 158.462C586.421 156.032 561.316 155.01 543.38 169.957C527.862 182.924 520.805 205.649 522.457 237.473C522.769 242.411 523.081 247.349 523.393 252.286C524.864 271.515 526.384 291.31 520.081 309.41C510.594 336.765 485.984 354.114 462.142 371.03C439.408 387.149 415.883 403.837 404.893 429.272C392.331 458.359 399.404 492.045 407.017 518.139C408.347 522.824 409.927 527.689 411.394 532.396C418.681 556.203 426.266 580.757 424.7 605.773C422.345 645.042 397.245 684.232 355.753 713.489C330.985 730.952 302.915 743.827 275.909 756.178C263.695 761.726 251.164 767.501 238.997 773.615C189.245 798.732 157.873 825.869 140.182 859.007L139.394 860.414C127.691 882.521 115.583 905.399 98.1555 923.222C75.5364 946.341 44.2058 959.522 12.398 959.362L12.1762 960.722C44.5945 960.563 76.3554 947.312 99.3131 923.829Z" fill="black"/>
<path d="M604.801 539.92C620.669 523.1 629.618 497.333 630.639 465.386C631.066 451.633 630.27 437.681 629.385 424.272C628.547 411.43 627.775 398.179 628.07 385.243C629.061 344.914 642.849 310.022 657.536 273.044L657.58 272.772C663.712 257.436 674.024 219.883 638.666 202.11C623.551 194.619 604.955 195.635 591.032 204.814C567.865 220.164 562.245 252.059 559.968 274.586C559.704 277.056 559.419 279.663 559.292 282.155C557.087 305.95 554.727 330.697 540.542 349.188C532.04 360.228 520.015 368.041 508.328 375.49C505.503 377.403 502.406 379.271 499.581 381.184C479.985 394.324 467.684 407.258 460.939 422.075C458.758 426.885 457.235 431.943 456.415 436.975C453.997 451.8 457.583 466.626 466.498 476.178C470.887 480.943 476.336 484.344 481.785 487.746C485.962 490.382 490.254 493.176 494.049 496.448C501.844 503.444 507.133 512.963 512.308 522.324C517.917 532.453 523.639 542.741 532.658 549.937C554.785 567.507 587.263 558.422 604.801 539.92ZM533.538 548.823C524.769 541.808 519.046 531.521 513.552 521.549C508.376 512.188 502.973 502.511 495.064 495.357C491.292 491.949 486.864 489.133 482.55 486.475C477.373 483.117 471.924 479.716 467.649 475.109C456.142 462.621 453.937 441.039 462.391 422.591C469.091 408.046 481.234 395.226 500.514 382.313C503.339 380.401 506.3 378.51 509.261 376.619C520.97 369.034 533.131 361.244 541.791 350.09C551.015 338.051 555.336 323.536 557.798 308.44C559.195 299.871 560.071 291.078 560.81 282.263C561.073 279.793 561.223 277.164 561.486 274.694C563.741 252.303 569.272 220.952 591.987 205.808C605.458 196.834 623.624 195.887 638.216 203.154C672.553 220.342 662.374 257.078 656.445 272.028L656.401 272.3C641.692 309.415 627.746 344.42 626.71 385.021C626.393 398.094 627.164 411.344 628.002 424.186C628.887 437.595 629.684 451.547 629.278 465.164C628.166 496.817 619.419 522.198 603.732 538.768C586.669 556.929 555.052 565.875 533.538 548.823Z" fill="black"/>
<path d="M607.212 490.887C611.581 476.939 610.554 461.832 609.416 447.405C609.271 444.868 609.012 442.173 608.868 439.636C606.849 406.635 610.132 373.661 618.583 341.53L619.007 339.784C621.534 330.283 624.105 320.509 621.58 311.162C619.997 305.458 613.765 298.299 607.053 296.646C603.153 295.731 599.781 296.717 597.095 299.49C593.529 303.376 592.176 311.673 590.868 319.697C590.047 324.729 589.271 329.489 588.059 332.643C579.053 355.329 562.875 374.053 542.616 385.27C539.089 387.208 535.312 388.966 531.806 390.768C526.039 393.597 520 396.382 514.508 400.094C504.925 406.629 498.749 415.396 497.307 424.236C497.196 424.916 497.063 425.732 497.088 426.434C496.222 437.742 502.985 447.641 508.626 454.146C511.582 457.421 514.719 460.445 517.856 463.47C521.834 467.33 526.085 471.235 529.544 475.708C533.139 480.204 536.215 485.313 539.019 490.378C541.093 493.927 543.281 497.635 545.513 501.071C552.504 511.286 560.432 517.466 568.956 519.135C586.14 522.496 602.058 507.08 607.212 490.887ZM569.336 517.661C561.22 516.059 553.52 510.195 546.779 500.16C544.411 496.702 542.337 493.153 540.263 489.603C537.3 484.652 534.382 479.429 530.673 474.775C527.078 470.28 522.85 466.239 518.872 462.379C515.713 459.49 512.576 456.466 509.755 453.213C504.206 447.003 497.693 437.284 498.47 426.52C499.14 417.275 505.248 408.078 515.305 401.201C520.661 397.467 526.564 394.66 532.309 391.967C535.95 390.187 539.727 388.429 543.255 386.491C563.83 375.046 580.189 356.073 589.238 333.114C590.451 329.961 591.16 325.609 591.937 320.849C591.981 320.577 592.047 320.169 592.092 319.897C593.312 312.416 594.687 303.984 598.05 300.483C600.42 297.938 603.34 297.157 606.695 297.984C612.863 299.548 618.754 306.233 620.132 311.484C622.701 320.56 620.016 330.175 617.533 339.404L617.109 341.15C608.522 373.259 605.195 406.505 607.327 439.664C607.472 442.201 607.731 444.896 607.875 447.433C608.877 461.838 610.085 476.695 605.76 490.371C600.967 506.065 585.682 521.025 569.336 517.661Z" fill="black"/>
<path d="M957.649 1135.7C955.398 1133.24 953.283 1130.8 951.031 1128.34C936.431 1112.56 921.377 1096.14 916.524 1075.38C909.21 1044.03 924.325 1012.99 933.876 997.232C947.796 974.37 949.203 942.625 937.648 909.884C930.691 890.041 920.002 871.682 909.654 853.799C905.301 846.247 900.855 838.402 896.66 830.736C885.532 809.933 871.126 778.403 874.343 745.837C876.182 727.706 883.326 710.441 890.223 693.834C894.357 683.896 898.535 673.687 901.761 663.323C912.085 629.123 910.596 592.02 897.566 558.899C894.229 550.257 890.03 541.753 885.924 533.544C876.889 515.316 867.648 496.635 867.078 476.158C866.464 455.952 874.642 436.621 882.416 418.062C885.179 411.392 888.123 404.472 890.636 397.622C902.662 364.119 904.443 329.224 895.933 299.214C886.209 265.515 863.028 238.139 834.032 225.871C816.925 218.613 795.043 219.233 786.147 234.398C781.913 241.526 781.784 250.022 781.722 258.11C781.601 262.279 781.615 266.47 780.95 270.55C779.315 282.291 773.122 292.87 767.153 302.927C764.451 307.513 761.748 312.098 759.432 316.887C739.322 358.007 747.625 406.414 754.91 449.07C762.613 494.307 768.442 541.612 747.416 579.791C736.745 598.994 719.967 614.549 703.708 629.49C683.339 648.229 662.293 667.695 653.891 694.389C646.027 719.495 651.083 746.709 656.919 770C658.022 774.368 659.261 778.759 660.363 783.128C665.643 802.977 671.221 823.574 671.044 844.349C670.736 872.781 657.843 897.905 638.305 908.123C606.533 924.863 583.902 957.474 572.62 1002.69C570.989 1009.26 569.608 1016.02 568.477 1022.95C563.176 1055.46 563.236 1091.91 568.822 1127.87L570.182 1128.09C563.345 1084.39 564.73 1039.94 573.844 1002.89C584.924 958.059 607.375 925.698 638.829 909.186C658.842 898.627 672.074 873.139 672.335 844.14C672.556 823.093 666.978 802.497 661.72 782.511C660.482 778.12 659.379 773.752 658.276 769.383C652.396 746.364 647.431 719.445 655.251 694.611C663.472 668.167 684.474 648.973 704.685 630.348C720.966 615.271 737.88 599.738 748.596 580.263C769.846 541.562 764.061 493.985 756.245 448.59C748.938 406.07 740.727 357.957 760.634 317.222C762.928 312.57 765.653 307.848 768.355 303.262C774.368 292.933 780.561 282.355 782.241 270.342C782.77 266.24 782.914 261.935 783.035 257.766C783.142 249.406 783.318 241.476 787.213 234.711C795.704 220.318 816.862 219.859 833.333 226.734C862.079 238.822 884.896 265.859 894.528 299.264C903.082 329.002 901.21 363.603 889.365 396.856C886.851 403.707 884.066 410.513 881.303 417.183C873.485 436.014 865.306 455.344 865.854 475.958C866.38 496.708 875.734 515.547 884.883 533.933C888.99 542.142 893.188 550.646 896.548 559.152C909.485 591.979 910.883 628.788 900.739 662.737C897.649 673.124 893.335 683.311 889.36 693.134C882.44 709.878 875.275 727.279 873.413 745.545C870.13 778.519 884.627 810.344 895.869 831.306C900.042 839.107 904.488 846.952 908.841 854.504C919.075 872.229 929.742 890.724 936.721 910.431C948.071 942.72 946.73 974.056 933.012 996.532C923.304 1012.4 907.986 1043.83 915.505 1075.64C920.427 1096.82 935.618 1113.26 950.332 1129.21C952.583 1131.67 954.835 1134.13 956.95 1136.57C976.577 1158.34 985.843 1177.72 985.136 1195.76L986.496 1195.98C986.998 1177.49 977.504 1157.79 957.649 1135.7Z" fill="black"/>
<path d="M892.608 1155.26C876.301 1137.1 860.927 1120.07 856.315 1096.98C852.373 1077.49 860.052 1057.8 867.506 1038.63C872.02 1027.22 876.6 1015.4 878.666 1003.59C889.604 944.216 896.691 891.338 874.531 844.86C870.993 837.442 866.687 830.456 862.653 823.516C857.047 814.224 851.214 804.616 847.326 794.209C832.967 756.403 844.552 713.613 857.573 673.151C869.495 636.001 884.422 589.847 868.491 549.69C865.336 541.636 860.983 534.085 856.857 526.85C852.618 519.456 848.15 511.747 845.018 503.557C836.695 481.815 836.355 455.65 844.208 421.187C846.128 412.843 848.341 404.408 850.51 396.245C855.361 377.628 860.436 358.49 862.09 338.933C863.61 320.192 859.552 306.546 850.375 299.464C842.675 293.601 831.411 292.462 820.823 296.6C795.168 306.658 786.284 338.02 781.085 367.331C775.373 398.932 769.62 431.643 772.249 464.324C773.41 478.615 776.36 493.059 779.127 506.914C780.994 516.014 782.816 525.387 784.231 534.693C788.5 563.314 786.722 586.201 778.563 604.558C772.134 619.147 761.326 631.486 751.014 643.348C744.335 650.916 737.611 658.755 731.751 667.294C703.826 708.396 701.862 762.39 704.084 814.692C704.232 818.067 704.38 821.442 704.528 824.817C706.552 872.339 708.74 921.424 689.43 964.491L688.373 966.692C681.157 982.689 673.83 999.365 661.114 1010.56C655.897 1015.15 650.316 1019.41 645.03 1023.57C636.421 1030.13 627.474 1037.04 620.004 1045.18C610.999 1055.02 603.994 1073.15 600.8 1092.73C598.605 1106.2 598.224 1120.52 600.217 1133.13L601.713 1133.37C596.781 1102.83 606.199 1062.2 620.981 1046.04C628.315 1037.88 637.24 1031.1 645.713 1024.52C651.135 1020.38 656.716 1016.12 661.933 1011.53C674.829 1000.09 682.292 983.432 689.553 967.163L690.61 964.962C709.964 921.624 707.82 872.267 705.818 824.608C705.67 821.233 705.523 817.858 705.353 814.619C703.222 762.611 705.005 708.868 732.886 668.037C738.588 659.612 745.448 651.795 751.991 644.206C762.461 632.23 773.134 619.869 779.742 605.029C787.946 586.401 789.882 563.4 785.544 534.349C784.129 525.043 782.193 515.512 780.462 506.433C777.695 492.578 774.858 478.293 773.562 463.98C770.911 431.434 776.642 398.859 782.354 367.259C787.508 338.22 796.167 307.379 821.234 297.505C831.37 293.573 842.089 294.622 849.404 300.283C860.557 308.944 861.704 325.885 860.616 338.553C859.007 357.838 854.045 377.134 849.08 395.593C846.911 403.756 844.698 412.191 842.779 420.535C834.881 455.27 835.177 481.707 843.591 503.743C846.724 511.933 851.191 519.643 855.408 527.172C859.534 534.407 863.888 541.958 866.928 549.854C882.632 589.694 867.749 635.577 855.872 672.455C842.806 713.189 831.199 756.115 845.628 794.351C849.652 804.78 855.463 814.524 861.068 823.816C865.125 830.621 869.409 837.742 872.968 845.024C895.037 891.208 887.836 943.928 877.1 1002.91C874.921 1014.57 870.341 1026.38 865.985 1037.68C858.509 1056.99 850.785 1076.95 854.683 1096.71C859.387 1120.1 875.58 1138.1 891.295 1155.6C899.324 1164.59 907.602 1173.76 914.366 1183.66L916.27 1183.97C909.507 1174.07 901 1164.58 892.608 1155.26Z" fill="black"/>
</g>
</svg>
