<svg width="1900" height="1000" viewBox="0 0 1900 1000" fill="none" xmlns="http://www.w3.org/2000/svg">
<g opacity="0.1">
<path d="M1523.32 1742.36C1517.24 1740.3 1510.97 1738.55 1505.02 1736.99C1490.57 1733.22 1476.68 1729.56 1466.26 1719.18C1432.73 1685.48 1398.3 1650.44 1355.73 1626.28C1308.48 1599.41 1257.05 1591.33 1214.35 1604.08C1193.1 1610.31 1173.72 1621.56 1154.58 1632.75C1130.19 1646.92 1105.06 1661.3 1076.96 1664.61C1001.85 1673.41 947.37 1601.84 927.397 1570.57C869.383 1479.93 844.957 1371.07 858.157 1263.98C859.065 1255.57 860.465 1247.03 861.685 1238.8C864.449 1219.61 867.573 1199.8 867.615 1180.29C867.784 1157.33 863.598 1124.98 842.699 1101.07C825.445 1080.93 793.049 1067.21 764.555 1079.85C731.341 1094.55 721.717 1135.34 723.77 1165.61C724.64 1180.66 727.855 1195.61 730.692 1210.13C734.254 1227.36 737.768 1245.39 737.822 1263.29C737.961 1297.24 725.672 1330.05 713.611 1361.73C709.884 1371.43 706.224 1381.37 702.809 1391.24C676.392 1468.67 671.246 1551.73 687.834 1631.34C690.06 1642.6 692.779 1653.73 695.743 1664.79C705.413 1703.83 715.233 1744.41 706.329 1783.95C703.002 1799.07 696.642 1813.68 690.708 1827.92C683.4 1844.9 675.978 1862.43 673.263 1880.81C666.106 1928.84 690.08 1974.06 718.136 2019.76L720.595 2019.11C692.538 1973.4 668.631 1928.43 675.739 1881.2C678.52 1863.07 685.942 1845.53 693.07 1828.87C699.25 1814.56 705.298 1799.77 708.871 1784.58C717.955 1744.73 708.069 1703.91 698.267 1664.38C695.615 1653.49 692.83 1642.12 690.424 1631.17C673.967 1552.05 679.18 1469.24 705.237 1392.43C708.652 1382.56 712.312 1372.62 715.858 1363.24C727.854 1331.31 740.323 1298.19 740.118 1263.99C739.998 1245.84 736.484 1227.81 732.857 1210.34C730.02 1195.82 726.871 1181.12 726 1166.07C724.145 1136.53 733.295 1096.93 765.345 1082.8C792.676 1070.74 823.891 1083.98 840.636 1103.21C860.911 1126.76 864.9 1158.36 864.845 1180.77C864.803 1200.28 861.859 1219.78 858.849 1239.03C857.629 1247.26 856.229 1255.8 855.321 1264.22C841.941 1371.61 866.811 1481.15 924.956 1572.28C945.307 1603.98 1000.3 1676.46 1076.95 1667.51C1105.53 1664.07 1130.85 1649.38 1155.49 1635.14C1174.44 1624.26 1193.82 1613.01 1214.59 1606.92C1256.54 1594.36 1307.24 1602.64 1353.87 1629.15C1396.13 1653.13 1430.48 1687.93 1463.77 1721.69C1474.64 1732.75 1488.77 1736.33 1503.53 1740.28C1509.49 1741.85 1515.68 1743.35 1521.52 1745.48C1544.5 1753.55 1563.04 1761.76 1578.5 1774.21C1583.19 1777.96 1587.46 1782.09 1590.99 1786.41L1593.69 1785.69C1589.78 1780.94 1585.14 1776.39 1580.13 1772.46C1565.15 1758.82 1546.37 1750.68 1523.32 1742.36Z" fill="white"/>
<path d="M-48.1671 1239.66C-19.6019 1231.21 10.8172 1237.55 36.9912 1244.77C42.3867 1246.22 47.5363 1247.74 52.9977 1249.44C75.3347 1256.1 98.4751 1262.81 122.067 1263.34C148.561 1263.88 182.487 1254.79 198.635 1227.54C208.599 1210.64 210.195 1188.08 202.498 1167.22C196.28 1149.92 184.522 1133.57 166.78 1117.51C115.755 1071.63 38.1509 1049.48 -41.3342 1058.65C-109.296 1066.59 -226.268 1122.7 -294.024 1164.83L-293.365 1167.29C-224.691 1124.65 -106.358 1068.7 -40.9213 1061.18C37.5146 1052.02 114.742 1073.75 165.143 1119.26C182.573 1135.14 194.199 1151 200.351 1168.06C207.605 1188.25 206.303 1209.94 196.699 1226.21C181.09 1252.53 148.082 1261.11 122.392 1260.62C99.0456 1260.02 76.151 1253.25 53.8798 1246.83C48.4844 1245.38 43.2689 1243.61 37.8734 1242.16C11.3877 1234.76 -19.2772 1228.49 -48.58 1237.13C-75.1785 1245.05 -100.098 1272.01 -126.656 1300.74C-157.699 1334.35 -192.509 1371.61 -235.153 1383.56L-234.494 1386.02C-191.113 1373.87 -156.123 1336.3 -124.899 1302.37C-98.768 1274.03 -74.0281 1247.38 -48.1671 1239.66Z" fill="white"/>
<path d="M-38.8591 1304.88C6.35709 1291.71 53.9941 1301.34 99.9586 1310.63C134.215 1317.52 169.586 1324.65 204.372 1322.7C279.929 1318.53 352.478 1267.74 380.823 1198.48C390.075 1175.98 392.888 1155.99 388.834 1138.9C384.087 1117.25 367.131 1100.18 348.126 1097.11C335.746 1095.16 323.52 1098.7 311.54 1102.17C306.623 1103.49 301.527 1105.12 296.544 1106.19C263.321 1112.98 225.75 1103.55 181.29 1077.26C172.185 1071.79 162.948 1065.84 154.088 1060.31C129.002 1044.37 103.161 1027.58 74.4274 1018.68C22.9134 1002.44 -31.7505 1011.82 -73.692 1021.48C-124.304 1033.19 -220.007 1080.18 -300.48 1140.74L-299.755 1143.44C-220.2 1083.39 -122.416 1035.32 -73.0333 1023.94C-31.4035 1014.1 22.8346 1005.1 73.7252 1020.97C102.213 1029.94 127.988 1046.48 152.828 1062.49C161.754 1068.26 170.925 1073.97 180.03 1079.44C224.868 1106.16 263.242 1115.64 296.957 1108.71C301.94 1107.64 307.102 1106.26 312.199 1104.63C323.933 1101.22 335.913 1097.75 347.736 1099.58C365.871 1102.37 381.826 1118.64 386.556 1139.24C390.232 1155.91 387.534 1175.34 378.641 1197.22C350.525 1265.36 278.958 1315.89 204.385 1319.8C169.844 1321.68 134.719 1314.49 100.463 1307.6C54.187 1298.13 6.30412 1288.56 -39.4038 1301.86C-69.1982 1310.64 -97.7845 1328.84 -124.425 1356.26C-145.351 1378.47 -185.085 1423.9 -212.805 1467.95L-211.882 1471.39C-184.295 1426.85 -143.709 1380.66 -122.471 1358.64C-96.2565 1331.59 -67.916 1313.45 -38.8591 1304.88Z" fill="white"/>
<path d="M-137.691 956.682C-130.232 956.001 -122.642 955.811 -115.543 955.753C-102.461 955.41 -89.133 955 -76.1519 952.313C-52.4681 947.284 -34.1058 934.196 -27.2895 917.351C-16.387 890.188 -35.1437 861.488 -54.8036 845.15C-71.7064 831.235 -91.6381 820.767 -111.126 810.97C-134.667 798.833 -159.076 786.403 -177.428 767.08C-199.113 744.17 -210.117 713.919 -220.923 684.406C-229.855 659.923 -239.295 634.523 -254.469 613.295C-275.899 583.466 -308.976 562.291 -345.396 555.187C-381.571 548.017 -420.597 554.785 -452.38 573.841L-452.05 575.07L-451.475 576.233C-420.184 557.309 -381.649 550.673 -346.032 557.729C-310.17 564.719 -277.717 585.534 -256.73 614.691C-241.622 635.674 -232.247 660.828 -223.316 685.31C-212.509 714.824 -201.373 745.566 -179.312 768.902C-160.894 788.471 -136.172 801.081 -112.386 813.152C-93.1437 823.014 -73.0321 833.171 -56.3751 847.152C-37.4044 862.884 -19.2229 890.421 -29.6514 916.403C-36.1077 932.624 -53.8643 945.023 -76.8106 949.854C-89.5459 952.476 -102.874 952.886 -115.71 953.163C-123.055 953.287 -130.579 953.722 -138.104 954.157C-177.741 957.664 -268.772 1018.15 -318.924 1071.9L-318.133 1074.85C-269.079 1021.92 -176.345 959.925 -137.691 956.682Z" fill="white"/>
<path d="M1881.94 25.8483L1881.23 25.8942C1797.15 35.1075 1710.04 44.8467 1624.47 31.7394C1604.72 28.7825 1585.2 27.7883 1575.53 41.3789C1566.43 54.3834 1573.87 73.5183 1586.48 83.3093C1588.51 84.9367 1590.46 86.294 1592.69 87.579C1602.1 93.0156 1612.83 95.7851 1623.29 98.6271C1625.47 99.2008 1627.65 99.7744 1629.83 100.348C1665.98 110.489 1700.59 128.421 1729.64 152.041C1734.04 155.494 1738.41 159.387 1742.54 162.912C1756.61 174.917 1770.93 187.29 1788.21 194.527C1808.69 202.931 1834.14 203.927 1863.77 197.291C1882.62 193.108 1901.16 186.693 1918.99 180.323C1935.91 174.342 1953.37 168.216 1971.07 164.052C1996.23 158.034 2043.88 152.214 2078.77 178.754C2099.35 194.515 2111.21 218.255 2122.76 241.356C2131.14 258.067 2139.77 275.148 2151.48 289.667C2187.89 333.746 2256.85 349.133 2315.43 326.345C2360.87 308.524 2399.42 269.83 2423.48 218.664L2421.77 217.676C2398.18 268.427 2359.73 306.95 2314.83 324.626C2257.05 347.197 2189.05 332.133 2153.22 288.62C2141.42 274.272 2132.96 257.291 2124.75 240.678C2113.03 217.478 2101.1 193.468 2080.18 177.51C2044.52 150.305 1996.34 156.269 1970.91 162.36C1953.04 166.424 1935.48 172.722 1918.56 178.703C1900.73 185.072 1882.18 191.488 1863.6 195.598C1834.52 202.089 1809.51 201.12 1789.19 192.815C1772.16 185.947 1757.84 173.574 1743.94 161.668C1739.65 158.044 1735.44 154.249 1731.05 150.797C1701.65 126.979 1666.87 108.948 1630.55 98.7085C1628.37 98.1348 1626.19 97.5611 1624.01 96.9873C1611.37 93.5717 1598.12 90.0308 1587.71 81.9662C1575.86 72.8406 1568.88 54.8848 1577.22 42.8087C1586.13 30.1465 1605.03 31.0153 1624.17 33.8469C1710.08 47.1519 1797.19 37.4127 1881.37 28.0282L1882.08 27.9823C1915.89 23.9888 1989.7 15.9313 2012.17 -19.0335L2010.46 -20.0219C1988.49 14.0868 1915.38 22.0984 1881.94 25.8483Z" fill="white"/>
<path d="M1962.72 74.5385C1943.02 76.6332 1922.59 76.0273 1902.88 75.3756C1882.9 74.7962 1862.3 74.0915 1842.16 76.1596C1832.72 77.0984 1821.63 78.9126 1812.43 84.5605C1802.6 90.5243 1796.42 100.428 1796.72 110.188C1797 120.39 1804.02 128.783 1812.92 133.923C1817.37 136.493 1822.32 138.207 1827.15 138.94C1841.46 141.039 1855.43 137.006 1868.96 132.947L1870.41 132.414C1911.07 120.506 1972.02 105.476 2032.94 113.03C2092.37 120.406 2144.45 150.014 2172.29 192.338C2176.43 198.609 2180.27 205.394 2183.87 211.81C2193.48 228.773 2203.41 246.374 2219.86 257.015C2252.36 277.831 2296.64 261.624 2317.46 233.469C2329.99 216.507 2337.2 195.328 2339.18 169.762L2337.29 168.675C2335.42 194.07 2328.38 215.347 2315.85 232.309C2295.99 259.193 2254.48 274.947 2223.15 256.858C2222.29 256.364 2221.61 255.969 2220.75 255.475C2204.64 245.03 2194.79 227.699 2185.42 211.106C2181.65 204.591 2177.8 197.806 2173.76 191.364C2145.68 148.671 2092.92 118.667 2033.05 111.265C1971.95 103.612 1910.56 118.616 1869.8 130.694L1868.35 131.227C1854.92 135.116 1841.12 139.247 1827.25 137.175C1813.55 135.201 1799.13 124.593 1798.66 110.393C1798.4 101.344 1803.91 92.1976 1813.38 86.4774C1822.21 81.073 1833.03 79.3312 1842.3 78.2935C1862.27 76.1265 1882.87 76.8313 1902.85 77.4106C1922.56 78.0624 1942.98 78.6683 1962.85 76.6725C1996.81 73.2191 2045.95 45.4351 2068.4 13.6579L2066.69 12.6695C2044.63 43.7618 1996.13 71.2299 1962.72 74.5385Z" fill="white"/>
<path d="M1635.93 1406.41C1640.6 1365.5 1636.26 1321.22 1622.56 1274.96C1610.05 1232.58 1593.03 1198.79 1570.47 1171.84C1533.28 1127.54 1480.14 1100.97 1428.8 1075.21C1406.71 1064.05 1383.84 1052.67 1362.63 1039.98C1343.14 1028.27 1318.35 1011.9 1301.61 988.308C1280.39 958.249 1269.81 920.415 1269.14 872.547C1268.32 805.185 1218.22 739.736 1152.69 720.392C1134.76 715.064 1115.67 712.944 1097.46 710.877C1083.29 709.318 1068.61 707.462 1054.62 704.409C1016.16 695.9 987.667 674.882 978.712 648.482C964.723 607.077 998.298 567.111 1013.3 551.803C1020.57 544.356 1028.52 537.305 1036.1 530.498C1055.31 513.051 1075.25 495.117 1087.19 471.654C1094.62 457.22 1098.68 441.079 1102.73 425.379C1107.79 405.932 1112.81 385.774 1124.43 369.2C1142.35 343.705 1170.9 331.424 1201.09 318.269C1223.01 308.779 1245.56 298.973 1263.48 283.751C1284.94 265.554 1298.83 240.703 1312.33 216.536C1321.35 200.515 1330.6 183.711 1342.19 169.172C1379.57 121.817 1443 94.9798 1507.67 99.2156C1568.81 103.24 1628.7 133.937 1672.08 182.951C1678.3 189.967 1684.39 197.596 1690.32 205.125C1710.34 230.152 1731.02 256.016 1761.3 266.425C1803.22 280.809 1848.65 260.242 1884.89 243.729C1924.13 225.979 1969.37 210.095 2007.25 228.311C2034.46 241.281 2049.81 267.268 2066.07 294.461C2073.96 307.688 2082.09 321.284 2091.55 333.366C2114.2 361.739 2147.26 381.969 2187.21 392.25C2223.41 401.508 2264.38 402.107 2302.63 393.597C2365.46 379.655 2471.66 335.279 2535.23 282.499L2533.35 281.412C2469.81 333.751 2364.41 377.909 2301.95 391.608C2218.74 409.996 2136.63 386.556 2093.05 331.95C2083.66 320.139 2075.53 306.542 2067.65 293.315C2052.05 266.959 2035.79 239.767 2008.06 226.5C1969.5 207.889 1923.55 223.819 1883.94 241.812C1847.8 258.154 1802.81 278.747 1761.78 264.416C1732.11 254.132 1711.5 228.539 1691.65 203.611C1685.63 196.252 1679.63 188.453 1673.41 181.436C1629.71 131.783 1569.21 100.961 1507.63 96.9104C1442.35 92.5493 1378.28 119.703 1340.43 167.473C1328.74 182.182 1319.59 198.816 1310.47 215.008C1297.07 239.003 1283.18 263.855 1261.92 281.709C1244.1 296.759 1221.64 306.394 1200 315.812C1170.81 328.408 1140.62 341.564 1122.5 367.402C1110.68 384.318 1105.39 404.548 1100.4 424.265C1096.46 439.794 1092.32 455.665 1085 469.928C1073.07 492.949 1053.4 510.811 1034.3 528.087C1026.62 535.065 1018.66 542.117 1011.4 549.563C996.027 565.114 961.786 605.838 976.334 648.251C985.507 675.461 1014.52 696.776 1053.76 705.508C1067.92 708.661 1082.7 710.345 1096.87 711.904C1115.08 713.971 1133.9 716.164 1151.82 721.491C1216.57 740.611 1266.01 805.223 1266.89 871.703C1267.54 920.012 1278.18 958.116 1299.65 988.544C1316.46 1012.4 1341.32 1029.04 1361.26 1040.78C1382.63 1053.58 1405.51 1064.96 1427.6 1076.11C1478.76 1101.77 1531.73 1128.24 1568.68 1172.18C1591.17 1198.86 1608.11 1232.38 1620.45 1274.66C1633.91 1320.55 1638.45 1364.49 1633.7 1405.12C1629.9 1438.99 1619.51 1470.43 1603.55 1497.28L1605.26 1498.27C1621.61 1472.33 1631.93 1440.62 1635.93 1406.41Z" fill="white"/>
<path d="M1732.1 1231.14C1710.12 1144.26 1660.38 1074.23 1596.25 1039.03C1568.97 1024.19 1538.71 1014.94 1509.57 1006.1C1496 1001.92 1481.82 997.619 1468.28 992.997C1414.42 973.999 1379.54 948.612 1361.35 915.281C1349.63 893.675 1345.27 868.791 1341.21 844.988C1339.11 832.816 1337.03 820.203 1333.77 808.051C1314.22 732.39 1252.74 669.269 1177.12 646.839C1156.84 640.84 1132.6 622.733 1116.68 607.607C1099.41 591.248 1091.54 568.899 1096.8 550.703C1100.61 537.381 1109.97 527.492 1120.07 517.115C1126.77 510.255 1133.67 503.052 1138.68 494.761C1145.28 483.732 1148.43 471.167 1151.54 459.043C1154.47 447.261 1157.49 435.309 1163.52 424.865C1180.32 395.76 1216.27 384.101 1251.48 374.523C1285.77 365.333 1328.17 353.973 1367.38 364.74C1402.57 374.558 1428.8 399.515 1456.71 425.901C1475.31 443.491 1494.58 461.919 1516.57 474.841C1544.37 491.124 1576.9 499.631 1608.3 507.715C1653.56 519.466 1696.3 530.446 1726.49 563.168C1745.11 583.505 1755.58 609.642 1765.77 634.699C1770.94 647.497 1776.25 660.836 1782.59 673.174C1805.91 718.592 1845.3 758.687 1899.98 792.083C1936.03 814.263 1969.32 827.775 2001.76 833.265C2023.15 836.941 2045.12 836.842 2066.38 836.79C2083.13 836.644 2100.32 836.524 2117.13 838.242C2168.18 843.52 2179.72 868.215 2190.87 892.001C2195.66 902.297 2200.61 912.691 2208.59 921.407C2215.91 929.286 2222.86 937.409 2229.65 945.433C2250.5 969.802 2270.29 992.866 2297.65 1009.12C2313.3 1018.39 2330.16 1032.68 2348.21 1047.67C2372.25 1067.72 2398.39 1089.66 2424.16 1101.57L2425.15 1099.85C2399.45 1088.21 2373.49 1066.37 2349.45 1046.33C2331.49 1031.17 2314.37 1016.95 2298.54 1007.58C2271.52 991.523 2251.91 968.557 2230.95 944.36C2224.17 936.336 2217.22 928.213 2209.9 920.334C2202.16 911.987 2197.45 901.961 2192.59 891.396C2181.3 867.07 2169.34 841.907 2117.24 836.477C2100.25 834.66 2083.06 834.78 2066.31 834.926C2045.23 835.077 2023.25 835.176 2002.03 831.599C1969.86 826.037 1936.92 812.722 1901.04 790.641C1846.81 757.272 1807.38 717.618 1784.41 672.397C1778.07 660.059 1772.75 646.721 1767.76 634.021C1757.5 608.695 1746.95 582.288 1728.16 561.852C1697.73 528.76 1652.64 517.108 1609.12 505.904C1577.72 497.82 1545.36 489.412 1517.9 473.327C1495.91 460.405 1476.82 442.076 1458.38 424.584C1431.74 399.16 1404 372.873 1368.2 362.929C1328.65 351.964 1285.71 363.469 1251.41 372.659C1215.76 382.211 1179.27 394.014 1162.24 423.903C1156.12 434.518 1152.9 446.813 1149.98 458.594C1146.86 470.718 1143.81 483.112 1137.31 493.971C1132.4 502.09 1125.6 509.122 1119.07 516.081C1109.34 526.214 1099.14 536.761 1095.3 550.525C1089.92 569.333 1098.01 592.492 1115.86 609.418C1123.65 616.882 1151.22 641.477 1176.98 649.046C1251.92 671.08 1312.89 733.905 1332.23 808.755C1335.31 820.808 1337.49 833.25 1339.59 845.422C1343.73 869.495 1348.08 894.379 1360.04 916.354C1378.38 950.225 1413.77 975.909 1468.08 994.934C1481.69 999.825 1495.7 1004.03 1509.53 1008.14C1538.67 1016.97 1568.87 1025.96 1595.87 1040.87C1659.67 1075.87 1708.82 1145.34 1730.82 1231.77C1750.68 1309.67 1748.21 1390.65 1745.9 1468.98L1742.61 1578.26L1744.5 1579.34L1747.93 1469.02C1749.46 1390.46 1752.03 1309.31 1732.1 1231.14Z" fill="white"/>
<path d="M1947.94 1564.63C1932.81 1531.93 1908.09 1503.96 1884.21 1476.93L1882.72 1475.16C1847.49 1434.96 1827.09 1379.35 1818.81 1300.38C1816.79 1280.95 1815.41 1261.21 1814.17 1242C1811.24 1199.22 1808.23 1155.02 1797.48 1112.75C1779.16 1041.68 1739.02 987.46 1686.92 964.227C1653.71 949.391 1616.74 946.995 1581.1 944.679C1574.04 944.255 1566.81 943.732 1559.75 943.309C1521.31 940.293 1472.87 932.868 1440.74 901.535C1412.61 874.338 1402.24 834.568 1392.34 795.977C1381.68 755.127 1370.83 713.026 1338.44 686.105C1317.01 668.256 1289.34 660.041 1262.79 652.248C1256.18 650.257 1249.13 648.239 1242.44 645.978C1199.52 632.153 1173.03 611.609 1163.83 584.841C1153.11 553.995 1167.21 521.273 1182.62 490.225C1199.77 455.383 1216.36 425.468 1245.73 409.783C1291.57 385.344 1350.68 408.289 1390.35 438.037C1405.53 449.311 1420.08 462.053 1433.96 474.4C1458.94 496.359 1484.59 519.155 1514.88 533.905C1538.88 545.708 1565.82 552.816 1591.98 559.7C1637.93 571.847 1681.35 583.222 1709.91 617.972C1728.99 641.082 1737.21 670.716 1745.16 699.269C1750.17 717.461 1755.34 736.193 1763.33 753.59C1797.33 827.549 1878.73 867.243 1936.94 890.576C1950.25 895.981 1964.11 901.241 1977.45 906.205C2034 927.667 2092.63 949.874 2138.6 989.656C2159.9 1008.12 2187.07 1018.78 2213.46 1029.22C2242.88 1040.73 2273.16 1052.73 2294.56 1075.36C2306.89 1088.42 2318.8 1105.34 2331.55 1123.2C2346.41 1144.11 2361.42 1165.56 2378 1181.52L2378.99 1179.81C2362.75 1164.04 2347.82 1142.86 2333.12 1122.05C2320.48 1104.02 2308.39 1087 2296.06 1073.95C2274.15 1051.02 2243.7 1038.92 2214.1 1027.31C2187.89 1016.97 2160.89 1006.4 2139.93 988.141C2093.72 947.991 2035.09 925.784 1978.27 904.394C1964.93 899.43 1951.07 894.17 1937.76 888.765C1879.72 865.531 1798.83 826.134 1765.15 752.813C1757.23 735.687 1752.06 716.955 1747.22 698.861C1739.2 670.038 1731.07 640.233 1711.66 616.926C1682.68 581.707 1636.91 569.66 1592.7 558.061C1566.71 551.275 1539.77 544.167 1515.94 532.463C1485.92 517.641 1460.35 495.115 1435.53 473.254C1421.49 460.809 1406.93 448.067 1391.75 436.793C1351.3 406.82 1291.67 383.579 1244.92 408.406C1215.01 424.236 1198.13 454.665 1180.88 489.678C1165.27 521.068 1151.15 554.231 1162.09 585.887C1171.6 613.295 1198.51 634.307 1242.04 648.257C1248.83 650.347 1255.61 652.437 1262.39 654.526C1288.94 662.32 1316.27 670.337 1337.35 687.988C1369.23 714.612 1380.01 756.444 1390.59 797.024C1400.67 835.714 1411.11 875.754 1439.65 903.418C1472.29 935.048 1521.08 942.671 1559.96 945.713C1566.92 946.308 1574.25 946.659 1581.31 947.083C1616.95 949.399 1653.75 951.696 1686.51 966.506C1738 989.613 1777.83 1043.2 1796 1113.73C1806.85 1155.83 1809.87 1200.03 1812.72 1242.54C1813.96 1261.74 1815.34 1281.49 1817.36 1300.92C1825.79 1380.43 1846.26 1436.3 1881.73 1476.87L1883.22 1478.64C1906.93 1505.57 1931.48 1533.44 1946.54 1565.87C1966.06 1607.97 1967.83 1656.7 1951.46 1699.29L1953.17 1700.28C1969.43 1656.7 1967.78 1607.36 1947.94 1564.63Z" fill="white"/>
<path d="M1689.65 691.42C1675.14 661.587 1645.12 636.491 1602.78 618.893C1584.54 611.333 1565.42 605.314 1546.98 599.69C1529.32 594.29 1511.15 588.594 1493.95 581.627C1440.34 559.81 1400.54 523.587 1358.38 485.098L1358.04 484.9C1340.58 468.884 1295.44 435.972 1253.63 474.381C1235.9 490.854 1227.82 516.32 1233.06 539.662C1241.89 578.543 1281.82 602.285 1310.89 616.784C1314.07 618.392 1317.42 620.099 1320.7 621.536C1351.51 636.581 1383.51 652.319 1401.11 680.744C1411.6 697.759 1415.98 717.861 1420.04 737.324C1421.17 742.086 1422.1 747.191 1423.23 751.953C1430.91 784.918 1442.01 807.993 1458.46 824.569C1463.81 829.938 1469.82 834.55 1476.16 838.208C1494.82 848.982 1516.53 851.702 1533.87 844.595C1542.5 841.127 1549.83 835.544 1557.16 829.961C1562.82 825.696 1568.75 821.357 1575.06 817.928C1588.41 811.023 1603.87 808.763 1619.06 806.574C1635.5 804.196 1652.21 801.744 1666.44 793.299C1701.26 772.538 1705.56 724.349 1689.65 691.42ZM1665.39 791.553C1651.53 799.755 1634.82 802.206 1618.65 804.513C1603.46 806.701 1587.73 809.034 1574.12 816.011C1567.63 819.342 1561.6 823.851 1555.84 828.288C1548.71 833.528 1541.38 839.111 1533.02 842.507C1510.43 851.601 1480.35 843.596 1459.89 822.883C1443.78 806.505 1432.75 783.701 1425.22 751.275C1424.09 746.513 1423.06 741.58 1422.02 736.646C1417.8 717.084 1413.52 696.811 1402.96 679.526C1391.49 661.035 1374.21 647.864 1355.21 636.892C1344.42 630.665 1333.07 625.024 1321.62 619.553C1318.44 617.945 1314.99 616.41 1311.81 614.802C1282.91 600.402 1243.66 577.055 1234.88 538.886C1229.68 516.255 1237.64 491.401 1254.8 475.515C1295.31 438.178 1339.42 470.497 1356.47 486.045L1356.81 486.243C1399.13 524.831 1439.01 561.324 1492.96 583.339C1510.34 590.405 1528.51 596.101 1546.16 601.501C1564.6 607.124 1583.73 613.144 1601.79 620.605C1643.69 638.177 1673.3 662.805 1687.56 692.269C1703.26 724.388 1699.2 771.352 1665.39 791.553Z" fill="white"/>
<path d="M1625.09 663.277C1608.6 650.33 1587.81 644.034 1567.87 638.231C1564.39 637.137 1560.65 636.115 1557.17 635.021C1511.87 620.965 1469.3 599.81 1430.48 572.149L1428.35 570.693C1416.89 562.476 1405.08 554.062 1391.26 552.701C1382.8 551.928 1370.03 556.652 1364.41 564.817C1361.2 569.585 1360.81 574.61 1363.16 579.622C1366.57 586.381 1377.01 592.41 1387.11 598.242C1393.44 601.899 1399.44 605.359 1403.05 608.587C1428.91 632.194 1445.82 663.41 1450.57 696.29C1451.38 702.006 1451.82 707.967 1452.46 713.585C1453.33 722.76 1453.99 732.277 1456.18 741.531C1460.08 757.708 1468.71 770.448 1479.84 776.873C1480.69 777.367 1481.72 777.96 1482.68 778.283C1497.41 785.19 1514.12 781.145 1525.72 776.881C1531.61 774.578 1537.26 771.906 1542.91 769.233C1550.11 765.857 1557.51 762.138 1565.27 759.77C1573.13 757.23 1581.55 755.698 1589.77 754.509C1595.58 753.529 1601.67 752.477 1607.41 751.228C1624.67 747.038 1636.99 739.541 1643.56 728.952C1656.79 707.605 1644.2 678.418 1625.09 663.277ZM1641.77 727.694C1635.5 737.769 1623.72 745.121 1606.83 749.068C1600.99 750.488 1595.17 751.468 1589.36 752.447C1581.21 753.907 1572.72 755.169 1564.59 757.781C1556.73 760.32 1549.17 763.94 1541.97 767.317C1536.49 770.088 1530.83 772.76 1525.04 774.892C1513.89 779.182 1497.54 782.984 1483.49 776.472C1471.43 770.877 1462.19 758.011 1458.07 741.024C1455.79 731.942 1455.02 722.596 1454.32 713.52C1453.78 707.731 1453.35 701.77 1452.54 696.053C1447.63 662.634 1430.49 631.048 1404.28 607.244C1400.67 604.016 1395.19 600.853 1389.2 597.393C1388.86 597.196 1388.34 596.899 1388 596.701C1378.58 591.265 1367.97 585.136 1364.98 578.846C1362.77 574.373 1363.2 570.059 1366.02 565.977C1371.25 558.497 1383.21 553.989 1390.96 554.808C1404.44 555.972 1415.97 564.458 1427.1 572.477L1429.22 573.933C1467.94 601.765 1510.85 623.118 1556.42 637.102C1559.9 638.196 1563.65 639.218 1567.13 640.312C1586.96 646.286 1607.51 652.213 1623.66 664.962C1642.28 679.365 1654.59 707.472 1641.77 727.694Z" fill="white"/>
<path d="M2668.23 520.674C2663.78 522.444 2659.44 524.043 2654.99 525.813C2626.4 537.382 2596.72 549.241 2566.41 545.207C2520.63 539.094 2486.66 503.044 2470.37 482.227C2446.77 451.937 2404.89 433.924 2355.1 432.795C2324.94 432.047 2294.88 437.063 2265.63 441.861C2253.29 443.866 2240.5 445.844 2228.09 447.579C2194.52 451.942 2144.9 455.252 2102.84 434.393C2079.45 422.715 2059.92 404.36 2041.14 386.671C2029.91 376.077 2018.33 365.285 2006.07 355.692C1965.43 324.467 1914.89 307.617 1863.84 308.272C1850.55 308.36 1837 309.673 1823.9 311.013C1794.86 313.875 1765.1 316.783 1737.34 307.145C1709.92 297.705 1688.14 276.913 1667.19 257.056C1659.64 249.96 1651.85 242.495 1643.94 235.643C1605.1 202.49 1559.19 182.374 1514.6 178.547C1464.45 174.474 1415.94 191.668 1384.75 224.338C1366.33 243.603 1356.04 273.276 1371.87 292.914C1379.28 302.216 1390.61 306.705 1401.43 310.897C1406.97 313.178 1412.6 315.287 1417.73 318.252C1432.65 326.411 1443.7 340.094 1454.16 353.21C1458.94 359.165 1463.72 365.12 1468.97 370.661C1513.92 418.53 1583.09 431.981 1644.02 443.875C1708.62 456.521 1775.05 472.731 1815.59 520.335C1835.93 544.407 1848.28 574.819 1860.07 604.223C1874.86 641.07 1890.29 679.195 1921.83 704.028C1951.52 727.332 1990.6 734.372 2024.81 738.374C2031.23 739.114 2037.75 739.682 2044.18 740.422C2073.49 743.422 2103.96 746.402 2131.74 757.192C2169.73 772.049 2196.89 802.11 2200.67 833.514C2206.99 884.643 2239.25 931.573 2294.17 969.677C2302.17 975.206 2310.53 980.49 2319.26 985.532C2360.18 1009.16 2409.12 1027.59 2460.19 1038.36L2461.18 1036.65C2399.08 1023.62 2340.14 999.185 2295.06 968.137C2240.55 930.5 2208.54 883.939 2202.36 833.349C2198.36 801.136 2170.89 770.436 2132.11 755.355C2103.99 744.367 2073.52 741.387 2044.04 738.288C2037.52 737.72 2031.1 736.98 2024.68 736.24C1990.8 732.436 1952.17 725.423 1922.82 702.316C1891.52 677.852 1876.43 639.924 1861.71 603.347C1849.76 573.844 1837.51 543.261 1816.82 518.992C1775.7 470.821 1708.92 454.414 1644.05 441.84C1583.29 430.045 1514.57 416.62 1470.03 369.219C1464.95 363.777 1460 357.723 1455.22 351.768C1444.42 338.454 1433.37 324.771 1418.11 316.415C1412.87 313.621 1407.17 311.241 1401.64 308.961C1390.48 304.571 1379.93 300.306 1372.83 291.643C1357.83 272.941 1367.97 244.321 1385.56 225.714C1416.38 193.288 1464.24 176.41 1513.95 180.457C1558.2 184.087 1603.67 204.175 1642.26 236.96C1650.18 243.812 1657.89 251.007 1665.44 258.102C1686.73 278.157 1708.51 298.95 1736.45 308.686C1764.55 318.522 1794.58 315.541 1823.9 312.607C1837 311.267 1850.54 309.954 1863.66 309.768C1914.27 309.086 1964.37 325.909 2004.76 356.765C2017.13 366.187 2028.6 377.15 2039.76 387.474C2058.71 405.262 2078.42 423.716 2101.98 435.493C2144.55 456.648 2194.61 453.364 2228.45 448.929C2241.03 447.293 2253.82 445.315 2266.16 443.31C2295.14 438.584 2325.37 433.668 2355.36 434.316C2404.45 435.491 2445.81 453.207 2468.99 483.03C2485.35 504.117 2519.74 540.635 2566.23 546.702C2597.16 550.861 2626.93 538.832 2655.79 527.19C2660.24 525.42 2664.68 523.65 2669.03 522.051C2708.21 506.777 2738.92 504.192 2762.76 514.303L2763.75 512.59C2739.2 502.526 2707.95 505.255 2668.23 520.674Z" fill="white"/>
<path d="M2661.42 617.869C2628.78 630.524 2598.12 642.5 2564.8 636.957C2536.64 632.345 2514.13 612.039 2492.19 592.3C2479.18 580.448 2465.65 568.299 2450.85 559.528C2376.75 514.693 2309.41 478.323 2235.79 484.444C2224.04 485.421 2212.48 487.65 2201.12 489.537C2185.81 492.338 2169.96 495.283 2154.02 495.212C2096 495.273 2044.48 457.992 1996.81 419.969C1953.02 385.101 1898.68 341.629 1836.71 342.604C1824.3 342.745 1811.96 344.749 1800.16 346.61C1788.08 348.542 1775.47 350.619 1762.89 350.661C1729.49 350.782 1694.22 337.948 1651.97 309.904C1641.75 303.091 1631.56 295.836 1621.71 288.779C1599.19 272.814 1576.1 256.282 1550.7 244.129C1526.33 232.57 1505.95 231.081 1491.79 239.797C1480.01 247.15 1472.76 261.683 1472.94 277.99C1473.4 317.52 1510.96 345.371 1547.65 367.235C1587.14 390.951 1628.11 415.287 1673.29 428.361C1693.05 434.064 1713.93 437.443 1733.92 440.769C1747.08 442.887 1760.58 445.203 1773.79 448.033C1814.35 456.845 1844.16 470.856 1864.64 491.128C1880.95 507.164 1892.01 527.933 1902.69 547.794C1909.45 560.599 1916.55 573.602 1925.03 585.803C1965.99 644.148 2037.43 674.21 2108.73 697.798C2113.34 699.315 2117.94 700.831 2122.54 702.347C2187.33 723.772 2254.3 745.772 2302.27 793.556L2304.68 796.092C2322.48 813.9 2341.13 832.202 2349.69 854.946C2353.2 864.28 2356.08 873.93 2358.98 883.138C2363.4 898.017 2368.14 913.535 2375.26 927.691C2383.89 944.772 2404.65 963.377 2429.3 977.611C2446.25 987.397 2465.27 995.181 2483.2 998.914L2484.29 997.031C2440.8 988.133 2391.07 954.857 2376.9 926.816C2369.68 912.831 2365.12 897.412 2360.6 882.704C2357.79 873.324 2354.92 863.675 2351.41 854.341C2342.61 831.228 2324.05 812.755 2305.92 794.749L2303.5 792.213C2255.19 744.231 2187.88 722.034 2122.92 700.51C2118.32 698.993 2113.71 697.477 2109.28 696.06C2038.42 672.498 1967.22 642.805 1926.61 584.657C1918.2 572.727 1911.2 559.553 1904.34 546.919C1893.59 526.788 1882.42 506.19 1865.87 489.785C1845.05 469.316 1815.17 455.034 1773.99 446.097C1760.79 443.267 1747.02 441.023 1733.96 438.734C1713.96 435.408 1693.36 431.957 1673.49 426.425C1628.48 413.449 1587.69 389.212 1548.19 365.497C1511.85 343.83 1474.87 316.545 1474.36 277.898C1474.23 262.302 1481.09 248.454 1492.4 241.516C1509.68 230.951 1533 238.018 1549.44 245.914C1574.49 257.869 1597.86 274.328 1620.11 290.366C1629.96 297.423 1640.15 304.677 1650.37 311.491C1692.96 339.732 1728.58 352.764 1762.42 352.67C1775 352.628 1787.61 350.551 1799.85 348.717C1811.66 346.857 1824 344.852 1836.14 344.784C1897.57 343.954 1951.56 387.228 1995.01 421.898C2043.02 460.119 2094.72 497.498 2153.35 497.563C2169.38 497.463 2185.41 494.616 2200.72 491.816C2211.91 489.83 2223.64 487.7 2235.22 486.624C2308.39 480.476 2375.47 516.918 2449.15 561.286C2463.68 570.129 2477.21 582.278 2490.15 593.861C2512.26 613.698 2535.12 634.202 2563.61 639.012C2597.38 644.581 2629.75 631.999 2661.22 619.805C2677.35 613.6 2693.86 607.151 2710.58 603.106L2711.96 600.709C2695.25 604.754 2678.2 611.348 2661.42 617.869Z" fill="white"/>
<path d="M2562.54 -14.7833C2528.28 -0.0693039 2478.71 7.679 2442.25 13.2311C2342.07 28.7453 2247.38 48.0564 2186.15 114.527C2175.54 126.065 2166.31 138.814 2157.26 151.252C2142.59 171.254 2127.39 192.192 2106.89 207.168C2077.87 228.646 2040.96 236.428 2005.28 243.881L1998.02 245.3C1966.58 251.879 1949.43 263.589 1945.89 280.873C1941.44 302.617 1962.63 321.707 1985.34 328.795C2023.02 340.57 2064.19 332.963 2102.94 324.162C2262.16 288.085 2417.32 233.863 2563.91 162.438C2580.02 154.697 2595.43 153.203 2607.68 158.615C2616.95 162.719 2625.14 168.693 2633.08 174.733C2637.33 177.81 2641.89 181.067 2646.39 184.078C2677.66 204.419 2718.36 208.797 2754.99 198.982C2776.13 193.317 2795.95 182.735 2811.75 167.961L2811.03 165.257C2768.99 206.031 2696.77 213.79 2647.71 182.142C2643.22 179.131 2638.97 176.054 2634.72 172.977C2626.53 167.002 2618.28 160.783 2608.76 156.745C2595.89 150.973 2579.67 152.418 2562.9 160.603C2416.48 231.716 2261.64 286.118 2102.65 322.13C2064.15 330.865 2023.72 338.274 1986.36 326.679C1965.07 319.999 1944.46 302.072 1948.75 281.689C1952.05 265.52 1968.42 254.811 1998.81 248.25L2006.07 246.831C2042 239.313 2079.15 231.464 2108.6 209.608C2129.27 194.32 2144.72 173.317 2159.32 153.069C2168.38 140.631 2177.61 127.882 2188.04 116.656C2248.67 50.8747 2343.11 31.6294 2442.55 16.3129C2479.01 10.7607 2528.82 2.94663 2563.58 -11.899C2594.28 -25.1332 2617.78 -48.5561 2640.67 -71.2897C2666.48 -96.9121 2693.14 -123.29 2730.29 -135.089L2729.63 -137.547C2691.99 -125.616 2665.15 -98.927 2638.92 -72.927C2616.07 -50.9968 2592.82 -27.6399 2562.54 -14.7833Z" fill="white"/>
</g>
</svg>
