<svg width="758" height="1291" viewBox="0 0 758 1291" fill="none" xmlns="http://www.w3.org/2000/svg">
<path d="M-212.171 288.452C-192.65 309.488 -167.254 327.289 -136.565 341.038C-108.465 353.652 -82.8652 359.988 -58.3668 360.284C-18.0457 360.713 20.1313 344.659 57.054 329.192C72.984 322.568 89.3882 315.631 105.73 310.177C120.771 305.18 140.682 299.493 160.761 301.343C186.296 303.758 211.11 315.336 236.738 336.708C272.752 366.844 330.116 370.044 370.093 344.155C381.047 337.089 390.834 327.951 400.193 319.255C407.447 312.468 415.092 305.544 423.056 299.53C445.013 283.044 469.067 277.507 487.098 284.752C515.352 296.143 521.258 332.046 522.548 346.93C523.189 354.154 523.31 361.562 523.47 368.663C523.984 386.741 524.421 405.431 531.411 422.401C535.68 432.878 542.372 442.357 548.844 451.621C556.834 463.127 565.221 474.931 568.713 488.602C574.07 509.652 567.61 530.329 560.866 552.275C555.94 568.176 550.891 584.559 550.811 600.947C550.697 620.561 557.539 639.19 564.199 657.298C568.58 669.342 573.275 681.861 575.706 694.591C583.791 735.862 569.199 781.602 537.608 813.891C507.731 844.409 464.308 862.162 418.688 862.866C412.153 862.973 405.35 862.735 398.677 862.453C376.35 861.685 353.282 860.886 334.029 872.185C307.395 887.832 297.656 921.201 289.943 947.87C281.524 976.685 269.395 1007.83 242.567 1019.6C223.356 1028.11 202.637 1024.44 180.872 1020.7C170.295 1018.87 159.412 1017 148.726 1016.52C123.434 1015.62 97.7252 1023.93 74.1552 1040.4C52.8267 1055.35 33.9138 1076.76 21.0594 1100.85C-0.0836452 1140.42 -24.8083 1216.75 -25.7387 1274.33L-24.3088 1273.83C-23.1569 1216.46 1.31498 1140.66 22.4194 1101.39C50.4568 1049.03 100.127 1016.22 148.793 1017.95C159.303 1018.35 170.186 1020.22 180.763 1022.05C201.787 1025.76 223.553 1029.5 243.154 1020.85C270.503 1008.9 282.93 977.359 291.387 948.238C299.146 921.7 308.671 888.552 334.876 873.348C353.785 862.316 376.677 863.031 398.874 863.844C405.501 863.997 412.35 864.364 418.886 864.257C464.987 863.676 508.754 845.656 538.845 814.917C570.781 782.36 585.495 736.139 577.403 694.432C574.926 681.572 570.278 669.184 565.851 657.01C559.236 639.031 552.394 620.403 552.6 601.049C552.725 584.79 557.82 568.537 562.661 552.812C569.244 531.654 575.989 509.708 570.54 488.398C566.956 474.467 558.654 462.487 550.488 450.897C544.062 441.763 537.545 432.368 533.323 422.021C526.554 405.266 526.033 386.751 525.565 368.803C525.359 361.572 525.238 354.164 524.596 346.94C523.345 331.75 517.341 295.152 488.3 283.599C469.741 276.102 445.297 281.776 422.866 298.574C414.772 304.634 407.173 311.688 399.919 318.475C390.56 327.171 380.857 336.133 369.903 343.199C330.4 368.776 273.778 365.607 238.207 335.899C212.357 314.314 187.368 302.651 161.526 300.198C141.272 298.263 121.185 303.866 105.93 309.084C89.4582 314.584 73.054 321.521 57.1241 328.145C20.3313 343.566 -17.7156 359.574 -57.7311 359.184C-82.0537 358.972 -107.478 352.721 -135.448 340.061C-165.831 326.35 -191.135 308.809 -210.481 287.858C-226.673 270.472 -238.59 250.706 -245.553 230.075L-246.853 230.532C-240.547 250.956 -228.455 270.806 -212.171 288.452Z" fill="white" fill-opacity="0.1"/>
<path d="M-163.095 418.876C-107.158 446.68 -47.5345 452.153 0.199534 434.2C20.4266 426.503 39.0608 414.692 56.9608 403.285C65.3293 398.005 74.0422 392.458 82.6322 387.392C117.129 367.52 146.39 360.59 172.282 366.093C189.033 369.697 204.173 378.689 218.61 387.343C226.004 391.755 233.62 396.38 241.527 400.173C290.428 424.171 351.728 420.29 397.917 390.463C410.294 382.459 430.877 377.851 446.105 376.294C462.595 374.585 477.991 380.565 485.232 391.604C490.55 399.667 491.533 409.108 492.439 419.161C493.027 425.819 493.707 432.738 495.817 439.154C498.659 447.649 503.879 455.016 508.877 462.169C513.784 469.062 518.737 476.085 521.525 484.015C529.297 506.115 519.148 530.426 508.236 553.399C497.532 575.714 484.299 603.301 460.806 619.158C439.639 633.32 414.533 635.867 387.906 638.657C370.155 640.517 351.662 642.345 334.847 648.112C313.611 655.433 294.348 668.78 275.82 681.723C249.06 700.335 223.853 717.964 192.84 719.082C173.63 719.702 155.048 713.382 137.168 707.399C128.052 704.323 118.585 701.079 109.178 698.836C74.5684 690.555 35.4743 693.201 -7.01118 706.972C-35.1053 715.974 -57.3625 727.453 -74.991 742.124C-86.6439 751.772 -96.5639 763.441 -106.185 774.712C-113.71 783.639 -121.448 792.787 -129.988 800.903C-155.952 825.517 -174.254 820.412 -191.898 815.515C-199.516 813.374 -207.265 811.278 -215.498 811.544C-222.989 811.841 -230.442 811.832 -237.765 811.778C-260.123 811.752 -281.304 811.75 -302.326 818.85C-314.331 822.926 -329.546 825.354 -345.67 828.102C-367.184 831.724 -390.655 835.595 -408.651 843.822L-408.194 845.122C-390.374 836.811 -367.032 832.985 -345.518 829.364C-329.348 826.745 -314.05 824.141 -301.914 820.02C-281.153 813.012 -260.102 813.059 -237.789 812.955C-230.466 813.009 -223.013 813.018 -215.522 812.721C-207.595 812.417 -200.152 814.474 -192.358 816.699C-174.362 821.765 -155.625 826.863 -129.102 801.76C-120.432 793.599 -112.694 784.45 -105.17 775.523C-95.6782 764.298 -85.7581 752.629 -74.2353 743.027C-56.691 728.531 -34.694 717.144 -6.7298 708.188C35.5414 694.638 74.414 691.778 108.764 700.15C118.171 702.393 127.638 705.637 136.623 708.759C154.679 714.826 173.437 721.23 192.777 720.565C224.096 719.485 250.726 700.918 276.407 682.977C294.935 670.035 314.068 656.733 335.044 649.504C351.86 643.737 370.222 641.954 387.844 640.14C413.385 637.586 439.882 634.842 461.393 620.412C485.146 604.464 498.548 576.525 509.252 554.21C520.378 531.016 530.695 506.353 522.611 483.779C519.777 475.719 514.733 468.436 509.826 461.544C504.827 454.391 499.653 447.154 496.857 438.788C494.793 432.502 494.159 425.714 493.44 419.101C492.496 409.354 491.545 399.171 486.005 390.894C478.496 379.511 462.574 373.278 445.518 375.039C438.034 375.772 412.507 379.198 396.81 389.392C351.141 419.035 290.23 422.779 241.857 399.035C234.08 395.196 226.51 390.7 219.116 386.289C204.503 377.55 189.363 368.559 172.306 364.916C146.063 359.244 116.412 366.311 81.7007 386.405C72.9351 391.386 64.3522 396.888 55.8994 402.343C37.9994 413.75 19.5409 425.646 -0.601847 433.167C-48.0759 451.029 -107.134 445.503 -162.849 417.913C-213.071 393.065 -254.794 355.004 -295.187 318.228L-351.509 266.895L-352.939 267.398L-296.129 319.289C-255.261 355.752 -213.493 393.944 -163.095 418.876Z" fill="white" fill-opacity="0.1"/>
<path d="M-437.491 381.706C-413.321 388.545 -387.309 388.162 -362.168 387.794L-360.555 387.811C-323.298 387.419 -284.621 401.864 -239.085 433.326C-227.888 441.075 -216.813 449.305 -206.091 457.366C-182.132 475.235 -157.38 493.701 -130.137 507.201C-84.2235 529.765 -37.3168 533.137 -1.37833 516.117C21.543 505.282 39.5887 486.812 56.9916 469.007C60.4202 465.464 63.9788 461.875 67.4074 458.333C86.4474 439.367 112.363 417.108 143.523 414.331C170.677 411.794 196.422 424.36 221.335 436.634C247.783 449.537 274.98 462.907 303.926 457.987C323.093 454.753 339.998 443.842 356.17 433.335C360.224 430.741 364.493 427.925 368.723 425.415C395.518 408.981 418.409 404.292 436.746 411.575C457.933 419.9 468.846 442.21 478.276 464.457C488.925 489.343 497.224 511.696 492.191 534.354C484.315 569.698 445.345 590.559 411.604 598.042C398.751 600.954 385.402 602.873 372.574 604.608C349.616 607.861 325.916 611.082 304.364 620.413C287.226 627.755 271.237 638.782 255.723 649.496C228.443 668.291 202.716 686.102 171.369 685.439C150.486 685.04 131.074 675.944 112.364 667.186C100.461 661.584 88.207 655.814 75.3771 652.146C20.8177 636.565 -37.1293 661.616 -75.892 681.82C-84.7949 686.411 -93.8662 691.354 -102.548 696.16C-139.568 716.335 -177.926 737.273 -219.837 743.538C-239.271 746.428 -257.246 755.962 -274.746 765.183C-294.188 775.526 -314.281 786.097 -335.968 787.15C-348.467 787.747 -362.828 786.37 -378.061 785.007C-395.869 783.381 -414.029 781.586 -429.999 783.112L-429.542 784.412C-413.832 782.978 -395.848 784.688 -378.169 786.359C-362.891 787.852 -348.399 789.184 -335.901 788.587C-313.824 787.397 -293.601 776.78 -274.028 766.392C-256.659 757.216 -238.814 747.728 -219.64 744.93C-177.423 738.703 -139.065 717.765 -101.961 697.414C-93.2791 692.608 -84.2077 687.665 -75.3049 683.074C-36.6721 662.916 20.8848 638.002 74.9629 653.46C87.617 657.044 99.8712 662.814 111.644 668.461C130.529 677.304 149.988 686.53 171.13 686.838C202.913 687.494 230.063 668.744 256.264 650.62C271.649 639.952 287.637 628.925 304.646 621.629C326.113 612.474 349.637 609.168 372.465 605.961C385.424 604.18 398.772 602.261 411.625 599.349C445.841 591.553 485.201 570.555 493.284 534.554C498.485 511.544 490.05 488.802 479.354 463.786C469.833 441.279 458.699 418.755 436.985 410.176C418.167 402.77 394.84 407.467 367.7 424.168C363.515 426.808 359.331 429.448 355.147 432.088C338.975 442.595 322.33 453.415 303.423 456.557C274.867 461.34 247.846 448.054 221.574 435.236C196.531 423.007 170.61 410.357 143.02 412.901C111.47 415.815 85.2945 438.166 66.0402 457.353C62.5659 460.765 59.053 464.484 55.6245 468.027C38.2216 485.832 20.3059 504.256 -2.40119 514.87C-37.9954 531.623 -84.4207 528.374 -129.983 505.978C-157.18 492.608 -181.932 474.142 -205.715 456.358C-216.438 448.296 -227.512 440.066 -238.709 432.317C-284.597 400.687 -323.449 386.157 -361.012 386.511L-362.625 386.494C-387.636 386.817 -413.519 387.153 -437.513 380.399C-468.644 371.626 -495.228 350.445 -510.33 322.45L-511.63 322.908C-495.955 351.285 -469.104 372.81 -437.491 381.706Z" fill="white" fill-opacity="0.1"/>
<path d="M141.708 641.384C164.075 647.25 190.979 642.756 219.508 628.342C231.784 622.126 243.648 614.741 254.992 607.538C265.862 600.648 277.122 593.621 288.618 587.68C324.489 569.223 361.72 564.603 401.214 559.772L401.474 559.681C417.873 557.712 455.774 548.767 454.429 509.216C453.76 492.36 443.956 476.526 429.228 468.705C404.652 455.727 373.965 466.08 353.102 474.877C350.808 475.83 348.384 476.828 346.135 477.911C324.194 487.379 301.343 497.168 278.316 493.579C264.552 491.407 251.932 484.597 239.793 477.91C236.76 476.347 233.636 474.524 230.603 472.962C209.679 462.06 192.432 457.461 176.195 458.643C170.928 459.034 165.76 460.121 160.95 461.812C146.78 466.795 135.485 477.048 131.374 489.449C129.295 495.585 128.921 501.998 128.547 508.41C128.235 513.34 127.839 518.446 126.787 523.345C124.382 533.539 118.562 542.743 112.826 551.771C106.624 561.548 100.336 571.501 98.3435 582.865C93.5261 610.707 117.064 634.858 141.708 641.384ZM99.742 583.104C101.696 572.046 107.984 562.093 114.102 552.491C119.838 543.463 125.742 534.083 128.231 523.713C129.414 518.769 129.764 513.533 130.03 508.473C130.495 502.32 130.87 495.908 132.864 489.948C138.31 473.864 156.195 461.585 176.438 460.164C192.415 459.074 209.486 463.589 230.059 474.322C233.092 475.884 236.17 477.577 239.249 479.27C251.517 485.912 264.183 492.852 278.123 495.107C293.11 497.433 307.92 494.271 322.35 489.196C330.54 486.317 338.677 482.871 346.768 479.295C349.063 478.342 351.441 477.214 353.735 476.261C374.468 467.51 404.635 457.34 428.813 470.019C443.145 477.542 452.682 493.032 453.297 509.322C454.667 547.696 417.546 556.367 401.583 558.328L401.323 558.419C361.699 563.296 324.292 567.832 288.161 586.38C276.535 592.367 265.275 599.394 254.405 606.284C243.061 613.486 231.196 620.872 219.051 627.042C190.737 641.234 164.268 645.721 142.207 639.894C118.09 633.621 95.0861 610.158 99.742 583.104Z" fill="white" fill-opacity="0.1"/>
<path d="M185.9 620.001C200.235 617.151 213.002 609.01 225.119 601.097C227.277 599.755 229.518 598.236 231.675 596.893C259.672 579.306 290.186 566.385 322.438 558.404L324.173 557.94C333.723 555.604 343.533 553.177 350.528 546.482C354.775 542.359 358.072 533.457 356.306 526.775C355.241 522.913 352.759 520.426 349.038 519.398C343.918 518.13 335.988 520.919 328.318 523.616C323.508 525.307 318.958 526.907 315.609 527.354C291.382 530.323 267.195 525.097 247.641 512.691C244.25 510.524 240.897 508.051 237.636 505.838C232.389 502.132 227.05 498.167 221.16 495.125C210.832 489.847 200.178 488.627 191.728 491.598C191.078 491.826 190.298 492.101 189.693 492.459C179.353 497.118 173.906 507.798 170.901 515.866C169.443 520.03 168.292 524.233 167.14 528.436C165.659 533.777 164.269 539.379 162 544.559C159.777 549.869 156.767 555.017 153.666 559.906C151.545 563.427 149.339 567.124 147.393 570.73C141.777 581.761 140.153 591.681 142.773 599.962C148.058 616.655 169.217 623.238 185.9 620.001ZM144.249 599.59C141.766 591.698 143.222 582.13 148.799 571.404C150.699 567.668 152.82 564.147 154.942 560.626C157.867 555.653 161.053 550.589 163.36 545.103C165.583 539.793 167.103 534.146 168.585 528.805C169.606 524.647 170.758 520.445 172.26 516.41C175.052 508.563 180.461 498.189 190.281 493.714C198.716 489.871 209.715 490.824 220.57 496.355C226.415 499.267 231.707 503.102 236.824 506.854C240.131 509.197 243.484 511.67 246.876 513.837C266.781 526.411 291.274 531.676 315.761 528.616C319.109 528.169 323.269 526.706 327.819 525.106C328.079 525.014 328.469 524.877 328.729 524.786C335.879 522.272 343.939 519.437 348.623 520.712C351.993 521.572 354.078 523.76 354.96 527.102C356.543 533.265 353.499 541.639 349.55 545.364C342.816 551.969 333.09 554.22 323.801 556.464L322.065 556.928C289.768 564.78 258.994 577.792 230.912 595.555C228.755 596.897 226.514 598.416 224.357 599.759C212.194 607.541 199.732 615.721 185.657 618.48C169.585 621.794 149.13 615.548 144.249 599.59Z" fill="white" fill-opacity="0.1"/>
<path d="M-212.107 1236.59C-211.025 1233.44 -209.898 1230.41 -208.817 1227.26C-201.959 1206.88 -194.765 1185.8 -178.872 1171.59C-154.861 1150.15 -120.37 1148.54 -101.964 1149.37C-75.227 1150.63 -46.6915 1136.65 -23.4929 1110.82C-9.40998 1095.2 1.58011 1077.02 12.3173 1059.37C16.8588 1051.93 21.6145 1044.27 26.3317 1036.91C39.2575 1017.18 60.0276 989.423 90.1517 976.639C106.946 969.565 125.523 967.561 143.404 965.655C154.107 964.521 165.07 963.296 175.713 961.16C210.677 953.832 242.528 934.743 265.354 907.435C271.34 900.364 276.791 892.604 282.028 885.066C293.697 868.4 305.664 851.337 323.364 841.023C340.804 830.801 361.689 828.715 381.704 826.644C388.882 825.873 396.366 825.14 403.583 824.063C438.752 818.562 470.232 803.402 492.493 781.551C517.41 756.867 530.329 723.402 527.201 692.073C525.372 673.581 514.341 654.672 496.768 654.132C488.483 653.832 480.964 657.79 473.836 661.612C470.119 663.503 466.447 665.524 462.547 666.896C451.459 671.087 439.206 670.721 427.519 670.303C422.199 670.128 416.879 669.954 411.566 670.215C365.838 672.272 327.331 702.757 293.384 729.594C257.371 758.033 218.645 785.82 175.06 785.663C153.091 785.5 131.399 778.228 110.493 771.118C84.285 762.221 57.1138 753.078 29.6583 758.496C3.85413 763.626 -17.6073 781.105 -35.2531 797.389C-38.5588 800.451 -41.8188 803.642 -45.1245 806.703C-60.0159 820.85 -75.4202 835.616 -93.7387 845.417C-118.841 858.772 -147.071 859.497 -165.402 847.245C-195.321 827.382 -234.789 823.148 -279.879 834.913C-286.431 836.633 -293.023 838.658 -299.653 840.99C-330.723 851.915 -362.687 869.436 -391.568 891.57L-391.111 892.87C-356.033 865.928 -316.353 845.84 -279.467 836.083C-234.813 824.325 -195.651 828.521 -166.084 848.215C-147.225 860.719 -118.514 860.118 -92.9372 846.45C-74.3587 836.557 -58.9545 821.792 -43.933 807.599C-40.673 804.408 -37.3673 801.346 -34.0616 798.285C-16.6759 782.092 4.57125 764.834 30.1154 759.796C57.2652 754.339 84.1764 763.573 110.209 772.386C131.244 779.451 152.983 786.852 175.211 786.924C219.362 787.029 258.348 759.151 294.445 730.535C328.262 703.744 366.555 673.481 411.848 671.431C417.03 671.215 422.48 671.344 427.8 671.518C439.747 671.846 452 672.211 463.349 667.929C467.203 666.427 471.05 664.49 474.767 662.599C482.156 658.686 489.2 655.04 497.004 655.218C513.706 655.772 524.248 674.122 526.108 691.873C529.275 722.896 516.479 755.88 491.776 780.342C469.775 802.102 438.509 817.04 403.646 822.58C396.429 823.657 389.121 824.474 381.942 825.245C361.668 827.408 340.782 829.494 322.953 839.853C304.993 850.259 292.941 867.497 281.188 884.338C275.951 891.877 270.5 899.637 264.644 906.662C242.032 933.749 210.395 952.616 175.737 959.983C165.14 962.248 154.131 963.344 143.604 964.562C125.593 966.514 106.886 968.564 89.9618 975.683C59.4476 988.604 38.4632 1016.58 25.4531 1036.49C20.606 1043.89 15.8502 1051.56 11.3088 1058.99C0.655872 1076.47 -10.4643 1094.7 -24.4171 1110.27C-47.3172 1135.7 -75.4627 1149.54 -101.764 1148.27C-120.345 1147.36 -155.272 1148.98 -179.582 1170.82C-195.819 1185.29 -202.968 1206.5 -209.909 1227.06C-210.991 1230.21 -212.072 1233.37 -213.2 1236.39C-222.901 1264.05 -235.473 1281.48 -251.641 1289.5L-251.184 1290.8C-234.717 1282.38 -221.977 1264.61 -212.107 1236.59Z" fill="white" fill-opacity="0.1"/>
<path d="M-260.438 1188.88C-252.316 1165.87 -244.739 1144.21 -226.682 1129.1C-211.463 1116.3 -190.501 1113.6 -170.104 1110.95C-157.925 1109.45 -145.357 1107.8 -134.001 1103.96C-76.6498 1085.1 -26.8428 1065.98 3.33018 1024.26C8.14591 1017.6 12.2131 1010.47 16.3717 1003.61C21.8403 994.233 27.4774 984.509 34.7489 976.109C61.0489 945.388 104.157 935.05 145.91 927.088C184.23 919.748 231.892 910.73 259.502 877.503C265.059 870.875 269.601 863.435 273.974 856.346C278.431 849.082 283.057 841.466 288.744 834.792C303.838 817.068 326.64 804.23 360.651 794.607C368.894 792.293 377.358 790.193 385.562 788.185C404.226 783.521 423.456 778.804 441.413 770.883C458.59 763.236 468.623 753.134 470.44 741.686C471.896 732.117 467.498 721.686 458.792 714.376C437.67 696.679 405.886 703.911 377.669 713.395C347.196 723.526 315.729 734.153 288.305 752.123C276.317 759.99 265.055 769.501 254.22 778.57C247.127 784.569 239.775 790.661 232.285 796.362C209.21 813.825 188.27 823.233 168.249 824.868C152.364 826.218 136.354 822.645 121.001 819.28C111.158 817.044 101.055 814.899 90.7527 813.848C41.2945 809.036 -7.03539 833.188 -51.8753 860.204C-54.7667 861.951 -57.6581 863.698 -60.5495 865.445C-101.289 889.996 -143.322 915.44 -190.375 919.131L-192.813 919.258C-210.312 920.59 -228.46 922.152 -244.376 916.354C-250.908 913.977 -257.318 911.119 -263.507 908.474C-273.385 904.06 -283.745 899.523 -294.467 896.866C-307.419 893.678 -326.685 896.217 -345.405 902.799C-358.275 907.325 -371.025 913.853 -381.139 921.646L-380.636 923.076C-356.192 904.109 -316.018 892.904 -294.751 898.134C-284.075 900.661 -273.845 905.244 -264.013 909.529C-257.778 912.303 -251.369 915.162 -244.836 917.539C-228.615 923.375 -210.42 921.943 -192.662 920.519L-190.223 920.392C-142.911 916.609 -100.618 891.074 -59.7482 866.478C-56.8567 864.731 -53.9652 862.983 -51.2038 861.282C-6.57817 834.488 41.4459 810.298 90.6441 815.201C100.771 816.168 110.92 818.442 120.717 820.548C136.245 823.998 152.209 827.441 168.401 826.13C188.682 824.403 209.798 815.079 233.216 797.349C240.706 791.648 248.143 785.381 255.282 779.511C266.116 770.443 277.295 761.107 289.236 753.11C316.53 735.186 347.867 724.605 378.34 714.474C406.297 705.081 437.515 697.902 458.195 715.17C466.504 722.182 470.719 732.093 469.256 741.226C467 755.166 452.68 764.291 441.04 769.407C423.343 777.237 404.029 782.129 385.449 786.618C377.245 788.626 368.781 790.726 360.538 793.04C326.267 802.754 303.205 815.684 287.897 833.629C282.21 840.304 277.584 847.919 272.997 855.229C268.624 862.318 264.082 869.757 258.609 876.21C231.168 909.085 183.765 918.012 145.706 925.26C103.693 933.314 60.4547 943.698 33.8103 974.686C26.5846 983.216 20.8174 992.986 15.3488 1002.36C11.3202 1009.18 7.123 1016.35 2.43727 1022.97C-27.5214 1064.47 -77.244 1083.41 -134.159 1102.26C-145.431 1105.93 -157.999 1107.58 -170.002 1109.17C-190.529 1111.86 -211.752 1114.64 -227.23 1127.54C-245.502 1142.87 -253.539 1165.71 -261.369 1187.89C-265.411 1199.25 -269.491 1210.91 -274.938 1221.59L-274.298 1223.41C-268.851 1212.73 -264.602 1200.72 -260.438 1188.88Z" fill="white" fill-opacity="0.1"/>
</svg>
