<svg width="1560" height="960" viewBox="0 0 1560 960" fill="none" xmlns="http://www.w3.org/2000/svg">
<path d="M978.284 637.25C910.162 567.188 825.01 528.169 745.247 529.894C711.401 530.756 677.771 538.517 645.435 546.062C630.345 549.511 614.608 553.176 599.302 556.194C538.078 567.619 491.298 562.661 455.944 541.104C433.093 527.091 415.416 505.965 398.601 485.701C389.978 475.353 381.139 464.574 371.438 454.873C311.724 394.081 219.242 367.996 135.598 388.045C113.179 393.434 80.411 389.554 57.1288 383.949C31.9064 377.913 12.2891 361.098 7.33086 341.049C3.66608 326.39 7.11518 311.947 10.9955 296.641C13.5825 286.509 16.1694 275.945 16.3849 265.382C16.6005 251.37 12.7202 237.788 9.05544 224.638C5.39065 211.919 1.72582 198.985 1.72582 185.835C1.72582 149.187 29.3195 118.575 57.3443 90.3346C84.7224 62.9565 118.568 29.1112 161.467 17.9012C200.056 7.98476 238.428 17.2545 279.172 26.9554C306.334 33.4227 334.575 40.3211 362.384 40.5367C397.523 40.7523 432.877 31.0513 466.938 21.566C516.089 7.98472 562.438 -4.94983 608.787 9.49374C637.459 18.5479 661.603 37.5186 684.885 55.627C696.742 64.8968 709.03 74.5976 721.749 82.7895C768.529 112.97 827.596 129.354 897.443 131.078C943.576 132.372 982.38 126.983 1016.01 114.479C1038.21 106.287 1058.91 94.215 1078.96 82.574C1094.69 73.3042 1110.86 63.8188 1127.68 56.2737C1178.77 33.4227 1203.13 50.4531 1226.63 66.8369C1236.76 73.9509 1247.11 81.0649 1259.39 84.9452C1270.6 88.3944 1281.6 92.2748 1292.38 96.1552C1325.36 107.796 1356.62 118.791 1391.33 119.222C1411.16 119.437 1434.87 123.749 1460.1 128.06C1493.73 133.881 1530.37 140.348 1561.2 137.546V135.39C1530.59 138.408 1494.16 131.941 1460.53 126.12C1435.3 121.593 1411.38 117.497 1391.33 117.282C1357.05 116.85 1326.01 105.856 1293.02 94.4306C1282.25 90.5503 1271.25 86.6699 1260.04 83.2207C1248.18 79.5559 1238.27 72.6575 1227.92 65.3279C1203.99 48.513 1178.98 31.2669 1126.82 54.5491C1109.78 62.0943 1093.62 71.5796 1077.88 80.8493C1058.05 92.4904 1037.35 104.563 1015.36 112.755C981.949 125.042 943.576 130.432 897.659 129.138C828.243 127.198 769.391 111.246 723.042 81.0649C710.323 72.873 698.035 63.1721 686.394 53.9023C662.897 35.5784 638.536 16.3922 609.649 7.33798C562.869 -7.32117 513.934 6.26012 466.723 19.4102C432.662 28.8956 397.523 38.5965 362.815 38.3809C335.006 38.1654 306.981 31.2669 280.034 24.7996C241.015 15.3143 200.487 5.61343 161.252 15.7455C117.921 26.9554 83.6446 61.2319 56.2664 88.6101C27.8105 117.066 -0.21434 148.109 0.00123577 185.619C0.00123577 198.985 3.66608 212.35 7.33086 225.069C10.9957 238.22 14.8759 251.585 14.6604 265.382C14.4448 275.73 11.858 286.077 9.48662 296.209C5.82183 311.084 1.94144 326.606 5.82181 341.696C10.9956 362.391 31.2597 379.853 57.3443 386.105C68.7698 388.907 108.22 397.099 136.676 390.2C219.457 370.152 311.293 396.237 370.36 456.382C379.846 466.083 388.684 476.646 397.307 486.994C414.338 507.474 432.015 528.6 455.297 542.828C491.083 564.817 538.509 569.775 600.164 558.134C615.686 555.331 631.207 551.667 646.513 548.002C678.849 540.457 712.263 532.48 745.893 531.834C825.225 530.109 909.515 568.913 977.422 638.544C1038.65 701.276 1080.47 779.099 1120.99 854.335L1177.48 959.32H1179.85L1122.94 853.257C1081.54 778.237 1039.72 700.198 978.284 637.25Z" fill="white" fill-opacity="0.1"/>
<path d="M1363.95 834.502C1331.83 811.867 1293.24 798.932 1255.95 786.429L1253.57 785.566C1198.39 766.811 1148.8 725.421 1097.93 655.359C1085.43 638.113 1073.35 620.22 1061.71 602.758C1035.63 563.954 1008.68 523.857 975.481 489.796C919.432 432.669 851.957 403.351 790.086 409.818C750.636 413.914 714.419 431.807 679.496 449.053C672.598 452.502 665.484 455.951 658.585 459.4C620.644 477.509 570.846 496.91 523.419 484.838C482.029 474.491 450.555 442.585 420.158 411.542C387.822 378.775 354.623 344.93 309.352 337.169C279.387 331.995 248.776 339.325 219.457 346.439C212.128 348.163 204.367 350.103 196.822 351.612C148.749 361.96 112.532 357.002 89.2497 336.738C62.3027 313.455 57.7756 274.867 55.4043 237.142C52.6018 194.889 51.9551 157.594 71.1413 126.767C101.106 78.6936 169.444 68.1303 223.122 74.5976C243.602 76.9689 264.297 81.0649 284.13 85.1608C319.7 92.2748 356.348 99.82 392.996 97.233C422.099 95.2929 451.417 87.3165 479.873 79.5558C529.886 65.9745 577.097 53.04 623.015 70.2861C653.627 81.7116 677.556 105.209 700.622 127.845C715.281 142.288 730.372 157.163 747.402 169.235C819.836 220.542 918.354 213.644 986.045 203.943C1001.57 201.787 1017.52 199.2 1032.82 196.613C1097.93 186.05 1165.4 175.056 1230.51 187.559C1260.69 193.38 1292.16 188.637 1322.77 184.11C1356.83 178.936 1391.97 173.762 1424.53 183.463C1443.28 189.068 1463.76 198.554 1485.53 208.47C1510.97 220.111 1536.84 232.183 1561.2 238.22V236.064C1537.27 230.028 1511.62 218.171 1486.4 206.53C1464.62 196.398 1443.93 186.913 1425.17 181.308C1391.97 171.607 1356.62 176.78 1322.34 181.954C1291.95 186.481 1260.69 191.224 1230.94 185.404C1165.4 172.685 1097.93 183.679 1032.61 194.458C1017.3 197.045 1001.35 199.632 985.829 201.787C918.354 211.488 820.482 218.387 748.696 167.511C731.881 155.654 716.791 140.779 702.347 126.336C679.065 103.485 655.136 79.7714 624.093 68.3459C577.529 50.8843 527.731 64.4655 479.657 77.6156C451.417 85.3764 422.099 93.3527 393.211 95.2929C356.779 97.6642 320.347 90.3346 284.992 83.2206C264.944 79.1247 244.249 75.0288 223.769 72.6574C169.228 66.4057 100.244 76.9689 69.6322 125.905C50.0148 157.163 50.6616 195.104 53.4641 237.573C55.8354 275.73 60.5781 314.749 88.1718 338.678C112.101 359.373 148.964 364.547 197.684 353.984C205.229 352.259 212.775 350.535 220.32 348.81C249.638 341.696 279.819 334.366 309.352 339.54C353.977 347.301 386.96 380.931 419.081 413.483C449.692 444.526 481.382 476.646 523.419 487.21C571.492 499.282 621.722 479.88 660.094 461.556C666.993 458.322 674.107 454.658 681.005 451.208C715.928 433.962 751.929 416.069 790.949 412.189C852.172 405.937 919 434.825 974.619 491.521C1007.82 525.366 1034.76 565.463 1060.63 604.052C1072.27 621.513 1084.35 639.406 1096.85 656.652C1148.16 727.145 1197.96 768.751 1253.57 787.722L1255.95 788.584C1293.02 801.088 1331.4 814.022 1363.3 836.442C1404.69 865.545 1432.93 910.6 1440.69 959.751H1442.85C1434.44 909.738 1405.99 864.036 1363.95 834.502Z" fill="white" fill-opacity="0.1"/>
<path d="M643.926 150.696C613.961 130.432 571.923 123.102 522.341 129.569C500.999 132.372 479.657 137.115 459.177 141.857C439.56 146.384 419.296 150.911 399.247 153.714C336.73 162.337 279.387 149.834 218.595 136.468H218.164C192.941 130.863 132.364 124.396 113.825 183.463C106.064 208.686 112.316 237.142 129.993 256.328C159.527 288.233 210.187 288.88 245.542 286.724C249.422 286.508 253.518 286.293 257.398 285.862C294.693 283.275 333.497 280.688 365.617 297.934C384.804 308.282 399.894 324.881 414.338 341.049C418.002 344.93 421.667 349.241 425.332 353.121C450.554 380.068 473.621 395.805 498.196 402.488C506.173 404.644 514.365 405.722 522.341 405.722C545.839 405.722 567.827 396.452 580.331 380.284C586.583 372.308 590.463 363.038 594.343 353.768C597.361 346.654 600.595 339.325 604.691 332.642C613.53 318.845 626.895 308.282 640.045 297.934C654.273 286.724 668.717 275.299 677.555 259.561C699.113 220.973 676.909 173.116 643.926 150.696ZM675.615 258.484C666.992 273.789 652.549 285.215 638.536 296.209C625.386 306.557 611.805 317.336 602.751 331.348C598.439 338.031 595.206 345.576 592.188 352.906C588.307 361.744 584.427 371.014 578.391 378.775C562.007 399.686 529.239 408.524 498.628 400.117C474.483 393.434 451.632 377.913 426.841 351.397C423.176 347.516 419.511 343.42 415.847 339.325C401.187 323.156 386.097 306.341 366.695 295.778C345.784 284.568 322.287 281.55 298.358 281.55C284.777 281.55 270.98 282.413 257.183 283.49C253.302 283.706 249.207 284.137 245.326 284.353C210.187 286.508 160.389 285.862 131.287 254.603C114.041 236.064 108.004 208.255 115.55 183.894C133.442 126.551 192.726 133.019 217.301 138.408H217.732C278.74 151.774 336.299 164.493 399.247 155.87C419.511 153.067 439.775 148.54 459.393 144.013C479.872 139.27 501.215 134.528 522.341 131.725C571.492 125.473 612.883 132.587 642.417 152.636C674.753 174.409 696.526 220.973 675.615 258.484Z" fill="white" fill-opacity="0.1"/>
<path d="M567.612 159.319C544.977 156.085 521.91 161.475 499.921 166.864C496.041 167.726 491.945 168.804 488.065 169.666C437.62 181.092 385.882 184.326 334.144 179.367L331.341 179.152C316.035 177.643 300.298 176.134 286.501 182.385C278.094 186.266 268.609 197.691 267.746 208.47C267.315 214.722 269.687 219.68 274.645 223.129C281.543 227.656 294.693 227.656 307.412 227.656C315.389 227.656 322.934 227.656 328.108 228.734C365.402 236.926 398.385 257.19 420.805 285.646C424.685 290.604 428.35 295.994 432.015 300.952C437.836 309.144 443.656 317.767 450.77 325.312C463.273 338.462 478.364 345.792 492.376 345.792C493.454 345.792 494.748 345.792 495.825 345.576C513.503 344.067 527.084 331.133 535.707 320.785C540.018 315.396 543.899 309.791 547.779 304.186C552.737 297.072 557.696 289.527 563.732 283.059C569.768 276.376 576.882 270.34 583.996 264.735C588.954 260.639 594.128 256.328 598.871 252.016C612.883 238.651 620.428 224.854 620.859 211.273C621.722 183.894 593.912 163.199 567.612 159.319ZM618.488 211.057C618.057 223.992 610.943 237.357 597.146 250.292C592.403 254.819 587.445 258.915 582.487 263.011C575.588 268.831 568.259 274.652 562.007 281.55C555.971 288.233 550.797 295.778 545.839 302.892C542.174 308.497 538.294 314.102 533.982 319.276C525.79 329.408 512.425 341.912 495.61 343.421C481.166 344.714 465.429 337.6 452.279 323.803C445.165 316.474 439.345 308.066 433.74 299.874C430.075 294.7 426.41 289.311 422.53 284.353C399.679 255.466 366.264 234.986 328.539 226.794C323.365 225.716 316.466 225.716 308.921 225.716C308.49 225.716 307.843 225.716 307.412 225.716C295.556 225.716 282.19 225.716 275.938 221.405C271.411 218.387 269.471 214.075 269.902 208.686C270.764 198.769 279.603 187.99 287.364 184.541C300.729 178.29 316.251 180.014 331.126 181.523L333.928 181.739C385.666 186.913 437.836 183.679 488.496 172.038C492.376 171.176 496.472 170.098 500.352 169.235C522.341 164.061 544.977 158.457 567.181 161.69C592.619 165.139 619.566 184.972 618.488 211.057Z" fill="white" fill-opacity="0.1"/>
<path d="M1377.75 733.613C1361.36 727.145 1344.98 719.816 1329.24 712.486C1295.83 697.396 1261.55 681.659 1225.12 674.329C1175.75 664.628 1131.13 626.687 1092.32 561.799C1084.13 548.217 1076.37 533.989 1068.83 520.193C1047.91 482.036 1026.36 442.585 994.668 411.758C946.163 364.331 879.119 341.48 814.231 319.276C801.081 314.749 787.499 310.222 774.565 305.479C763.57 301.599 753.007 297.287 745.031 290.173C737.701 283.49 731.881 271.849 735.33 261.286C738.995 250.507 750.851 244.471 761.199 243.178C771.978 241.884 782.972 244.471 793.751 247.058L795.26 247.489C933.66 279.61 1079.17 276.161 1216.06 237.573C1261.77 224.638 1314.15 212.35 1359.85 230.674C1398.01 245.765 1430.78 272.28 1462.25 297.718C1468.29 302.677 1474.54 307.635 1480.58 312.378C1504.07 330.917 1530.8 350.103 1560.55 362.607V360.235C1531.45 347.732 1505.15 328.977 1482.08 310.653C1476.05 305.91 1469.8 300.952 1463.76 295.994C1432.07 270.34 1399.3 244.04 1360.72 228.734C1314.37 210.41 1261.55 222.698 1215.63 235.633C1079.17 274.221 934.091 277.67 795.907 245.549L794.398 245.118C783.619 242.531 772.409 239.944 761.199 241.238C751.067 242.531 737.701 248.352 733.605 260.855C730.156 270.987 734.252 283.275 743.953 291.898C752.145 299.443 762.924 303.755 774.134 307.635C787.284 312.378 800.865 316.905 813.8 321.432C878.472 343.42 945.085 366.271 993.374 413.267C1024.85 443.879 1046.19 483.329 1067.1 521.27C1074.65 535.067 1082.41 549.295 1090.6 562.877C1129.62 628.412 1174.89 666.568 1224.69 676.485C1260.69 683.599 1294.96 699.336 1328.16 714.426C1344.12 721.756 1360.5 729.085 1376.88 735.553C1468.72 771.769 1534.47 862.958 1539.64 959.536H1541.8C1536.84 862.096 1470.44 770.045 1377.75 733.613Z" fill="white" fill-opacity="0.1"/>
<path d="M1402.11 317.983C1333.55 280.257 1258.1 274.221 1200.54 301.599C1170.58 315.827 1142.55 344.93 1147.08 377.913C1150.96 405.937 1175.32 423.615 1198.82 440.645C1219.3 455.52 1240.42 470.826 1249.05 493.03C1255.51 509.414 1254.01 527.738 1252.71 545.199C1251.42 562.661 1250.12 580.554 1256.16 597.153C1263.06 616.339 1280.52 633.585 1304.88 645.227C1319.54 652.341 1335.49 657.083 1350.8 661.61C1357.48 663.55 1364.38 665.706 1371.28 668.077C1446.3 693.084 1519.59 762.284 1560.98 820.921V817.256C1519.16 758.835 1446.3 690.929 1371.93 665.922C1365.24 663.766 1358.13 661.61 1351.45 659.454C1336.14 654.927 1320.4 649.969 1305.96 643.071C1282.03 631.645 1265 614.83 1258.32 596.075C1252.5 579.907 1253.79 562.23 1255.08 544.984C1256.38 527.091 1257.67 508.551 1251.2 491.737C1242.36 468.886 1221.02 453.364 1200.33 438.489C1176.18 421.028 1153.33 404.428 1149.45 377.266C1145.14 345.361 1172.52 317.12 1201.62 303.108C1258.53 276.161 1333.12 282.197 1401.03 319.492C1456.22 349.672 1515.28 410.896 1560.77 459.616V456.382C1515.28 408.309 1456.86 347.948 1402.11 317.983Z" fill="white" fill-opacity="0.1"/>
<path d="M1433.58 420.812C1398.87 399.901 1365.24 396.452 1343.68 411.542C1326.01 424.046 1317.17 448.621 1319.32 479.018C1322.99 534.636 1354.68 590.47 1405.99 632.076C1445.22 663.766 1494.59 687.91 1560.98 707.528V705.372C1495.23 685.97 1446.08 662.041 1407.28 630.567C1356.4 589.392 1325.15 534.205 1321.48 479.233C1320.62 465.221 1321.05 430.729 1344.98 413.698C1375.81 391.925 1419.78 415.207 1432.5 422.968C1469.37 445.172 1532.31 530.109 1560.98 576.027V571.5C1531.24 524.935 1469.8 442.801 1433.58 420.812Z" fill="white" fill-opacity="0.1"/>
</svg>
