<svg width="94" height="54" viewBox="0 0 94 54" fill="none" xmlns="http://www.w3.org/2000/svg">
<path d="M14.9767 10.6667C16.7422 11.697 17.6555 13.3333 17.6555 15.4546C17.6555 17.3333 16.9858 18.8485 15.7073 20C14.4288 21.1515 12.6632 21.697 10.5324 21.697H1.52203V0.484863H9.92359C12.0544 0.484863 13.7591 1.03032 15.0376 2.12123C16.3161 3.21214 16.9249 4.66668 16.9249 6.54547C16.9858 8.24244 16.3161 9.69698 14.9767 10.6667ZM9.74095 5.33335H6.94043V8.66668H9.74095C10.228 8.66668 10.6542 8.54547 10.9586 8.24244C11.263 7.93941 11.4456 7.51517 11.4456 7.03032C11.4456 6.54547 11.263 6.12123 10.9586 5.8182C10.715 5.45456 10.2889 5.33335 9.74095 5.33335ZM10.3498 16.8485C10.8977 16.8485 11.3238 16.6667 11.6891 16.3637C12.0544 16.0606 12.1762 15.5758 12.1762 15.0909C12.1762 14.5455 11.9935 14.1212 11.6891 13.7576C11.3238 13.4546 10.8977 13.2727 10.3498 13.2727H7.00131V16.8485H10.3498Z" fill="white"/>
<path d="M25.2655 16.4243H32.5712V21.6364H19.7863V0.424316H25.2655V16.4243Z" fill="white"/>
<path d="M48.2176 21.697L47.3044 18.6667H40.1813L39.2681 21.697H33.3627L40.364 0.484863H47L54.0622 21.697H48.2176ZM41.5816 13.9394H45.8432L43.7124 6.72729L41.5816 13.9394Z" fill="white"/>
<path d="M65.1425 22.1212C61.9158 22.1212 59.2979 21.0909 57.1671 18.9697C55.0363 16.8485 54.0013 14.2424 54.0013 11.0909C54.0013 7.93939 55.0363 5.33333 57.1671 3.21212C59.2979 1.0303 61.9767 0 65.1425 0C67.0907 0 68.8562 0.484848 70.5 1.39394C72.1438 2.30303 73.4223 3.51515 74.3355 5.0303L69.5868 7.75758C69.1606 7.0303 68.5518 6.42424 67.7604 6C66.9689 5.57576 66.0557 5.33333 65.0816 5.33333C63.3769 5.33333 61.9767 5.87879 60.9417 6.90909C59.9067 7.93939 59.3588 9.33333 59.3588 11.0909C59.3588 12.8485 59.9067 14.1818 60.9417 15.2727C61.9767 16.3636 63.3769 16.8485 65.0816 16.8485C66.0557 16.8485 66.9689 16.6061 67.7604 16.1818C68.5518 15.7576 69.1606 15.1515 69.5868 14.3636L74.3355 17.0909C73.4223 18.6667 72.1438 19.8788 70.5 20.7879C68.9171 21.697 67.0907 22.1212 65.1425 22.1212Z" fill="white"/>
<path d="M94 21.697H87.9119L81.8238 12.2424V21.697H76.3445V0.484863H81.8238V9.39395L87.6075 0.484863H93.6956L86.9378 10.7879L94 21.697Z" fill="white"/>
<path d="M6.70423 54L0 31H6.5674L10.2616 45.4571L14.5714 31H19.4286L23.7384 45.4571L27.4326 31H34L27.3642 54H20.9336L17.0342 40.9886L13.2032 54H6.70423Z" fill="white"/>
<path d="M48.7699 54L47.7965 50.7143H40.2684L39.295 54H33L40.4631 31H47.5369L55 54H48.7699ZM41.7611 45.5886H46.3038L44.0324 37.7686L41.7611 45.5886Z" fill="white"/>
<path d="M61.8283 54L54 31H60.7892L65.5 46.8371L70.2108 31H77L69.1717 54H61.8283Z" fill="white"/>
<path d="M85 48.48H94V54H79V31H93.8667V36.52H85V39.6743H93V45.1286H85V48.48Z" fill="white"/>
</svg>
