<svg width="27" height="35" viewBox="0 0 27 35" fill="none" xmlns="http://www.w3.org/2000/svg">
<path d="M21.7062 16.4262C24.5545 18.0883 26.0278 20.7282 26.0278 24.1504C26.0278 27.1814 24.9474 29.6257 22.8848 31.4835C20.8222 33.3412 17.9739 34.2211 14.5363 34.2211H0V0H13.5541C16.9917 0 19.7418 0.879972 21.8044 2.63992C23.867 4.39986 24.8491 6.74645 24.8491 9.77747C24.9474 12.5152 23.867 14.8618 21.7062 16.4262ZM13.2594 7.82198H8.7414V13.1996H13.2594C14.0452 13.1996 14.7327 13.004 15.2238 12.5152C15.7149 12.0263 16.0095 11.3419 16.0095 10.5597C16.0095 9.77747 15.7149 9.09305 15.2238 8.60417C14.8309 8.01753 14.1434 7.82198 13.2594 7.82198ZM14.2416 26.3992C15.1256 26.3992 15.8131 26.1058 16.4024 25.617C16.9917 25.1281 17.1881 24.3459 17.1881 23.5637C17.1881 22.6837 16.8935 21.9993 16.4024 21.4127C15.8131 20.9238 15.1256 20.6305 14.2416 20.6305H8.83962V26.3992H14.2416Z" fill="white"/>
</svg>
