<svg width="518" height="681" viewBox="0 0 518 681" fill="none" xmlns="http://www.w3.org/2000/svg">
<path d="M431.992 326.88C488.679 359.957 518 412.491 518 480.591C518 540.909 496.498 589.551 455.449 626.52C414.4 663.489 357.713 681 289.298 681H0V0H269.751C338.166 0 392.898 17.5114 433.947 52.5343C474.996 87.5571 494.543 134.254 494.543 194.571C496.498 249.051 474.996 295.749 431.992 326.88ZM263.887 155.657H173.97V262.671H263.887C279.525 262.671 293.208 258.78 302.981 249.051C312.755 239.323 318.619 225.703 318.619 210.137C318.619 194.571 312.755 180.951 302.981 171.223C295.162 159.549 281.479 155.657 263.887 155.657ZM283.434 525.343C301.026 525.343 314.709 519.506 326.438 509.777C338.166 500.049 342.076 484.483 342.076 468.917C342.076 451.406 336.211 437.786 326.438 426.111C314.709 416.383 301.026 410.546 283.434 410.546H175.925V525.343H283.434Z" fill="black" fill-opacity="0.02"/>
</svg>
